<?xml version="1.0" encoding="UTF-8"?>
<svg xmlns="http://www.w3.org/2000/svg" xmlns:xlink="http://www.w3.org/1999/xlink" width="566.929pt" height="566.929pt" viewBox="0 0 566.929 566.929" version="1.2">
<g id="surface1">
<path style=" stroke:none;fill-rule:nonzero;fill:rgb(62.353516%,62.353516%,62.745667%);fill-opacity:1;" d="M 418.363281 363.867188 L 448.128906 312.351562 C 452.863281 304.125 450.050781 293.628906 441.835938 288.878906 C 433.605469 284.148438 423.132812 286.964844 418.363281 295.167969 L 398.558594 329.5 L 195.605469 329.5 L 267.632812 391.863281 C 274.789062 398.078125 285.636719 397.277344 291.851562 390.117188 C 294.65625 386.859375 296.054688 382.867188 296.054688 378.894531 C 296.054688 374.074219 294.042969 369.285156 290.097656 365.898438 C 290.097656 365.898438 288.03125 364.109375 287.757812 363.867188 Z M 418.363281 363.867188 "/>
<path style=" stroke:none;fill-rule:nonzero;fill:rgb(62.353516%,62.353516%,62.745667%);fill-opacity:1;" d="M 257.558594 119.308594 L 167.558594 150.503906 C 158.613281 153.605469 153.863281 163.394531 156.960938 172.351562 C 158.382812 176.402344 161.148438 179.589844 164.589844 181.589844 C 168.769531 184.011719 173.917969 184.667969 178.816406 182.972656 C 178.816406 182.972656 181.394531 182.074219 181.746094 181.957031 L 116.429688 295.054688 L 146.160156 346.574219 C 150.9375 354.8125 161.425781 357.613281 169.632812 352.863281 C 177.847656 348.140625 180.664062 337.625 175.933594 329.410156 L 156.09375 295.054688 Z M 257.558594 119.308594 "/>
<path style=" stroke:none;fill-rule:nonzero;fill:rgb(62.353516%,62.353516%,62.745667%);fill-opacity:1;" d="M 326.867188 67.941406 L 267.386719 67.941406 C 257.855469 67.941406 250.1875 75.617188 250.1875 85.105469 C 250.1875 94.589844 257.855469 102.28125 267.386719 102.28125 L 307.023438 102.28125 L 408.488281 278.039062 L 426.488281 184.503906 C 428.289062 175.175781 422.179688 166.175781 412.863281 164.386719 C 408.636719 163.585938 404.484375 164.386719 401.050781 166.371094 C 396.871094 168.789062 393.722656 172.910156 392.75 177.992188 C 392.75 177.992188 392.246094 180.679688 392.179688 181.042969 Z M 326.867188 67.941406 "/>
<path style=" stroke:none;fill-rule:nonzero;fill:rgb(13.725281%,9.803772%,8.627319%);fill-opacity:1;" d="M 365.230469 255.695312 L 292.234375 255.695312 L 292.234375 262.652344 L 309.371094 262.652344 L 309.371094 291.339844 L 321.550781 291.339844 L 321.550781 262.652344 L 335.902344 262.652344 L 335.902344 291.339844 L 348.09375 291.339844 L 348.09375 262.652344 L 365.230469 262.652344 Z M 365.230469 255.695312 "/>
<path style=" stroke:none;fill-rule:nonzero;fill:rgb(13.725281%,9.803772%,8.627319%);fill-opacity:1;" d="M 301.882812 240.320312 C 301.882812 243.589844 303.09375 248.324219 309.851562 248.324219 L 356.316406 248.324219 L 356.316406 241.371094 L 314.082031 241.371094 L 314.082031 233.109375 L 355.5625 233.109375 L 355.5625 210.300781 L 301.882812 210.300781 L 301.882812 217.261719 L 343.382812 217.261719 L 343.382812 226.152344 L 301.882812 226.152344 Z M 301.882812 240.320312 "/>
<path style=" stroke:none;fill-rule:nonzero;fill:rgb(13.725281%,9.803772%,8.627319%);fill-opacity:1;" d="M 270.289062 209.023438 L 270.289062 229.609375 L 263.640625 229.609375 L 263.640625 209.023438 L 252.117188 209.023438 L 252.117188 269.667969 L 263.640625 269.667969 L 263.640625 236.566406 L 270.289062 236.566406 L 270.289062 269.667969 L 281.8125 269.667969 L 281.8125 209.023438 Z M 270.289062 209.023438 "/>
<path style=" stroke:none;fill-rule:nonzero;fill:rgb(13.725281%,9.803772%,8.627319%);fill-opacity:1;" d="M 239.097656 284.386719 L 239.097656 264.015625 L 226.910156 264.015625 L 226.910156 283.339844 C 226.910156 286.605469 228.105469 291.339844 234.871094 291.339844 L 283.726562 291.339844 L 283.726562 284.386719 Z M 239.097656 284.386719 "/>
<path style=" stroke:none;fill-rule:nonzero;fill:rgb(13.725281%,9.803772%,8.627319%);fill-opacity:1;" d="M 214.730469 210.671875 L 214.730469 217.636719 L 233.628906 217.636719 C 233.679688 220.167969 233.925781 224.308594 233.277344 228.976562 L 214.730469 228.976562 L 214.730469 235.933594 L 231.628906 235.933594 C 229.101562 243.089844 223.597656 250.265625 211.8125 254.128906 L 216.652344 258.96875 C 231.222656 254.949219 245.808594 245 245.808594 219.636719 L 245.808594 210.671875 Z M 214.730469 210.671875 "/>
<path style=" stroke:none;fill-rule:nonzero;fill:rgb(13.725281%,9.803772%,8.627319%);fill-opacity:1;" d="M 298.332031 423.261719 L 256.375 423.261719 L 256.375 430.214844 L 298.332031 430.214844 Z M 298.332031 423.261719 "/>
<path style=" stroke:none;fill-rule:nonzero;fill:rgb(13.725281%,9.803772%,8.627319%);fill-opacity:1;" d="M 280.984375 426.632812 L 271.214844 425.46875 C 271.214844 432.261719 271.0625 446.425781 252.636719 454.285156 L 256.515625 459.882812 C 264.867188 457.429688 276.8125 450.753906 280.789062 438.144531 Z M 280.984375 426.632812 "/>
<path style=" stroke:none;fill-rule:nonzero;fill:rgb(13.725281%,9.803772%,8.627319%);fill-opacity:1;" d="M 273.730469 426.632812 L 283.496094 425.46875 C 283.496094 432.261719 283.640625 446.425781 302.066406 454.285156 L 298.1875 459.882812 C 289.84375 457.429688 277.898438 450.753906 273.917969 438.144531 Z M 273.730469 426.632812 "/>
<path style=" stroke:none;fill-rule:nonzero;fill:rgb(13.725281%,9.803772%,8.627319%);fill-opacity:1;" d="M 294.609375 443.308594 L 314.402344 443.308594 L 314.402344 436.351562 L 294.609375 436.351562 Z M 294.609375 443.308594 "/>
<path style=" stroke:none;fill-rule:nonzero;fill:rgb(13.725281%,9.803772%,8.627319%);fill-opacity:1;" d="M 320.976562 458.847656 L 308.796875 458.847656 L 308.796875 416.636719 L 320.976562 416.636719 Z M 320.976562 458.847656 "/>
<path style=" stroke:none;fill-rule:nonzero;fill:rgb(13.725281%,9.803772%,8.627319%);fill-opacity:1;" d="M 283.449219 425.472656 L 271.261719 425.472656 L 271.261719 415.339844 L 283.449219 415.339844 Z M 283.449219 425.472656 "/>
<path style=" stroke:none;fill-rule:nonzero;fill:rgb(13.725281%,9.803772%,8.627319%);fill-opacity:1;" d="M 267.3125 490.910156 C 267.3125 494.179688 268.515625 498.914062 275.273438 498.914062 L 321.730469 498.914062 L 321.730469 491.957031 L 279.503906 491.957031 L 279.503906 484.691406 L 320.976562 484.691406 L 320.976562 463.722656 L 267.3125 463.722656 L 267.3125 470.675781 L 308.796875 470.675781 L 308.796875 477.738281 L 267.3125 477.738281 Z M 267.3125 490.910156 "/>
</g>
</svg>
