<?xml version="1.0" encoding="UTF-8"?>
<svg xmlns="http://www.w3.org/2000/svg" xmlns:xlink="http://www.w3.org/1999/xlink" width="566.929pt" height="566.929pt" viewBox="0 0 566.929 566.929" version="1.2">
<g id="surface1">
<path style=" stroke:none;fill-rule:nonzero;fill:rgb(62.353516%,62.353516%,62.745667%);fill-opacity:1;" d="M 418.359375 363.84375 L 448.132812 312.332031 C 452.863281 304.101562 450.050781 293.601562 441.835938 288.859375 C 433.617188 284.125 423.132812 286.933594 418.359375 295.140625 L 398.566406 329.472656 L 195.609375 329.472656 L 267.632812 391.828125 C 274.785156 398.058594 285.644531 397.253906 291.855469 390.074219 C 294.65625 386.828125 296.054688 382.84375 296.054688 378.867188 C 296.054688 374.054688 294.042969 369.25 290.101562 365.871094 C 290.101562 365.871094 288.035156 364.078125 287.761719 363.84375 Z M 418.359375 363.84375 "/>
<path style=" stroke:none;fill-rule:nonzero;fill:rgb(62.353516%,62.353516%,62.745667%);fill-opacity:1;" d="M 257.5625 119.285156 L 167.554688 150.476562 C 158.609375 153.578125 153.867188 163.367188 156.964844 172.324219 C 158.382812 176.375 161.15625 179.574219 164.589844 181.570312 C 168.773438 183.984375 173.917969 184.644531 178.816406 182.957031 C 178.816406 182.957031 181.390625 182.050781 181.746094 181.929688 L 116.429688 295.027344 L 146.164062 346.550781 C 150.941406 354.789062 161.425781 357.59375 169.636719 352.832031 C 177.84375 348.121094 180.65625 337.59375 175.9375 329.378906 L 156.09375 295.027344 Z M 257.5625 119.285156 "/>
<path style=" stroke:none;fill-rule:nonzero;fill:rgb(62.353516%,62.353516%,62.745667%);fill-opacity:1;" d="M 326.875 67.921875 L 267.382812 67.921875 C 257.863281 67.921875 250.191406 75.589844 250.191406 85.078125 C 250.191406 94.566406 257.863281 102.261719 267.382812 102.261719 L 307.023438 102.261719 L 408.484375 278.015625 L 426.488281 184.480469 C 428.285156 175.144531 422.183594 166.15625 412.871094 164.363281 C 408.632812 163.558594 404.480469 164.363281 401.050781 166.351562 C 396.871094 168.765625 393.730469 172.886719 392.753906 177.96875 C 392.753906 177.96875 392.25 180.664062 392.1875 181.023438 Z M 326.875 67.921875 "/>
<path style=" stroke:none;fill-rule:nonzero;fill:rgb(13.725281%,9.803772%,8.627319%);fill-opacity:1;" d="M 365.226562 255.675781 L 292.234375 255.675781 L 292.234375 262.632812 L 309.378906 262.632812 L 309.378906 291.316406 L 321.5625 291.316406 L 321.5625 262.632812 L 335.90625 262.632812 L 335.90625 291.316406 L 348.101562 291.316406 L 348.101562 262.632812 L 365.226562 262.632812 Z M 365.226562 255.675781 "/>
<path style=" stroke:none;fill-rule:nonzero;fill:rgb(13.725281%,9.803772%,8.627319%);fill-opacity:1;" d="M 301.894531 240.296875 C 301.894531 243.574219 303.105469 248.300781 309.855469 248.300781 L 356.320312 248.300781 L 356.320312 241.347656 L 314.078125 241.347656 L 314.078125 233.085938 L 355.5625 233.085938 L 355.5625 210.277344 L 301.894531 210.277344 L 301.894531 217.234375 L 343.382812 217.234375 L 343.382812 226.136719 L 301.894531 226.136719 Z M 301.894531 240.296875 "/>
<path style=" stroke:none;fill-rule:nonzero;fill:rgb(13.725281%,9.803772%,8.627319%);fill-opacity:1;" d="M 270.289062 209 L 270.289062 229.585938 L 263.648438 229.585938 L 263.648438 209 L 252.117188 209 L 252.117188 269.644531 L 263.648438 269.644531 L 263.648438 236.546875 L 270.289062 236.546875 L 270.289062 269.644531 L 281.828125 269.644531 L 281.828125 209 Z M 270.289062 209 "/>
<path style=" stroke:none;fill-rule:nonzero;fill:rgb(13.725281%,9.803772%,8.627319%);fill-opacity:1;" d="M 239.101562 284.371094 L 239.101562 263.988281 L 226.910156 263.988281 L 226.910156 283.316406 C 226.910156 286.574219 228.113281 291.316406 234.871094 291.316406 L 283.734375 291.316406 L 283.734375 284.371094 Z M 239.101562 284.371094 "/>
<path style=" stroke:none;fill-rule:nonzero;fill:rgb(13.725281%,9.803772%,8.627319%);fill-opacity:1;" d="M 214.734375 210.652344 L 214.734375 217.613281 L 233.636719 217.613281 C 233.6875 220.136719 233.929688 224.289062 233.277344 228.945312 L 214.734375 228.945312 L 214.734375 235.90625 L 231.628906 235.90625 C 229.105469 243.058594 223.597656 250.234375 211.804688 254.097656 L 216.664062 258.941406 C 231.226562 254.933594 245.8125 244.980469 245.8125 219.609375 L 245.8125 210.652344 Z M 214.734375 210.652344 "/>
<path style=" stroke:none;fill-rule:nonzero;fill:rgb(13.725281%,9.803772%,8.627319%);fill-opacity:1;" d="M 319.660156 498.933594 L 307.464844 498.933594 L 307.464844 416.632812 L 319.660156 416.632812 Z M 319.660156 498.933594 "/>
<path style=" stroke:none;fill-rule:nonzero;fill:rgb(13.725281%,9.803772%,8.627319%);fill-opacity:1;" d="M 283.769531 462.199219 L 268.65625 462.199219 L 268.65625 425.800781 L 283.769531 425.800781 Z M 295.945312 469.152344 L 295.945312 418.855469 L 256.472656 418.855469 L 256.472656 461.160156 C 256.472656 464.417969 257.683594 469.152344 264.4375 469.152344 Z M 295.945312 469.152344 "/>
<path style=" stroke:none;fill-rule:nonzero;fill:rgb(13.725281%,9.803772%,8.627319%);fill-opacity:1;" d="M 403.796875 453.3125 L 331.566406 453.3125 L 331.566406 460.277344 L 349.429688 460.277344 L 349.429688 472.554688 L 361.617188 472.554688 L 361.617188 460.277344 L 373.730469 460.277344 L 373.730469 472.554688 L 385.914062 472.554688 L 385.914062 460.277344 L 403.796875 460.277344 Z M 403.796875 453.3125 "/>
<path style=" stroke:none;fill-rule:nonzero;fill:rgb(13.725281%,9.803772%,8.627319%);fill-opacity:1;" d="M 340.121094 416.632812 L 340.121094 437.613281 C 340.121094 440.878906 341.320312 445.617188 348.085938 445.617188 L 396.738281 445.617188 L 396.738281 438.660156 L 352.296875 438.660156 L 352.296875 416.632812 Z M 340.121094 416.632812 "/>
<path style=" stroke:none;fill-rule:nonzero;fill:rgb(13.725281%,9.803772%,8.627319%);fill-opacity:1;" d="M 381.332031 491.949219 L 354.027344 491.949219 L 354.027344 477.265625 L 381.332031 477.265625 Z M 341.835938 470.304688 L 341.835938 490.890625 C 341.835938 494.167969 343.035156 498.890625 349.792969 498.890625 L 393.519531 498.890625 L 393.519531 470.304688 Z M 341.835938 470.304688 "/>
<path style=" stroke:none;fill-rule:nonzero;fill:rgb(13.725281%,9.803772%,8.627319%);fill-opacity:1;" d="M 228.4375 437.8125 L 248.222656 437.8125 L 248.222656 430.847656 L 228.4375 430.847656 Z M 228.4375 437.8125 "/>
<path style=" stroke:none;fill-rule:nonzero;fill:rgb(13.725281%,9.803772%,8.627319%);fill-opacity:1;" d="M 191.839844 449.273438 C 186.882812 449.273438 182.855469 443.46875 182.855469 436.265625 C 182.855469 429.101562 186.882812 423.28125 191.839844 423.28125 C 196.800781 423.28125 200.839844 429.101562 200.839844 436.265625 C 200.839844 443.46875 196.800781 449.273438 191.839844 449.273438 M 191.839844 416.335938 C 180.101562 416.335938 170.574219 425.265625 170.574219 436.265625 C 170.574219 447.292969 180.101562 456.230469 191.839844 456.230469 C 203.589844 456.230469 213.113281 447.292969 213.113281 436.265625 C 213.113281 425.265625 203.589844 416.335938 191.839844 416.335938 "/>
<path style=" stroke:none;fill-rule:nonzero;fill:rgb(13.725281%,9.803772%,8.627319%);fill-opacity:1;" d="M 235.375 456.128906 L 223.191406 456.128906 L 223.191406 416.632812 L 235.375 416.632812 Z M 235.375 456.128906 "/>
<path style=" stroke:none;fill-rule:nonzero;fill:rgb(13.725281%,9.803772%,8.627319%);fill-opacity:1;" d="M 183.617188 490.890625 C 183.617188 494.167969 184.820312 498.890625 191.570312 498.890625 L 236.121094 498.890625 L 236.121094 491.949219 L 195.792969 491.949219 L 195.792969 483.886719 L 235.375 483.886719 L 235.375 462.410156 L 183.617188 462.410156 L 183.617188 469.355469 L 223.191406 469.355469 L 223.191406 476.914062 L 183.617188 476.914062 Z M 183.617188 490.890625 "/>
</g>
</svg>
