<?xml version="1.0" encoding="UTF-8"?>
<svg xmlns="http://www.w3.org/2000/svg" xmlns:xlink="http://www.w3.org/1999/xlink" width="566.929pt" height="566.929pt" viewBox="0 0 566.929 566.929" version="1.2">
<g id="surface1">
<path style=" stroke:none;fill-rule:nonzero;fill:rgb(93.725586%,52.549744%,10.980225%);fill-opacity:1;" d="M 418.359375 415.292969 L 448.121094 363.78125 C 452.871094 355.566406 450.054688 345.0625 441.828125 340.328125 C 433.617188 335.574219 423.140625 338.40625 418.375 346.601562 L 398.554688 380.945312 L 195.609375 380.945312 L 267.621094 443.308594 C 274.792969 449.503906 285.632812 448.722656 291.847656 441.554688 C 294.660156 438.304688 296.03125 434.296875 296.03125 430.320312 C 296.03125 425.511719 294.027344 420.730469 290.113281 417.339844 C 290.113281 417.339844 288.03125 415.558594 287.753906 415.292969 Z M 418.359375 415.292969 "/>
<path style=" stroke:none;fill-rule:nonzero;fill:rgb(93.725586%,52.549744%,10.980225%);fill-opacity:1;" d="M 257.5625 170.746094 L 167.554688 201.957031 C 158.597656 205.058594 153.855469 214.832031 156.972656 223.800781 C 158.371094 227.859375 161.128906 231.042969 164.589844 233.035156 C 168.765625 235.449219 173.914062 236.101562 178.828125 234.398438 C 178.828125 234.398438 181.402344 233.503906 181.730469 233.375 L 116.429688 346.503906 L 146.179688 398.015625 C 150.925781 406.238281 161.417969 409.074219 169.636719 404.308594 C 177.847656 399.570312 180.667969 389.0625 175.921875 380.855469 L 156.097656 346.503906 Z M 257.5625 170.746094 "/>
<path style=" stroke:none;fill-rule:nonzero;fill:rgb(93.725586%,52.549744%,10.980225%);fill-opacity:1;" d="M 326.867188 119.371094 L 267.371094 119.371094 C 257.867188 119.371094 250.203125 127.0625 250.203125 136.546875 C 250.203125 146.042969 257.867188 153.703125 267.371094 153.703125 L 307.023438 153.703125 L 408.5 329.480469 L 426.496094 235.921875 C 428.285156 226.617188 422.15625 217.621094 412.859375 215.824219 C 408.648438 215.023438 404.480469 215.824219 401.042969 217.816406 C 396.878906 220.230469 393.726562 224.351562 392.753906 229.445312 C 392.753906 229.445312 392.238281 232.132812 392.175781 232.488281 Z M 326.867188 119.371094 "/>
<path style=" stroke:none;fill-rule:nonzero;fill:rgb(19.999695%,17.64679%,17.254639%);fill-opacity:1;" d="M 244.976562 294.414062 C 238.503906 294.414062 233.253906 288.144531 233.253906 280.414062 C 233.253906 272.679688 238.503906 266.410156 244.976562 266.410156 C 251.457031 266.410156 256.703125 272.679688 256.703125 280.414062 C 256.703125 288.144531 251.457031 294.414062 244.976562 294.414062 M 244.976562 259.457031 C 231.65625 259.457031 220.851562 268.839844 220.851562 280.414062 C 220.851562 291.988281 231.65625 301.371094 244.976562 301.371094 C 258.304688 301.371094 269.105469 291.988281 269.105469 280.414062 C 269.105469 268.839844 258.304688 259.457031 244.976562 259.457031 "/>
<path style=" stroke:none;fill-rule:nonzero;fill:rgb(19.999695%,17.64679%,17.254639%);fill-opacity:1;" d="M 281.472656 307.132812 L 208.484375 307.132812 L 208.484375 314.089844 L 225.613281 314.089844 L 225.613281 342.777344 L 237.796875 342.777344 L 237.796875 314.089844 L 252.160156 314.089844 L 252.160156 342.777344 L 264.34375 342.777344 L 264.34375 314.089844 L 281.472656 314.089844 Z M 281.472656 307.132812 "/>
<path style=" stroke:none;fill-rule:nonzero;fill:rgb(19.999695%,17.64679%,17.254639%);fill-opacity:1;" d="M 343.605469 260.457031 L 343.605469 304.535156 C 339.855469 306.074219 332.875 306.832031 328.648438 306.832031 L 305.257812 306.832031 L 305.257812 291.851562 L 332.28125 291.851562 L 332.28125 262.671875 L 292.214844 262.671875 L 292.214844 269.625 L 320.097656 269.625 L 320.097656 284.898438 L 293.074219 284.898438 L 293.074219 305.78125 C 293.074219 309.050781 294.273438 313.785156 301.035156 313.785156 L 327.207031 313.785156 C 333.832031 313.785156 340.164062 311.996094 343.605469 310.300781 L 343.605469 342.777344 L 355.789062 342.777344 L 355.789062 260.457031 Z M 343.605469 260.457031 "/>
</g>
</svg>
