<?xml version="1.0" encoding="UTF-8"?>
<svg xmlns="http://www.w3.org/2000/svg" xmlns:xlink="http://www.w3.org/1999/xlink" width="566.929pt" height="566.929pt" viewBox="0 0 566.929 566.929" version="1.2">
<g id="surface1">
<path style=" stroke:none;fill-rule:nonzero;fill:rgb(13.725281%,9.803772%,8.627319%);fill-opacity:1;" d="M 352.949219 233.585938 L 378.0625 208.472656 L 447.480469 139.058594 L 427.800781 119.378906 L 119.378906 427.800781 L 139.058594 447.480469 L 201.136719 385.402344 L 205.785156 380.75 Z M 352.949219 233.585938 "/>
<path style=" stroke:none;fill-rule:nonzero;fill:rgb(13.725281%,9.803772%,8.627319%);fill-opacity:1;" d="M 267.414062 153.949219 L 306.972656 153.949219 L 335.105469 202.675781 L 360.214844 177.566406 L 326.785156 119.679688 L 267.414062 119.679688 C 257.902344 119.679688 250.25 127.335938 250.25 136.804688 C 250.25 146.277344 257.902344 153.949219 267.414062 153.949219 "/>
<path style=" stroke:none;fill-rule:nonzero;fill:rgb(13.725281%,9.803772%,8.627319%);fill-opacity:1;" d="M 400.832031 217.921875 C 396.664062 220.335938 393.523438 224.449219 392.546875 229.523438 C 392.546875 229.523438 392.050781 232.207031 391.980469 232.570312 L 381.503906 214.429688 L 356.390625 239.542969 L 408.257812 329.382812 L 426.222656 236.023438 C 428.019531 226.714844 421.921875 217.730469 412.625 215.941406 C 408.40625 215.144531 404.261719 215.941406 400.832031 217.921875 "/>
<path style=" stroke:none;fill-rule:nonzero;fill:rgb(13.725281%,9.803772%,8.627319%);fill-opacity:1;" d="M 144.0625 393.722656 L 169.171875 368.613281 L 156.324219 346.371094 L 257.605469 170.945312 L 167.765625 202.082031 C 158.839844 205.179688 154.101562 214.953125 157.191406 223.890625 C 158.613281 227.9375 161.371094 231.121094 164.804688 233.113281 C 168.976562 235.53125 174.113281 236.1875 179.007812 234.496094 C 179.007812 234.496094 181.582031 233.597656 181.929688 233.480469 L 116.734375 346.371094 Z M 144.0625 393.722656 "/>
<path style=" stroke:none;fill-rule:nonzero;fill:rgb(13.725281%,9.803772%,8.627319%);fill-opacity:1;" d="M 441.542969 340.203125 C 433.328125 335.484375 422.875 338.292969 418.117188 346.484375 L 398.34375 380.75 L 215.183594 380.75 L 206.171875 389.761719 L 267.660156 442.996094 C 274.804688 449.207031 285.632812 448.40625 291.835938 441.25 C 294.636719 438.003906 296.03125 434.019531 296.03125 430.054688 C 296.03125 425.246094 294.019531 420.464844 290.085938 417.074219 C 290.085938 417.074219 288.023438 415.296875 287.75 415.050781 L 418.117188 415.050781 L 447.824219 363.632812 C 452.554688 355.421875 449.746094 344.945312 441.542969 340.203125 "/>
</g>
</svg>
