<?xml version="1.0" encoding="UTF-8"?>
<svg xmlns="http://www.w3.org/2000/svg" xmlns:xlink="http://www.w3.org/1999/xlink" width="566.929pt" height="566.929pt" viewBox="0 0 566.929 566.929" version="1.2">
<g id="surface1">
<path style=" stroke:none;fill-rule:nonzero;fill:rgb(19.999695%,17.64679%,17.254639%);fill-opacity:1;" d="M 418.347656 415.285156 L 448.101562 363.78125 C 452.855469 355.535156 450.039062 345.058594 441.816406 340.324219 C 433.601562 335.578125 423.125 338.382812 418.363281 346.597656 L 398.542969 380.9375 L 195.617188 380.9375 L 267.621094 443.285156 C 274.796875 449.5 285.632812 448.71875 291.847656 441.542969 C 294.660156 438.292969 296.027344 434.285156 296.027344 430.3125 C 296.027344 425.492188 294.027344 420.710938 290.113281 417.316406 C 290.113281 417.316406 288.03125 415.523438 287.75 415.285156 Z M 418.347656 415.285156 "/>
<path style=" stroke:none;fill-rule:nonzero;fill:rgb(19.999695%,17.64679%,17.254639%);fill-opacity:1;" d="M 257.5625 170.761719 L 167.566406 201.964844 C 158.613281 205.066406 153.867188 214.839844 156.988281 223.796875 C 158.382812 227.855469 161.140625 231.042969 164.601562 233.042969 C 168.773438 235.449219 173.921875 236.101562 178.835938 234.394531 C 178.835938 234.394531 181.414062 233.503906 181.742188 233.375 L 116.445312 346.488281 L 146.195312 398.011719 C 150.9375 406.226562 161.429688 409.035156 169.648438 404.28125 C 177.859375 399.566406 180.679688 389.0625 175.933594 380.839844 L 156.109375 346.488281 Z M 257.5625 170.761719 "/>
<path style=" stroke:none;fill-rule:nonzero;fill:rgb(19.999695%,17.64679%,17.254639%);fill-opacity:1;" d="M 326.863281 119.378906 L 267.371094 119.378906 C 257.867188 119.378906 250.203125 127.066406 250.203125 136.5625 C 250.203125 146.03125 257.867188 153.726562 267.371094 153.726562 L 307.023438 153.726562 L 408.488281 329.460938 L 426.480469 235.9375 C 428.269531 226.621094 422.140625 217.621094 412.84375 215.832031 C 408.636719 215.011719 404.46875 215.832031 401.027344 217.824219 C 396.867188 220.222656 393.714844 224.363281 392.742188 229.441406 C 392.742188 229.441406 392.226562 232.144531 392.164062 232.503906 Z M 326.863281 119.378906 "/>
<path style=" stroke:none;fill-rule:nonzero;fill:rgb(19.999695%,17.64679%,17.254639%);fill-opacity:1;" d="M 312.722656 301.414062 C 306.972656 301.414062 302.308594 294.292969 302.308594 285.511719 C 302.308594 276.730469 306.972656 269.609375 312.722656 269.609375 C 318.476562 269.609375 323.140625 276.730469 323.140625 285.511719 C 323.140625 294.292969 318.476562 301.414062 312.722656 301.414062 M 312.722656 262.65625 C 300.242188 262.65625 290.121094 272.890625 290.121094 285.511719 C 290.121094 298.136719 300.242188 308.371094 312.722656 308.371094 C 325.207031 308.371094 335.324219 298.136719 335.324219 285.511719 C 335.324219 272.890625 325.207031 262.65625 312.722656 262.65625 "/>
<path style=" stroke:none;fill-rule:nonzero;fill:rgb(19.999695%,17.64679%,17.254639%);fill-opacity:1;" d="M 244.996094 339.535156 C 239.660156 339.535156 235.339844 334.472656 235.339844 328.226562 C 235.339844 321.980469 239.660156 316.917969 244.996094 316.917969 C 250.324219 316.917969 254.644531 321.980469 254.644531 328.226562 C 254.644531 334.472656 250.324219 339.535156 244.996094 339.535156 M 244.996094 310.226562 C 232.933594 310.226562 223.15625 318.285156 223.15625 328.226562 C 223.15625 338.167969 232.933594 346.226562 244.996094 346.226562 C 257.054688 346.226562 266.828125 338.167969 266.828125 328.226562 C 266.828125 318.285156 257.054688 310.226562 244.996094 310.226562 "/>
<path style=" stroke:none;fill-rule:nonzero;fill:rgb(19.999695%,17.64679%,17.254639%);fill-opacity:1;" d="M 251.085938 300.253906 L 251.085938 290.003906 L 238.898438 290.003906 L 238.898438 300.253906 L 208.5 300.253906 L 208.5 307.210938 L 281.484375 307.210938 L 281.484375 300.253906 Z M 251.085938 300.253906 "/>
<path style=" stroke:none;fill-rule:nonzero;fill:rgb(19.999695%,17.64679%,17.254639%);fill-opacity:1;" d="M 356.730469 342.765625 L 344.546875 342.765625 L 344.546875 260.453125 L 356.730469 260.453125 Z M 356.730469 342.765625 "/>
<path style=" stroke:none;fill-rule:nonzero;fill:rgb(19.999695%,17.64679%,17.254639%);fill-opacity:1;" d="M 251.730469 268.105469 L 272.652344 268.105469 L 272.652344 261.152344 L 217.332031 261.152344 L 217.332031 268.105469 L 238.253906 268.105469 C 237.035156 275.609375 231.523438 283.617188 212.488281 287.765625 L 216.359375 293.367188 C 222.265625 292.472656 236.425781 290.210938 244.992188 280.460938 C 253.558594 290.210938 267.71875 292.472656 273.625 293.367188 L 277.496094 287.765625 C 258.460938 283.617188 252.949219 275.609375 251.730469 268.105469 "/>
</g>
</svg>
