<?xml version="1.0" encoding="UTF-8"?>
<svg xmlns="http://www.w3.org/2000/svg" xmlns:xlink="http://www.w3.org/1999/xlink" width="566.929pt" height="566.929pt" viewBox="0 0 566.929 566.929" version="1.2">
<g id="surface1">
<path style=" stroke:none;fill-rule:nonzero;fill:rgb(0%,36.862183%,31.37207%);fill-opacity:1;" d="M 418.367188 415.292969 L 448.128906 363.78125 C 452.863281 355.554688 450.050781 345.058594 441.835938 340.308594 C 433.601562 335.582031 423.132812 338.394531 418.367188 346.597656 L 398.554688 380.929688 L 195.601562 380.929688 L 267.628906 443.289062 C 274.789062 449.511719 285.636719 448.707031 291.855469 441.539062 C 294.65625 438.285156 296.054688 434.296875 296.054688 430.324219 C 296.054688 425.507812 294.039062 420.71875 290.101562 417.320312 C 290.101562 417.320312 288.03125 415.539062 287.757812 415.292969 Z M 418.367188 415.292969 "/>
<path style=" stroke:none;fill-rule:nonzero;fill:rgb(0%,36.862183%,31.37207%);fill-opacity:1;" d="M 257.558594 170.738281 L 167.554688 201.933594 C 158.613281 205.035156 153.863281 214.828125 156.960938 223.78125 C 158.382812 227.835938 161.148438 231.023438 164.585938 233.023438 C 168.765625 235.445312 173.914062 236.101562 178.8125 234.40625 C 178.8125 234.40625 181.394531 233.503906 181.742188 233.386719 L 116.429688 346.484375 L 146.160156 398.003906 C 150.933594 406.242188 161.421875 409.042969 169.636719 404.292969 C 177.84375 399.570312 180.664062 389.050781 175.929688 380.839844 L 156.09375 346.484375 Z M 257.558594 170.738281 "/>
<path style=" stroke:none;fill-rule:nonzero;fill:rgb(0%,36.862183%,31.37207%);fill-opacity:1;" d="M 326.867188 119.375 L 267.386719 119.375 C 257.855469 119.375 250.1875 127.046875 250.1875 136.535156 C 250.1875 146.023438 257.855469 153.710938 267.386719 153.710938 L 307.019531 153.710938 L 408.488281 329.46875 L 426.488281 235.9375 C 428.285156 226.609375 422.175781 217.609375 412.863281 215.820312 C 408.636719 215.019531 404.484375 215.820312 401.046875 217.800781 C 396.871094 220.222656 393.726562 224.339844 392.75 229.425781 C 392.75 229.425781 392.25 232.113281 392.179688 232.476562 Z M 326.867188 119.375 "/>
<path style=" stroke:none;fill-rule:nonzero;fill:rgb(13.725281%,9.803772%,8.627319%);fill-opacity:1;" d="M 242.351562 277.199219 L 234.492188 277.199219 L 234.492188 285.96875 L 242.351562 285.96875 Z M 225.421875 270.765625 L 215.144531 270.765625 L 215.144531 292.203125 L 225.421875 292.203125 Z M 252.496094 342.777344 L 219.84375 342.777344 C 217.921875 342.777344 216.375 341.964844 215.210938 340.34375 C 214.046875 338.71875 213.464844 336.605469 213.464844 334.007812 L 213.464844 320.949219 L 242.351562 320.949219 L 242.351562 313.640625 L 212.859375 313.640625 L 212.859375 306.332031 L 251.421875 306.332031 L 251.421875 327.964844 L 222.535156 327.964844 L 222.535156 335.371094 L 252.496094 335.371094 Z M 251.421875 262.09375 L 251.421875 301.167969 L 242.351562 301.167969 L 242.351562 293.179688 L 234.492188 293.179688 L 234.492188 299.609375 L 212.324219 299.609375 C 210.398438 299.609375 208.875 298.816406 207.753906 297.222656 C 206.636719 295.632812 206.078125 293.539062 206.078125 290.9375 L 206.078125 263.363281 L 234.492188 263.363281 L 234.492188 269.890625 L 242.351562 269.890625 L 242.351562 262.09375 Z M 251.421875 262.09375 "/>
<path style=" stroke:none;fill-rule:nonzero;fill:rgb(13.725281%,9.803772%,8.627319%);fill-opacity:1;" d="M 275.332031 335.371094 L 304.285156 335.371094 L 304.285156 342.777344 L 272.78125 342.777344 C 270.988281 342.777344 269.5 342 268.3125 340.441406 C 267.128906 338.878906 266.535156 336.734375 266.535156 334.007812 L 266.535156 315.296875 L 275.332031 315.296875 Z M 264.988281 262.972656 L 303.679688 262.972656 L 303.679688 284.019531 C 303.679688 286.226562 303.480469 288.597656 303.078125 291.132812 C 302.675781 293.667969 302.160156 295.550781 301.53125 296.785156 L 310.199219 296.785156 L 310.199219 304.1875 L 300.523438 304.1875 L 300.523438 324.363281 L 292.261719 324.363281 L 292.261719 304.1875 L 286.957031 304.1875 L 286.957031 324.363281 L 278.691406 324.363281 L 278.691406 304.1875 L 258.808594 304.1875 L 258.808594 296.785156 L 293.539062 296.785156 C 293.984375 295.097656 294.277344 293.164062 294.410156 290.984375 C 294.546875 288.8125 294.613281 286.617188 294.613281 284.410156 L 294.613281 270.472656 L 264.988281 270.472656 Z M 264.988281 262.972656 "/>
<path style=" stroke:none;fill-rule:nonzero;fill:rgb(13.725281%,9.803772%,8.627319%);fill-opacity:1;" d="M 326.65625 299.707031 L 329.882812 299.707031 L 329.882812 271.9375 L 326.65625 271.9375 Z M 355.074219 321.632812 L 321.820312 321.632812 L 321.820312 314.226562 L 364.140625 314.226562 L 364.140625 342.777344 L 355.074219 342.777344 Z M 351.78125 278.953125 L 355.675781 278.953125 L 355.675781 262.09375 L 364.140625 262.09375 L 364.140625 308.964844 L 355.675781 308.964844 L 355.675781 286.355469 L 351.78125 286.355469 L 351.78125 308.964844 L 343.25 308.964844 L 343.25 305.261719 C 342.53125 305.847656 341.691406 306.320312 340.730469 306.675781 C 339.765625 307.03125 338.636719 307.210938 337.335938 307.210938 L 314.296875 307.210938 L 314.296875 299.707031 L 318.191406 299.707031 L 318.191406 271.9375 L 314.5625 271.9375 L 314.5625 264.433594 L 341.097656 264.433594 L 341.097656 271.9375 L 338.34375 271.9375 L 338.34375 299.707031 C 339.375 299.644531 340.292969 299.511719 341.097656 299.316406 C 341.90625 299.121094 342.621094 298.863281 343.25 298.539062 L 343.25 262.09375 L 351.78125 262.09375 Z M 351.78125 278.953125 "/>
</g>
</svg>
