<?xml version="1.0" encoding="UTF-8"?>
<svg xmlns="http://www.w3.org/2000/svg" xmlns:xlink="http://www.w3.org/1999/xlink" width="566.929pt" height="566.929pt" viewBox="0 0 566.929 566.929" version="1.2">
<g id="surface1">
<path style=" stroke:none;fill-rule:nonzero;fill:rgb(0.392151%,9.411621%,34.901428%);fill-opacity:1;" d="M 418.367188 415.292969 L 448.128906 363.78125 C 452.863281 355.554688 450.050781 345.058594 441.835938 340.308594 C 433.601562 335.582031 423.132812 338.394531 418.367188 346.597656 L 398.554688 380.929688 L 195.601562 380.929688 L 267.632812 443.289062 C 274.789062 449.511719 285.636719 448.707031 291.855469 441.539062 C 294.65625 438.285156 296.054688 434.296875 296.054688 430.324219 C 296.054688 425.507812 294.039062 420.71875 290.101562 417.320312 C 290.101562 417.320312 288.03125 415.539062 287.757812 415.292969 Z M 418.367188 415.292969 "/>
<path style=" stroke:none;fill-rule:nonzero;fill:rgb(0.392151%,9.411621%,34.901428%);fill-opacity:1;" d="M 257.558594 170.738281 L 167.554688 201.933594 C 158.613281 205.035156 153.863281 214.828125 156.960938 223.78125 C 158.382812 227.835938 161.148438 231.023438 164.585938 233.023438 C 168.765625 235.445312 173.914062 236.101562 178.8125 234.40625 C 178.8125 234.40625 181.394531 233.503906 181.742188 233.386719 L 116.429688 346.484375 L 146.160156 398.003906 C 150.933594 406.242188 161.421875 409.042969 169.632812 404.292969 C 177.84375 399.570312 180.664062 389.050781 175.929688 380.839844 L 156.09375 346.484375 Z M 257.558594 170.738281 "/>
<path style=" stroke:none;fill-rule:nonzero;fill:rgb(0.392151%,9.411621%,34.901428%);fill-opacity:1;" d="M 326.867188 119.375 L 267.386719 119.375 C 257.855469 119.375 250.1875 127.046875 250.1875 136.535156 C 250.1875 146.023438 257.855469 153.710938 267.386719 153.710938 L 307.015625 153.710938 L 408.488281 329.46875 L 426.488281 235.9375 C 428.285156 226.609375 422.179688 217.609375 412.863281 215.820312 C 408.636719 215.019531 404.484375 215.820312 401.046875 217.800781 C 396.871094 220.222656 393.726562 224.339844 392.75 229.425781 C 392.75 229.425781 392.25 232.113281 392.179688 232.476562 Z M 326.867188 119.375 "/>
<path style=" stroke:none;fill-rule:nonzero;fill:rgb(19.999695%,17.64679%,17.254639%);fill-opacity:1;" d="M 252.332031 301.320312 L 243.359375 301.320312 L 243.359375 262.382812 L 252.332031 262.382812 Z M 216.21875 273.015625 C 215 275.378906 214.390625 278.339844 214.390625 281.898438 C 214.390625 285.332031 214.988281 288.242188 216.183594 290.640625 C 217.378906 293.035156 218.796875 294.230469 220.4375 294.230469 C 222.121094 294.230469 223.570312 293.035156 224.789062 290.640625 C 226.007812 288.242188 226.617188 285.332031 226.617188 281.898438 C 226.617188 278.339844 226.019531 275.378906 224.820312 273.015625 C 223.625 270.652344 222.183594 269.472656 220.503906 269.472656 C 218.863281 269.472656 217.4375 270.652344 216.21875 273.015625 M 253.460938 342.777344 L 221.167969 342.777344 C 219.261719 342.777344 217.734375 341.96875 216.582031 340.351562 C 215.429688 338.734375 214.855469 336.628906 214.855469 334.039062 L 214.855469 321.222656 L 243.359375 321.222656 L 243.359375 314.136719 L 214.257812 314.136719 L 214.257812 306.757812 L 252.332031 306.757812 L 252.332031 328.214844 L 223.824219 328.214844 L 223.824219 335.398438 L 253.460938 335.398438 Z M 231.199219 267.917969 C 234.125 271.804688 235.585938 276.433594 235.585938 281.800781 C 235.585938 287.113281 234.125 291.707031 231.199219 295.589844 C 228.277344 299.472656 224.710938 301.417969 220.503906 301.417969 C 216.339844 301.417969 212.785156 299.472656 209.839844 295.589844 C 206.890625 291.707031 205.421875 287.113281 205.421875 281.800781 C 205.421875 276.433594 206.890625 271.804688 209.839844 267.917969 C 212.785156 264.035156 216.339844 262.09375 220.503906 262.09375 C 224.710938 262.09375 228.277344 264.035156 231.199219 267.917969 "/>
<path style=" stroke:none;fill-rule:nonzero;fill:rgb(19.999695%,17.64679%,17.254639%);fill-opacity:1;" d="M 304.152344 279.375 L 313.125 279.375 L 313.125 286.851562 L 304.152344 286.851562 L 304.152344 321.804688 L 295.183594 321.804688 L 295.183594 262.382812 L 304.152344 262.382812 Z M 279.636719 286.074219 L 269.535156 286.074219 L 269.535156 300.054688 L 279.636719 300.054688 Z M 277.308594 335.300781 L 306.144531 335.300781 L 306.144531 342.777344 L 274.585938 342.777344 C 272.8125 342.777344 271.332031 342.003906 270.136719 340.449219 C 268.9375 338.894531 268.339844 336.757812 268.339844 334.039062 L 268.339844 315.589844 L 277.308594 315.589844 Z M 269.539062 264.8125 L 269.539062 278.597656 L 279.636719 278.597656 L 279.636719 264.8125 L 288.605469 264.8125 L 288.605469 307.433594 L 266.8125 307.433594 C 264.90625 307.433594 263.390625 306.644531 262.261719 305.058594 C 261.132812 303.472656 260.566406 301.382812 260.566406 298.792969 L 260.566406 264.8125 Z M 269.539062 264.8125 "/>
<path style=" stroke:none;fill-rule:nonzero;fill:rgb(19.999695%,17.64679%,17.254639%);fill-opacity:1;" d="M 326.414062 299.863281 L 329.601562 299.863281 L 329.601562 272.191406 L 326.414062 272.191406 Z M 354.515625 321.707031 L 321.625 321.707031 L 321.625 314.328125 L 363.488281 314.328125 L 363.488281 342.777344 L 354.515625 342.777344 Z M 351.261719 279.183594 L 355.113281 279.183594 L 355.113281 262.382812 L 363.488281 262.382812 L 363.488281 309.085938 L 355.113281 309.085938 L 355.113281 286.558594 L 351.261719 286.558594 L 351.261719 309.085938 L 342.824219 309.085938 L 342.824219 305.398438 C 342.113281 305.980469 341.285156 306.449219 340.332031 306.804688 C 339.378906 307.160156 338.257812 307.339844 336.976562 307.339844 L 314.1875 307.339844 L 314.1875 299.863281 L 318.039062 299.863281 L 318.039062 272.191406 L 314.453125 272.191406 L 314.453125 264.714844 L 340.695312 264.714844 L 340.695312 272.191406 L 337.972656 272.191406 L 337.972656 299.863281 C 338.992188 299.800781 339.898438 299.667969 340.695312 299.472656 C 341.496094 299.28125 342.203125 299.023438 342.824219 298.699219 L 342.824219 262.382812 L 351.261719 262.382812 Z M 351.261719 279.183594 "/>
</g>
</svg>
