<?xml version="1.0" encoding="UTF-8"?>
<svg xmlns="http://www.w3.org/2000/svg" xmlns:xlink="http://www.w3.org/1999/xlink" width="566.929pt" height="566.929pt" viewBox="0 0 566.929 566.929" version="1.2">
<g id="surface1">
<path style=" stroke:none;fill-rule:nonzero;fill:rgb(13.725281%,9.803772%,8.627319%);fill-opacity:1;" d="M 174.847656 422.46875 L 174.847656 451.820312 L 205.832031 451.820312 L 205.832031 422.46875 L 219.199219 422.46875 L 219.199219 495.738281 L 205.832031 495.738281 L 205.832031 463.453125 L 174.847656 463.453125 L 174.847656 495.738281 L 161.480469 495.738281 L 161.480469 422.46875 Z M 174.847656 422.46875 "/>
<path style=" stroke:none;fill-rule:nonzero;fill:rgb(13.725281%,9.803772%,8.627319%);fill-opacity:1;" d="M 247.90625 485.519531 C 249.753906 485.84375 252.578125 485.84375 255.296875 485.84375 C 272.691406 485.957031 283.015625 476.390625 283.015625 457.800781 C 283.125 441.601562 273.777344 432.363281 257.035156 432.363281 C 252.796875 432.363281 249.753906 432.6875 247.90625 433.125 Z M 234.535156 423.449219 C 240.40625 422.46875 247.90625 421.925781 255.84375 421.925781 C 269.539062 421.925781 278.996094 424.753906 285.734375 430.40625 C 292.800781 436.167969 297.148438 444.863281 297.148438 457.367188 C 297.148438 470.410156 292.691406 480.191406 285.734375 486.496094 C 278.453125 493.128906 266.820312 496.5 252.578125 496.5 C 244.753906 496.5 238.882812 496.066406 234.535156 495.523438 Z M 234.535156 423.449219 "/>
<path style=" stroke:none;fill-rule:nonzero;fill:rgb(13.725281%,9.803772%,8.627319%);fill-opacity:1;" d="M 322.050781 457.582031 C 323.679688 458.015625 325.855469 458.125 328.570312 458.125 C 338.570312 458.125 344.660156 453.234375 344.660156 444.644531 C 344.660156 436.492188 339.007812 432.144531 329.769531 432.144531 C 326.070312 432.144531 323.460938 432.46875 322.050781 432.796875 Z M 308.789062 423.449219 C 313.570312 422.578125 320.203125 421.925781 329.226562 421.925781 C 339.007812 421.925781 346.183594 423.992188 350.855469 427.90625 C 355.207031 431.492188 358.03125 437.253906 358.03125 444.101562 C 358.03125 451.058594 355.859375 456.820312 351.726562 460.734375 C 346.398438 466.0625 338.027344 468.5625 328.570312 468.5625 C 326.070312 468.5625 323.789062 468.453125 322.050781 468.125 L 322.050781 495.738281 L 308.789062 495.738281 Z M 308.789062 423.449219 "/>
<path style=" stroke:none;fill-rule:nonzero;fill:rgb(13.725281%,9.803772%,8.627319%);fill-opacity:1;" d="M 410.539062 463.234375 L 382.929688 463.234375 L 382.929688 484.757812 L 413.800781 484.757812 L 413.800781 495.738281 L 369.558594 495.738281 L 369.558594 422.46875 L 412.171875 422.46875 L 412.171875 433.449219 L 382.929688 433.449219 L 382.929688 452.363281 L 410.539062 452.363281 Z M 410.539062 463.234375 "/>
<path style=" stroke:none;fill-rule:nonzero;fill:rgb(13.725281%,9.803772%,8.627319%);fill-opacity:1;" d="M 328.992188 281.792969 L 288.101562 281.792969 L 288.101562 275.230469 L 328.992188 275.230469 Z M 328.992188 281.792969 "/>
<path style=" stroke:none;fill-rule:nonzero;fill:rgb(13.725281%,9.803772%,8.627319%);fill-opacity:1;" d="M 215.773438 281.253906 L 238.929688 281.253906 L 238.929688 262.640625 L 207.890625 262.640625 L 207.890625 269.203125 L 231.542969 269.203125 L 231.542969 274.671875 L 208.386719 274.671875 L 208.386719 286.941406 C 208.386719 291.472656 210.207031 293.472656 213.527344 293.472656 L 239.808594 293.472656 L 239.808594 286.90625 L 215.773438 286.90625 Z M 215.773438 281.253906 "/>
<path style=" stroke:none;fill-rule:nonzero;fill:rgb(13.725281%,9.803772%,8.627319%);fill-opacity:1;" d="M 226.800781 238.46875 L 219.417969 238.46875 L 219.417969 225.054688 L 226.800781 225.054688 Z M 240.023438 238.46875 L 234.1875 238.46875 L 234.1875 225.054688 L 239.527344 225.054688 L 239.527344 218.390625 L 206.679688 218.390625 L 206.679688 225.054688 L 212.023438 225.054688 L 212.023438 238.46875 L 206.1875 238.46875 L 206.1875 245.03125 L 240.023438 245.03125 Z M 240.023438 238.46875 "/>
<path style=" stroke:none;fill-rule:nonzero;fill:rgb(13.725281%,9.803772%,8.627319%);fill-opacity:1;" d="M 202.203125 256.894531 L 244.070312 256.894531 L 244.070312 250.320312 L 202.203125 250.320312 Z M 202.203125 256.894531 "/>
<path style=" stroke:none;fill-rule:nonzero;fill:rgb(13.725281%,9.803772%,8.627319%);fill-opacity:1;" d="M 267.25 266.738281 C 271.226562 266.738281 274.09375 264.953125 275.078125 264.097656 L 275.078125 293.472656 L 282.460938 293.472656 L 282.460938 242.574219 L 289.855469 242.574219 L 289.855469 236 L 282.460938 236 L 282.460938 217.9375 L 275.078125 217.9375 L 275.078125 258.253906 C 274.207031 258.804688 271.277344 260.175781 267.683594 260.175781 L 254.386719 260.175781 L 254.386719 245.214844 L 269.882812 245.214844 L 269.882812 219.109375 L 246.511719 219.109375 L 246.511719 225.671875 L 262.488281 225.671875 L 262.488281 238.640625 L 246.988281 238.640625 L 246.988281 260.210938 C 246.988281 264.746094 248.820312 266.738281 252.144531 266.738281 Z M 267.25 266.738281 "/>
<path style=" stroke:none;fill-rule:nonzero;fill:rgb(13.725281%,9.803772%,8.627319%);fill-opacity:1;" d="M 312.238281 228.339844 L 312.238281 218.210938 L 304.796875 218.210938 L 304.796875 228.339844 C 304.796875 236.011719 302.773438 249.027344 288.648438 254.429688 L 291.929688 259.535156 C 296.925781 258.203125 304.671875 253.585938 308.515625 246.703125 C 312.363281 253.585938 320.117188 258.203125 325.101562 259.535156 L 328.390625 254.429688 C 314.265625 249.027344 312.238281 236.011719 312.238281 228.339844 "/>
<path style=" stroke:none;fill-rule:nonzero;fill:rgb(13.725281%,9.803772%,8.627319%);fill-opacity:1;" d="M 332.058594 251.171875 C 332.058594 255.703125 333.882812 257.710938 337.203125 257.710938 L 353.402344 257.710938 C 357.378906 257.710938 360.246094 255.917969 361.234375 255.066406 L 361.234375 260.171875 L 368.628906 260.171875 L 368.628906 217.9375 L 361.234375 217.9375 L 361.234375 249.222656 C 360.355469 249.78125 357.433594 251.148438 353.839844 251.148438 L 339.449219 251.148438 L 339.449219 241.460938 L 355.046875 241.460938 L 355.046875 234.886719 L 339.449219 234.886719 L 339.449219 225.675781 L 355.316406 225.675781 L 355.316406 219.109375 L 332.058594 219.109375 Z M 332.058594 251.171875 "/>
<path style=" stroke:none;fill-rule:nonzero;fill:rgb(13.725281%,9.803772%,8.627319%);fill-opacity:1;" d="M 335.34375 271.757812 L 361.234375 271.757812 L 361.234375 293.472656 L 368.628906 293.472656 L 368.628906 265.1875 L 335.34375 265.1875 Z M 335.34375 271.757812 "/>
<path style=" stroke:none;fill-rule:nonzero;fill:rgb(0%,35.68573%,67.451477%);fill-opacity:1;" d="M 418.367188 366.292969 L 448.121094 314.777344 C 452.875 306.5625 450.042969 296.058594 441.839844 291.324219 C 433.605469 286.59375 423.125 289.386719 418.367188 297.597656 L 398.558594 331.949219 L 195.609375 331.949219 L 267.625 394.292969 C 274.789062 400.515625 285.640625 399.734375 291.859375 392.554688 C 294.660156 389.308594 296.050781 385.3125 296.050781 381.324219 C 296.050781 376.511719 294.042969 371.71875 290.097656 368.335938 C 290.097656 368.335938 288.035156 366.535156 287.761719 366.292969 Z M 418.367188 366.292969 "/>
<path style=" stroke:none;fill-rule:nonzero;fill:rgb(0%,35.68573%,67.451477%);fill-opacity:1;" d="M 257.570312 121.75 L 167.558594 152.949219 C 158.613281 156.0625 153.871094 165.832031 156.972656 174.792969 C 158.390625 178.847656 161.152344 182.039062 164.59375 184.042969 C 168.769531 186.449219 173.917969 187.09375 178.824219 185.402344 C 178.824219 185.402344 181.410156 184.5 181.742188 184.386719 L 116.429688 297.503906 L 146.167969 349.019531 C 150.9375 357.246094 161.417969 360.050781 169.640625 355.300781 C 177.851562 350.582031 180.667969 340.0625 175.933594 331.859375 L 156.09375 297.503906 Z M 257.570312 121.75 "/>
<path style=" stroke:none;fill-rule:nonzero;fill:rgb(0%,35.68573%,67.451477%);fill-opacity:1;" d="M 326.878906 70.359375 L 267.378906 70.359375 C 257.871094 70.359375 250.195312 78.050781 250.195312 87.554688 C 250.195312 97.027344 257.871094 104.730469 267.378906 104.730469 L 307.03125 104.730469 L 408.492188 280.476562 L 426.488281 186.9375 C 428.28125 177.613281 422.183594 168.617188 412.863281 166.828125 C 408.632812 166.03125 404.484375 166.828125 401.039062 168.824219 C 396.871094 171.222656 393.722656 175.355469 392.753906 180.433594 C 392.753906 180.433594 392.246094 183.140625 392.171875 183.496094 Z M 326.878906 70.359375 "/>
</g>
</svg>
