<?xml version="1.0" encoding="UTF-8"?>
<svg xmlns="http://www.w3.org/2000/svg" xmlns:xlink="http://www.w3.org/1999/xlink" width="566.929pt" height="566.929pt" viewBox="0 0 566.929 566.929" version="1.2">
<g id="surface1">
<path style=" stroke:none;fill-rule:nonzero;fill:rgb(0%,35.68573%,67.451477%);fill-opacity:1;" d="M 418.425781 363.355469 L 448.132812 311.941406 C 452.859375 303.730469 450.050781 293.257812 441.851562 288.511719 C 433.636719 283.796875 423.183594 286.601562 418.425781 294.792969 L 398.65625 329.054688 L 196.09375 329.054688 L 267.984375 391.296875 C 275.125 397.507812 285.953125 396.703125 292.160156 389.550781 C 294.957031 386.304688 296.351562 382.324219 296.351562 378.359375 C 296.351562 373.546875 294.339844 368.769531 290.40625 365.378906 C 290.40625 365.378906 288.34375 363.601562 288.070312 363.355469 Z M 418.425781 363.355469 "/>
<path style=" stroke:none;fill-rule:nonzero;fill:rgb(0%,35.68573%,67.451477%);fill-opacity:1;" d="M 257.929688 119.269531 L 168.097656 150.40625 C 159.171875 153.503906 154.433594 163.273438 157.523438 172.210938 C 158.945312 176.257812 161.703125 179.441406 165.132812 181.433594 C 169.308594 183.851562 174.445312 184.507812 179.335938 182.816406 C 179.335938 182.816406 181.910156 181.917969 182.257812 181.800781 L 117.074219 294.679688 L 146.742188 346.097656 C 151.511719 354.320312 161.976562 357.113281 170.175781 352.375 C 178.367188 347.660156 181.179688 337.164062 176.457031 328.96875 L 156.660156 294.679688 Z M 257.929688 119.269531 "/>
<path style=" stroke:none;fill-rule:nonzero;fill:rgb(0%,35.68573%,67.451477%);fill-opacity:1;" d="M 327.101562 68.007812 L 267.738281 68.007812 C 258.226562 68.007812 250.574219 75.664062 250.574219 85.132812 C 250.574219 94.601562 258.226562 102.277344 267.738281 102.277344 L 307.292969 102.277344 L 408.570312 277.695312 L 426.53125 184.34375 C 428.328125 175.035156 422.230469 166.050781 412.933594 164.265625 C 408.714844 163.464844 404.570312 164.265625 401.144531 166.242188 C 396.972656 168.65625 393.835938 172.769531 392.859375 177.84375 C 392.859375 177.84375 392.363281 180.527344 392.292969 180.890625 Z M 327.101562 68.007812 "/>
<path style=" stroke:none;fill-rule:nonzero;fill:rgb(13.725281%,9.803772%,8.627319%);fill-opacity:1;" d="M 328.6875 278.941406 L 287.839844 278.941406 L 287.839844 272.394531 L 328.6875 272.394531 Z M 328.6875 278.941406 "/>
<path style=" stroke:none;fill-rule:nonzero;fill:rgb(13.725281%,9.803772%,8.627319%);fill-opacity:1;" d="M 215.625 278.398438 L 238.742188 278.398438 L 238.742188 259.835938 L 207.738281 259.835938 L 207.738281 266.378906 L 231.375 266.378906 L 231.375 271.847656 L 208.230469 271.847656 L 208.230469 284.117188 C 208.230469 288.640625 210.050781 290.632812 213.386719 290.632812 L 239.613281 290.632812 L 239.613281 284.089844 L 215.625 284.089844 Z M 215.625 278.398438 "/>
<path style=" stroke:none;fill-rule:nonzero;fill:rgb(13.725281%,9.803772%,8.627319%);fill-opacity:1;" d="M 226.621094 235.679688 L 219.25 235.679688 L 219.25 222.296875 L 226.621094 222.296875 Z M 239.832031 235.679688 L 234.015625 235.679688 L 234.015625 222.296875 L 239.34375 222.296875 L 239.34375 215.65625 L 206.535156 215.65625 L 206.535156 222.296875 L 211.886719 222.296875 L 211.886719 235.679688 L 206.050781 235.679688 L 206.050781 242.277344 L 239.832031 242.277344 Z M 239.832031 235.679688 "/>
<path style=" stroke:none;fill-rule:nonzero;fill:rgb(13.725281%,9.803772%,8.627319%);fill-opacity:1;" d="M 202.0625 254.101562 L 243.875 254.101562 L 243.875 247.554688 L 202.0625 247.554688 Z M 202.0625 254.101562 "/>
<path style=" stroke:none;fill-rule:nonzero;fill:rgb(13.725281%,9.803772%,8.627319%);fill-opacity:1;" d="M 267.015625 263.929688 C 271 263.929688 273.863281 262.132812 274.839844 261.292969 L 274.839844 290.632812 L 282.210938 290.632812 L 282.210938 239.765625 L 289.605469 239.765625 L 289.605469 233.222656 L 282.210938 233.222656 L 282.210938 215.199219 L 274.839844 215.199219 L 274.839844 255.46875 C 273.972656 256.011719 271.0625 257.378906 267.445312 257.378906 L 254.179688 257.378906 L 254.179688 242.457031 L 269.632812 242.457031 L 269.632812 216.371094 L 246.296875 216.371094 L 246.296875 222.914062 L 262.261719 222.914062 L 262.261719 235.855469 L 246.792969 235.855469 L 246.792969 257.410156 C 246.792969 261.933594 248.609375 263.929688 251.945312 263.929688 Z M 267.015625 263.929688 "/>
<path style=" stroke:none;fill-rule:nonzero;fill:rgb(13.725281%,9.803772%,8.627319%);fill-opacity:1;" d="M 311.957031 225.582031 L 311.957031 215.480469 L 304.507812 215.480469 L 304.507812 225.582031 C 304.507812 233.230469 302.484375 246.253906 288.382812 251.648438 L 291.683594 256.734375 C 296.65625 255.417969 304.386719 250.804688 308.222656 243.933594 C 312.082031 250.804688 319.8125 255.417969 324.785156 256.734375 L 328.058594 251.648438 C 313.976562 246.253906 311.957031 233.230469 311.957031 225.582031 "/>
<path style=" stroke:none;fill-rule:nonzero;fill:rgb(13.725281%,9.803772%,8.627319%);fill-opacity:1;" d="M 331.742188 248.40625 C 331.742188 252.925781 333.5625 254.917969 336.875 254.917969 L 353.054688 254.917969 C 357.019531 254.917969 359.875 253.132812 360.859375 252.285156 L 360.859375 257.378906 L 368.257812 257.378906 L 368.257812 215.199219 L 360.859375 215.199219 L 360.859375 246.457031 C 359.988281 247.003906 357.089844 248.375 353.488281 248.375 L 339.113281 248.375 L 339.113281 238.664062 L 354.695312 238.664062 L 354.695312 232.117188 L 339.113281 232.117188 L 339.113281 222.914062 L 354.964844 222.914062 L 354.964844 216.371094 L 331.742188 216.371094 Z M 331.742188 248.40625 "/>
<path style=" stroke:none;fill-rule:nonzero;fill:rgb(13.725281%,9.803772%,8.627319%);fill-opacity:1;" d="M 335.023438 268.9375 L 360.859375 268.9375 L 360.859375 290.632812 L 368.257812 290.632812 L 368.257812 262.382812 L 335.023438 262.382812 Z M 335.023438 268.9375 "/>
<path style=" stroke:none;fill-rule:nonzero;fill:rgb(0%,35.68573%,67.451477%);fill-opacity:1;" d="M 417.914062 363.363281 L 447.640625 311.890625 C 452.375 303.6875 449.5625 293.21875 441.347656 288.496094 C 433.148438 283.773438 422.667969 286.5625 417.914062 294.757812 L 398.132812 329.058594 L 195.484375 329.058594 L 267.390625 391.289062 C 274.558594 397.507812 285.375 396.707031 291.601562 389.546875 C 294.394531 386.308594 295.789062 382.324219 295.789062 378.34375 C 295.789062 373.546875 293.78125 368.765625 289.847656 365.398438 C 289.847656 365.398438 287.765625 363.597656 287.492188 363.363281 Z M 417.914062 363.363281 "/>
<path style=" stroke:none;fill-rule:nonzero;fill:rgb(0%,35.68573%,67.451477%);fill-opacity:1;" d="M 257.355469 119.132812 L 167.464844 150.289062 C 158.550781 153.398438 153.816406 163.175781 156.902344 172.128906 C 158.316406 176.171875 161.074219 179.359375 164.507812 181.347656 C 168.671875 183.75 173.835938 184.398438 178.726562 182.703125 C 178.726562 182.703125 181.296875 181.804688 181.636719 181.695312 L 116.429688 294.648438 L 146.113281 346.082031 C 150.863281 354.289062 161.351562 357.078125 169.542969 352.34375 C 177.753906 347.628906 180.5625 337.152344 175.839844 328.960938 L 156.035156 294.648438 Z M 257.355469 119.132812 "/>
<path style=" stroke:none;fill-rule:nonzero;fill:rgb(0%,35.68573%,67.451477%);fill-opacity:1;" d="M 326.546875 67.839844 L 267.144531 67.839844 C 257.660156 67.839844 249.980469 75.507812 249.980469 85.003906 C 249.980469 94.472656 257.660156 102.15625 267.144531 102.15625 L 306.738281 102.15625 L 408.070312 277.625 L 426.019531 184.234375 C 427.832031 174.941406 421.71875 165.972656 412.433594 164.179688 C 408.207031 163.371094 404.046875 164.179688 400.613281 166.167969 C 396.453125 168.570312 393.316406 172.6875 392.347656 177.761719 C 392.347656 177.761719 391.839844 180.449219 391.769531 180.8125 Z M 326.546875 67.839844 "/>
<path style=" stroke:none;fill-rule:nonzero;fill:rgb(13.725281%,9.803772%,8.627319%);fill-opacity:1;" d="M 184.671875 437.007812 L 196.886719 437.007812 L 196.886719 444.597656 L 184.671875 444.597656 L 184.671875 499.019531 L 172.460938 499.019531 L 172.460938 416.335938 L 184.671875 416.335938 Z M 151.46875 443 L 137.808594 443 L 137.808594 461.671875 L 151.46875 461.671875 Z M 137.808594 419.03125 L 137.808594 435.410156 L 151.46875 435.410156 L 151.46875 419.03125 L 163.683594 419.03125 L 163.683594 469.359375 L 134.101562 469.359375 C 131.503906 469.359375 129.441406 468.542969 127.902344 466.914062 C 126.367188 465.285156 125.59375 463.136719 125.59375 460.472656 L 125.59375 419.03125 Z M 137.808594 419.03125 "/>
<path style=" stroke:none;fill-rule:nonzero;fill:rgb(13.725281%,9.803772%,8.627319%);fill-opacity:1;" d="M 261.933594 499.019531 L 249.722656 499.019531 L 249.722656 416.335938 L 261.933594 416.335938 Z M 213.125 452.734375 C 215.027344 455.695312 217.273438 457.175781 219.867188 457.175781 C 222.398438 457.175781 224.617188 455.679688 226.515625 452.683594 C 228.417969 449.6875 229.367188 445.996094 229.367188 441.601562 C 229.367188 437.273438 228.417969 433.613281 226.515625 430.617188 C 224.617188 427.621094 222.367188 426.125 219.777344 426.125 C 217.242188 426.125 215.027344 427.621094 213.125 430.617188 C 211.226562 433.613281 210.277344 437.339844 210.277344 441.796875 C 210.277344 446.128906 211.226562 449.773438 213.125 452.734375 M 235.203125 425.273438 C 239.453125 429.765625 241.578125 435.242188 241.578125 441.699219 C 241.578125 448.09375 239.453125 453.535156 235.203125 458.027344 C 230.949219 462.519531 225.808594 464.765625 219.777344 464.765625 C 213.804688 464.765625 208.695312 462.519531 204.441406 458.027344 C 200.1875 453.535156 198.0625 448.09375 198.0625 441.699219 C 198.0625 435.242188 200.1875 429.765625 204.441406 425.273438 C 208.695312 420.78125 213.804688 418.535156 219.777344 418.535156 C 225.808594 418.535156 230.949219 420.78125 235.203125 425.273438 "/>
<path style=" stroke:none;fill-rule:nonzero;fill:rgb(13.725281%,9.803772%,8.627319%);fill-opacity:1;" d="M 296.042969 428.519531 C 293.6875 431.648438 292.511719 435.476562 292.511719 440 C 292.511719 444.53125 293.6875 448.355469 296.042969 451.484375 C 298.394531 454.617188 301.257812 456.179688 304.636719 456.179688 C 308.011719 456.179688 310.878906 454.617188 313.230469 451.484375 C 315.582031 448.355469 316.757812 444.53125 316.757812 440 C 316.757812 435.476562 315.582031 431.648438 313.230469 428.519531 C 310.878906 425.390625 308.011719 423.828125 304.636719 423.828125 C 301.257812 423.828125 298.394531 425.390625 296.042969 428.519531 M 338.472656 486.734375 L 270.890625 486.734375 L 270.890625 479.046875 L 298.574219 479.046875 L 298.574219 463.066406 C 293.265625 461.738281 288.878906 458.925781 285.410156 454.628906 C 281.941406 450.339844 280.207031 445.460938 280.207031 440 C 280.207031 433.410156 282.589844 427.789062 287.355469 423.125 C 292.121094 418.46875 297.878906 416.136719 304.636719 416.136719 C 311.453125 416.136719 317.226562 418.46875 321.960938 423.125 C 326.695312 427.789062 329.0625 433.410156 329.0625 440 C 329.0625 445.460938 327.34375 450.339844 323.90625 454.628906 C 320.46875 458.925781 316.09375 461.738281 310.789062 463.066406 L 310.789062 479.046875 L 338.472656 479.046875 Z M 338.472656 486.734375 "/>
<path style=" stroke:none;fill-rule:nonzero;fill:rgb(13.725281%,9.803772%,8.627319%);fill-opacity:1;" d="M 360.910156 453.121094 C 362.492188 453.554688 364.597656 453.664062 367.230469 453.664062 C 376.921875 453.664062 382.824219 448.773438 382.824219 440.183594 C 382.824219 432.03125 377.347656 427.683594 368.390625 427.683594 C 364.808594 427.683594 362.277344 428.007812 360.910156 428.335938 Z M 348.054688 418.988281 C 352.691406 418.117188 359.117188 417.464844 367.863281 417.464844 C 377.347656 417.464844 384.300781 419.527344 388.828125 423.441406 C 393.046875 427.03125 395.78125 432.792969 395.78125 439.640625 C 395.78125 446.597656 393.675781 452.359375 389.675781 456.273438 C 384.507812 461.597656 376.398438 464.101562 367.230469 464.101562 C 364.808594 464.101562 362.59375 463.988281 360.910156 463.664062 L 360.910156 491.277344 L 348.054688 491.277344 Z M 348.054688 418.988281 "/>
<path style=" stroke:none;fill-rule:nonzero;fill:rgb(13.725281%,9.803772%,8.627319%);fill-opacity:1;" d="M 406.640625 476.707031 C 410.851562 479.210938 417.171875 481.382812 423.8125 481.382812 C 432.136719 481.382812 436.769531 477.363281 436.769531 471.382812 C 436.769531 465.839844 433.1875 462.578125 424.125 459.207031 C 412.433594 454.859375 404.953125 448.449219 404.953125 437.898438 C 404.953125 425.945312 414.644531 416.8125 430.027344 416.8125 C 437.71875 416.8125 443.40625 418.550781 447.09375 420.507812 L 443.933594 431.269531 C 441.402344 429.859375 436.453125 427.792969 429.816406 427.792969 C 421.601562 427.792969 418.015625 432.359375 418.015625 436.597656 C 418.015625 442.25 422.125 444.855469 431.605469 448.664062 C 443.933594 453.449219 449.9375 459.859375 449.9375 470.40625 C 449.9375 482.144531 441.300781 492.476562 422.96875 492.476562 C 415.488281 492.476562 407.6875 490.191406 403.792969 487.796875 Z M 406.640625 476.707031 "/>
</g>
</svg>
