<?xml version="1.0" encoding="UTF-8"?>
<svg xmlns="http://www.w3.org/2000/svg" xmlns:xlink="http://www.w3.org/1999/xlink" width="566.929pt" height="566.929pt" viewBox="0 0 566.929 566.929" version="1.2">
<g id="surface1">
<path style=" stroke:none;fill-rule:nonzero;fill:rgb(0%,35.68573%,67.451477%);fill-opacity:1;" d="M 418.527344 363.269531 L 448.234375 311.855469 C 452.960938 303.648438 450.152344 293.171875 441.953125 288.429688 C 433.738281 283.710938 423.285156 286.519531 418.527344 294.707031 L 398.757812 328.972656 L 196.195312 328.972656 L 268.082031 391.210938 C 275.230469 397.421875 286.054688 396.621094 292.261719 389.464844 C 295.058594 386.21875 296.453125 382.238281 296.453125 378.273438 C 296.453125 373.464844 294.441406 368.683594 290.511719 365.292969 C 290.511719 365.292969 288.441406 363.515625 288.171875 363.269531 Z M 418.527344 363.269531 "/>
<path style=" stroke:none;fill-rule:nonzero;fill:rgb(0%,35.68573%,67.451477%);fill-opacity:1;" d="M 258.03125 119.1875 L 168.199219 150.320312 C 159.273438 153.417969 154.535156 163.191406 157.625 172.128906 C 159.046875 176.171875 161.804688 179.355469 165.234375 181.347656 C 169.410156 183.765625 174.546875 184.421875 179.4375 182.730469 C 179.4375 182.730469 182.011719 181.832031 182.359375 181.714844 L 117.175781 294.59375 L 146.84375 346.015625 C 151.613281 354.238281 162.078125 357.03125 170.277344 352.289062 C 178.46875 347.574219 181.28125 337.078125 176.5625 328.882812 L 156.761719 294.59375 Z M 258.03125 119.1875 "/>
<path style=" stroke:none;fill-rule:nonzero;fill:rgb(0%,35.68573%,67.451477%);fill-opacity:1;" d="M 327.203125 67.921875 L 267.839844 67.921875 C 258.328125 67.921875 250.675781 75.578125 250.675781 85.050781 C 250.675781 94.519531 258.328125 102.191406 267.839844 102.191406 L 307.394531 102.191406 L 408.671875 277.609375 L 426.632812 184.257812 C 428.429688 174.949219 422.332031 165.964844 413.035156 164.179688 C 408.816406 163.378906 404.671875 164.179688 401.246094 166.160156 C 397.078125 168.574219 393.9375 172.6875 392.960938 177.757812 C 392.960938 177.757812 392.464844 180.441406 392.394531 180.804688 Z M 327.203125 67.921875 "/>
<path style=" stroke:none;fill-rule:nonzero;fill:rgb(13.725281%,9.803772%,8.627319%);fill-opacity:1;" d="M 328.785156 278.855469 L 287.9375 278.855469 L 287.9375 272.3125 L 328.785156 272.3125 Z M 328.785156 278.855469 "/>
<path style=" stroke:none;fill-rule:nonzero;fill:rgb(13.725281%,9.803772%,8.627319%);fill-opacity:1;" d="M 215.726562 278.3125 L 238.84375 278.3125 L 238.84375 259.75 L 207.839844 259.75 L 207.839844 266.296875 L 231.476562 266.296875 L 231.476562 271.761719 L 208.332031 271.761719 L 208.332031 284.035156 C 208.332031 288.554688 210.152344 290.550781 213.488281 290.550781 L 239.714844 290.550781 L 239.714844 284.003906 L 215.726562 284.003906 Z M 215.726562 278.3125 "/>
<path style=" stroke:none;fill-rule:nonzero;fill:rgb(13.725281%,9.803772%,8.627319%);fill-opacity:1;" d="M 226.722656 235.59375 L 219.351562 235.59375 L 219.351562 222.214844 L 226.722656 222.214844 Z M 239.933594 235.59375 L 234.117188 235.59375 L 234.117188 222.214844 L 239.445312 222.214844 L 239.445312 215.574219 L 206.636719 215.574219 L 206.636719 222.214844 L 211.992188 222.214844 L 211.992188 235.59375 L 206.152344 235.59375 L 206.152344 242.191406 L 239.933594 242.191406 Z M 239.933594 235.59375 "/>
<path style=" stroke:none;fill-rule:nonzero;fill:rgb(13.725281%,9.803772%,8.627319%);fill-opacity:1;" d="M 202.164062 254.015625 L 243.976562 254.015625 L 243.976562 247.46875 L 202.164062 247.46875 Z M 202.164062 254.015625 "/>
<path style=" stroke:none;fill-rule:nonzero;fill:rgb(13.725281%,9.803772%,8.627319%);fill-opacity:1;" d="M 267.117188 263.84375 C 271.101562 263.84375 273.964844 262.046875 274.941406 261.207031 L 274.941406 290.550781 L 282.3125 290.550781 L 282.3125 239.679688 L 289.707031 239.679688 L 289.707031 233.136719 L 282.3125 233.136719 L 282.3125 215.117188 L 274.941406 215.117188 L 274.941406 255.382812 C 274.074219 255.929688 271.164062 257.296875 267.546875 257.296875 L 254.28125 257.296875 L 254.28125 242.371094 L 269.734375 242.371094 L 269.734375 216.285156 L 246.398438 216.285156 L 246.398438 222.832031 L 262.363281 222.832031 L 262.363281 235.769531 L 246.894531 235.769531 L 246.894531 257.328125 C 246.894531 261.847656 248.710938 263.84375 252.046875 263.84375 Z M 267.117188 263.84375 "/>
<path style=" stroke:none;fill-rule:nonzero;fill:rgb(13.725281%,9.803772%,8.627319%);fill-opacity:1;" d="M 312.058594 225.496094 L 312.058594 215.398438 L 304.613281 215.398438 L 304.613281 225.496094 C 304.613281 233.148438 302.585938 246.167969 288.484375 251.5625 L 291.785156 256.652344 C 296.753906 255.335938 304.492188 250.71875 308.324219 243.847656 C 312.183594 250.71875 319.914062 255.335938 324.886719 256.652344 L 328.160156 251.5625 C 314.078125 246.167969 312.058594 233.148438 312.058594 225.496094 "/>
<path style=" stroke:none;fill-rule:nonzero;fill:rgb(13.725281%,9.803772%,8.627319%);fill-opacity:1;" d="M 331.84375 248.324219 C 331.84375 252.839844 333.664062 254.832031 336.976562 254.832031 L 353.15625 254.832031 C 357.121094 254.832031 359.976562 253.046875 360.960938 252.199219 L 360.960938 257.296875 L 368.359375 257.296875 L 368.359375 215.117188 L 360.960938 215.117188 L 360.960938 246.371094 C 360.089844 246.921875 357.191406 248.292969 353.589844 248.292969 L 339.214844 248.292969 L 339.214844 238.582031 L 354.792969 238.582031 L 354.792969 232.035156 L 339.214844 232.035156 L 339.214844 222.832031 L 355.066406 222.832031 L 355.066406 216.285156 L 331.84375 216.285156 Z M 331.84375 248.324219 "/>
<path style=" stroke:none;fill-rule:nonzero;fill:rgb(13.725281%,9.803772%,8.627319%);fill-opacity:1;" d="M 335.125 268.851562 L 360.960938 268.851562 L 360.960938 290.550781 L 368.359375 290.550781 L 368.359375 262.296875 L 335.125 262.296875 Z M 335.125 268.851562 "/>
<path style=" stroke:none;fill-rule:nonzero;fill:rgb(13.725281%,9.803772%,8.627319%);fill-opacity:1;" d="M 161.050781 436.921875 L 170.292969 436.921875 L 170.292969 444.511719 L 161.050781 444.511719 L 161.050781 498.933594 L 151.804688 498.933594 L 151.804688 416.253906 L 161.050781 416.253906 Z M 135.914062 442.917969 L 125.574219 442.917969 L 125.574219 461.589844 L 135.914062 461.589844 Z M 125.574219 418.949219 L 125.574219 435.324219 L 135.914062 435.324219 L 135.914062 418.949219 L 145.160156 418.949219 L 145.160156 469.273438 L 122.765625 469.273438 C 120.800781 469.273438 119.238281 468.460938 118.074219 466.832031 C 116.910156 465.199219 116.328125 463.050781 116.328125 460.386719 L 116.328125 418.949219 Z M 125.574219 418.949219 "/>
<path style=" stroke:none;fill-rule:nonzero;fill:rgb(13.725281%,9.803772%,8.627319%);fill-opacity:1;" d="M 219.535156 498.933594 L 210.289062 498.933594 L 210.289062 416.253906 L 219.535156 416.253906 Z M 182.589844 452.648438 C 184.027344 455.613281 185.726562 457.09375 187.691406 457.09375 C 189.609375 457.09375 191.285156 455.59375 192.726562 452.597656 C 194.164062 449.605469 194.882812 445.910156 194.882812 441.515625 C 194.882812 437.191406 194.164062 433.527344 192.726562 430.53125 C 191.285156 427.539062 189.585938 426.039062 187.621094 426.039062 C 185.707031 426.039062 184.027344 427.539062 182.589844 430.53125 C 181.148438 433.527344 180.429688 437.253906 180.429688 441.714844 C 180.429688 446.042969 181.148438 449.6875 182.589844 452.648438 M 199.296875 425.1875 C 202.515625 429.683594 204.128906 435.160156 204.128906 441.617188 C 204.128906 448.007812 202.515625 453.449219 199.296875 457.945312 C 196.078125 462.4375 192.1875 464.683594 187.621094 464.683594 C 183.101562 464.683594 179.230469 462.4375 176.015625 457.945312 C 172.792969 453.449219 171.1875 448.007812 171.1875 441.617188 C 171.1875 435.160156 172.792969 429.683594 176.015625 425.1875 C 179.230469 420.695312 183.101562 418.449219 187.621094 418.449219 C 192.1875 418.449219 196.078125 420.695312 199.296875 425.1875 "/>
<path style=" stroke:none;fill-rule:nonzero;fill:rgb(13.725281%,9.803772%,8.627319%);fill-opacity:1;" d="M 245.351562 428.4375 C 243.574219 431.5625 242.683594 435.394531 242.683594 439.917969 C 242.683594 444.445312 243.574219 448.273438 245.351562 451.402344 C 247.132812 454.53125 249.300781 456.09375 251.859375 456.09375 C 254.414062 456.09375 256.585938 454.53125 258.367188 451.402344 C 260.148438 448.273438 261.039062 444.445312 261.039062 439.917969 C 261.039062 435.394531 260.148438 431.5625 258.367188 428.4375 C 256.585938 425.308594 254.414062 423.742188 251.859375 423.742188 C 249.300781 423.742188 247.132812 425.308594 245.351562 428.4375 M 277.476562 486.652344 L 226.3125 486.652344 L 226.3125 478.960938 L 247.273438 478.960938 L 247.273438 462.984375 C 243.253906 461.652344 239.929688 458.84375 237.304688 454.546875 C 234.679688 450.253906 233.371094 445.378906 233.371094 439.917969 C 233.371094 433.328125 235.171875 427.703125 238.777344 423.039062 C 242.382812 418.382812 246.746094 416.050781 251.859375 416.050781 C 257.019531 416.050781 261.390625 418.382812 264.972656 423.039062 C 268.558594 427.703125 270.351562 433.328125 270.351562 439.917969 C 270.351562 445.378906 269.050781 450.253906 266.449219 454.546875 C 263.847656 458.84375 260.535156 461.652344 256.515625 462.984375 L 256.515625 478.960938 L 277.476562 478.960938 Z M 277.476562 486.652344 "/>
<path style=" stroke:none;fill-rule:nonzero;fill:rgb(13.725281%,9.803772%,8.627319%);fill-opacity:1;" d="M 288.042969 418.515625 L 297.375 418.515625 L 297.375 480.585938 L 318.386719 480.585938 L 318.386719 491.78125 L 288.042969 491.78125 Z M 288.042969 418.515625 "/>
<path style=" stroke:none;fill-rule:nonzero;fill:rgb(13.725281%,9.803772%,8.627319%);fill-opacity:1;" d="M 334.773438 481.5625 C 336.0625 481.890625 338.03125 481.890625 339.929688 481.890625 C 352.066406 482 359.273438 472.433594 359.273438 453.84375 C 359.347656 437.648438 352.824219 428.40625 341.140625 428.40625 C 338.183594 428.40625 336.0625 428.730469 334.773438 429.167969 Z M 325.441406 419.492188 C 329.539062 418.515625 334.773438 417.96875 340.308594 417.96875 C 349.867188 417.96875 356.464844 420.796875 361.167969 426.449219 C 366.097656 432.210938 369.132812 440.90625 369.132812 453.410156 C 369.132812 466.453125 366.023438 476.234375 361.167969 482.542969 C 356.085938 489.171875 347.96875 492.542969 338.03125 492.542969 C 332.574219 492.542969 328.476562 492.109375 325.441406 491.566406 Z M 325.441406 419.492188 "/>
<path style=" stroke:none;fill-rule:nonzero;fill:rgb(13.725281%,9.803772%,8.627319%);fill-opacity:1;" d="M 386.507812 453.625 C 387.644531 454.058594 389.160156 454.171875 391.058594 454.171875 C 398.035156 454.171875 402.285156 449.277344 402.285156 440.6875 C 402.285156 432.535156 398.339844 428.191406 391.894531 428.191406 C 389.3125 428.191406 387.492188 428.511719 386.507812 428.839844 Z M 377.253906 419.492188 C 380.59375 418.621094 385.21875 417.96875 391.515625 417.96875 C 398.339844 417.96875 403.347656 420.035156 406.609375 423.949219 C 409.640625 427.535156 411.617188 433.300781 411.617188 440.144531 C 411.617188 447.101562 410.097656 452.863281 407.214844 456.777344 C 403.496094 462.105469 397.65625 464.605469 391.058594 464.605469 C 389.3125 464.605469 387.71875 464.496094 386.507812 464.167969 L 386.507812 491.78125 L 377.253906 491.78125 Z M 377.253906 419.492188 "/>
<path style=" stroke:none;fill-rule:nonzero;fill:rgb(13.725281%,9.803772%,8.627319%);fill-opacity:1;" d="M 448.253906 459.277344 L 428.984375 459.277344 L 428.984375 480.804688 L 450.53125 480.804688 L 450.53125 491.78125 L 419.65625 491.78125 L 419.65625 418.515625 L 449.390625 418.515625 L 449.390625 429.492188 L 428.984375 429.492188 L 428.984375 448.40625 L 448.253906 448.40625 Z M 448.253906 459.277344 "/>
</g>
</svg>
