<?xml version="1.0" encoding="UTF-8"?>
<svg xmlns="http://www.w3.org/2000/svg" xmlns:xlink="http://www.w3.org/1999/xlink" width="566.929pt" height="566.929pt" viewBox="0 0 566.929 566.929" version="1.2">
<g id="surface1">
<path style=" stroke:none;fill-rule:nonzero;fill:rgb(13.725281%,9.803772%,8.627319%);fill-opacity:1;" d="M 143.050781 459.210938 C 143.050781 474.105469 150.550781 486.0625 163.375 486.0625 C 176.3125 486.0625 183.597656 473.996094 183.597656 458.667969 C 183.597656 444.867188 176.75 431.710938 163.375 431.710938 C 150.117188 431.710938 143.050781 444.101562 143.050781 459.210938 M 197.730469 458.125 C 197.730469 482.691406 182.835938 496.714844 162.613281 496.714844 C 141.964844 496.714844 128.917969 480.953125 128.917969 459.429688 C 128.917969 436.929688 143.050781 421.058594 163.707031 421.058594 C 185.121094 421.058594 197.730469 437.253906 197.730469 458.125 "/>
<path style=" stroke:none;fill-rule:nonzero;fill:rgb(13.725281%,9.803772%,8.627319%);fill-opacity:1;" d="M 220.347656 433.453125 L 199.476562 433.453125 L 199.476562 422.253906 L 254.804688 422.253906 L 254.804688 433.453125 L 233.71875 433.453125 L 233.71875 495.523438 L 220.347656 495.523438 Z M 220.347656 433.453125 "/>
<path style=" stroke:none;fill-rule:nonzero;fill:rgb(13.725281%,9.803772%,8.627319%);fill-opacity:1;" d="M 276.765625 422.253906 L 276.765625 451.605469 L 307.753906 451.605469 L 307.753906 422.253906 L 321.125 422.253906 L 321.125 495.519531 L 307.753906 495.519531 L 307.753906 463.234375 L 276.765625 463.234375 L 276.765625 495.519531 L 263.398438 495.519531 L 263.398438 422.253906 Z M 276.765625 422.253906 "/>
<path style=" stroke:none;fill-rule:nonzero;fill:rgb(13.725281%,9.803772%,8.627319%);fill-opacity:1;" d="M 377.4375 463.019531 L 349.824219 463.019531 L 349.824219 484.542969 L 380.699219 484.542969 L 380.699219 495.523438 L 336.457031 495.523438 L 336.457031 422.253906 L 379.070312 422.253906 L 379.070312 433.234375 L 349.824219 433.234375 L 349.824219 452.148438 L 377.4375 452.148438 Z M 377.4375 463.019531 "/>
<path style=" stroke:none;fill-rule:nonzero;fill:rgb(13.725281%,9.803772%,8.627319%);fill-opacity:1;" d="M 405.707031 455.625 L 413.640625 455.625 C 422.664062 455.625 428.316406 450.84375 428.316406 443.558594 C 428.316406 435.515625 422.664062 431.820312 413.96875 431.820312 C 409.730469 431.820312 407.011719 432.144531 405.707031 432.472656 Z M 392.441406 423.230469 C 397.441406 422.363281 404.945312 421.710938 412.664062 421.710938 C 423.203125 421.710938 430.382812 423.449219 435.273438 427.582031 C 439.300781 430.953125 441.578125 436.054688 441.578125 442.253906 C 441.578125 451.710938 435.164062 458.125 428.316406 460.628906 L 428.316406 460.953125 C 433.535156 462.90625 436.6875 468.019531 438.535156 475.082031 C 440.820312 484.214844 442.777344 492.695312 444.296875 495.519531 L 430.492188 495.519531 C 429.402344 493.347656 427.664062 487.371094 425.601562 478.238281 C 423.535156 468.671875 420.054688 465.625 412.449219 465.40625 L 405.707031 465.40625 L 405.707031 495.519531 L 392.441406 495.519531 Z M 392.441406 423.230469 "/>
<path style=" stroke:none;fill-rule:nonzero;fill:rgb(13.725281%,9.803772%,8.627319%);fill-opacity:1;" d="M 328.992188 281.578125 L 288.101562 281.578125 L 288.101562 275.011719 L 328.992188 275.011719 Z M 328.992188 281.578125 "/>
<path style=" stroke:none;fill-rule:nonzero;fill:rgb(13.725281%,9.803772%,8.627319%);fill-opacity:1;" d="M 215.773438 281.042969 L 238.929688 281.042969 L 238.929688 262.425781 L 207.890625 262.425781 L 207.890625 268.988281 L 231.539062 268.988281 L 231.539062 274.457031 L 208.390625 274.457031 L 208.390625 286.722656 C 208.390625 291.261719 210.203125 293.253906 213.523438 293.253906 L 239.808594 293.253906 L 239.808594 286.691406 L 215.773438 286.691406 Z M 215.773438 281.042969 "/>
<path style=" stroke:none;fill-rule:nonzero;fill:rgb(13.725281%,9.803772%,8.627319%);fill-opacity:1;" d="M 226.796875 238.253906 L 219.414062 238.253906 L 219.414062 224.839844 L 226.796875 224.839844 Z M 240.023438 238.253906 L 234.1875 238.253906 L 234.1875 224.839844 L 239.523438 224.839844 L 239.523438 218.171875 L 206.679688 218.171875 L 206.679688 224.839844 L 212.023438 224.839844 L 212.023438 238.253906 L 206.1875 238.253906 L 206.1875 244.816406 L 240.023438 244.816406 Z M 240.023438 238.253906 "/>
<path style=" stroke:none;fill-rule:nonzero;fill:rgb(13.725281%,9.803772%,8.627319%);fill-opacity:1;" d="M 202.199219 256.675781 L 244.070312 256.675781 L 244.070312 250.109375 L 202.199219 250.109375 Z M 202.199219 256.675781 "/>
<path style=" stroke:none;fill-rule:nonzero;fill:rgb(13.725281%,9.803772%,8.627319%);fill-opacity:1;" d="M 267.25 266.523438 C 271.226562 266.523438 274.09375 264.738281 275.082031 263.878906 L 275.082031 293.253906 L 282.457031 293.253906 L 282.457031 242.359375 L 289.851562 242.359375 L 289.851562 235.78125 L 282.457031 235.78125 L 282.457031 217.726562 L 275.082031 217.726562 L 275.082031 258.042969 C 274.207031 258.585938 271.28125 259.960938 267.683594 259.960938 L 254.386719 259.960938 L 254.386719 245.003906 L 269.878906 245.003906 L 269.878906 218.890625 L 246.511719 218.890625 L 246.511719 225.457031 L 262.488281 225.457031 L 262.488281 238.425781 L 246.992188 238.425781 L 246.992188 259.992188 C 246.992188 264.53125 248.820312 266.523438 252.140625 266.523438 Z M 267.25 266.523438 "/>
<path style=" stroke:none;fill-rule:nonzero;fill:rgb(13.725281%,9.803772%,8.627319%);fill-opacity:1;" d="M 312.238281 228.125 L 312.238281 217.992188 L 304.796875 217.992188 L 304.796875 228.125 C 304.796875 235.796875 302.773438 248.808594 288.652344 254.214844 L 291.929688 259.320312 C 296.925781 257.992188 304.671875 253.371094 308.515625 246.488281 C 312.363281 253.371094 320.117188 257.992188 325.101562 259.320312 L 328.390625 254.214844 C 314.261719 248.808594 312.238281 235.796875 312.238281 228.125 "/>
<path style=" stroke:none;fill-rule:nonzero;fill:rgb(13.725281%,9.803772%,8.627319%);fill-opacity:1;" d="M 332.058594 250.957031 C 332.058594 255.492188 333.878906 257.5 337.203125 257.5 L 353.402344 257.5 C 357.378906 257.5 360.246094 255.707031 361.234375 254.855469 L 361.234375 259.960938 L 368.628906 259.960938 L 368.628906 217.726562 L 361.234375 217.726562 L 361.234375 249.011719 C 360.359375 249.5625 357.433594 250.929688 353.839844 250.929688 L 339.449219 250.929688 L 339.449219 241.246094 L 355.042969 241.246094 L 355.042969 234.667969 L 339.449219 234.667969 L 339.449219 225.460938 L 355.316406 225.460938 L 355.316406 218.890625 L 332.058594 218.890625 Z M 332.058594 250.957031 "/>
<path style=" stroke:none;fill-rule:nonzero;fill:rgb(13.725281%,9.803772%,8.627319%);fill-opacity:1;" d="M 335.34375 271.539062 L 361.234375 271.539062 L 361.234375 293.253906 L 368.628906 293.253906 L 368.628906 264.96875 L 335.34375 264.96875 Z M 335.34375 271.539062 "/>
<path style=" stroke:none;fill-rule:nonzero;fill:rgb(0%,35.68573%,67.451477%);fill-opacity:1;" d="M 418.367188 366.082031 L 448.121094 314.558594 C 452.875 306.347656 450.039062 295.84375 441.835938 291.113281 C 433.605469 286.378906 423.121094 289.171875 418.367188 297.382812 L 398.554688 331.734375 L 195.609375 331.734375 L 267.621094 394.074219 C 274.789062 400.300781 285.640625 399.515625 291.859375 392.335938 C 294.660156 389.09375 296.050781 385.09375 296.050781 381.109375 C 296.050781 376.292969 294.046875 371.5 290.101562 368.121094 C 290.101562 368.121094 288.03125 366.320312 287.761719 366.082031 Z M 418.367188 366.082031 "/>
<path style=" stroke:none;fill-rule:nonzero;fill:rgb(0%,35.68573%,67.451477%);fill-opacity:1;" d="M 257.566406 121.535156 L 167.558594 152.738281 C 158.613281 155.847656 153.875 165.613281 156.972656 174.578125 C 158.390625 178.632812 161.152344 181.828125 164.59375 183.828125 C 168.769531 186.230469 173.917969 186.878906 178.820312 185.1875 C 178.820312 185.1875 181.410156 184.28125 181.742188 184.171875 L 116.429688 297.285156 L 146.167969 348.800781 C 150.941406 357.035156 161.417969 359.832031 169.640625 355.085938 C 177.851562 350.367188 180.664062 339.851562 175.933594 331.644531 L 156.09375 297.285156 Z M 257.566406 121.535156 "/>
<path style=" stroke:none;fill-rule:nonzero;fill:rgb(0%,35.68573%,67.451477%);fill-opacity:1;" d="M 326.878906 70.140625 L 267.382812 70.140625 C 257.875 70.140625 250.195312 77.835938 250.195312 87.335938 C 250.195312 96.808594 257.875 104.515625 267.382812 104.515625 L 307.03125 104.515625 L 408.492188 280.257812 L 426.488281 186.722656 C 428.28125 177.402344 422.179688 168.398438 412.867188 166.613281 C 408.632812 165.816406 404.484375 166.613281 401.042969 168.605469 C 396.867188 171.011719 393.726562 175.140625 392.757812 180.214844 C 392.757812 180.214844 392.25 182.925781 392.171875 183.28125 Z M 326.878906 70.140625 "/>
</g>
</svg>
