<?xml version="1.0" encoding="UTF-8"?>
<svg xmlns="http://www.w3.org/2000/svg" xmlns:xlink="http://www.w3.org/1999/xlink" width="566.929pt" height="566.929pt" viewBox="0 0 566.929 566.929" version="1.2">
<g id="surface1">
<path style=" stroke:none;fill-rule:nonzero;fill:rgb(13.725281%,9.803772%,8.627319%);fill-opacity:1;" d="M 248.175781 457.363281 C 249.808594 457.796875 251.984375 457.910156 254.703125 457.910156 C 264.699219 457.910156 270.789062 453.015625 270.789062 444.429688 C 270.789062 436.277344 265.136719 431.929688 255.894531 431.929688 C 252.199219 431.929688 249.585938 432.253906 248.175781 432.582031 Z M 234.914062 423.230469 C 239.695312 422.363281 246.328125 421.707031 255.351562 421.707031 C 265.136719 421.707031 272.3125 423.773438 276.984375 427.6875 C 281.335938 431.273438 284.15625 437.039062 284.15625 443.882812 C 284.15625 450.839844 281.984375 456.601562 277.855469 460.519531 C 272.527344 465.84375 264.160156 468.34375 254.703125 468.34375 C 252.199219 468.34375 249.914062 468.234375 248.175781 467.90625 L 248.175781 495.519531 L 234.914062 495.519531 Z M 234.914062 423.230469 "/>
<path style=" stroke:none;fill-rule:nonzero;fill:rgb(13.725281%,9.803772%,8.627319%);fill-opacity:1;" d="M 295.363281 480.953125 C 299.707031 483.453125 306.230469 485.625 313.078125 485.625 C 321.667969 485.625 326.453125 481.605469 326.453125 475.625 C 326.453125 470.085938 322.753906 466.824219 313.402344 463.453125 C 301.339844 459.101562 293.625 452.691406 293.625 442.144531 C 293.625 430.1875 303.621094 421.054688 319.496094 421.054688 C 327.429688 421.054688 333.296875 422.792969 337.105469 424.75 L 333.84375 435.515625 C 331.230469 434.105469 326.125 432.035156 319.277344 432.035156 C 310.800781 432.035156 307.101562 436.601562 307.101562 440.839844 C 307.101562 446.496094 311.339844 449.101562 321.125 452.90625 C 333.84375 457.691406 340.039062 464.105469 340.039062 474.648438 C 340.039062 486.386719 331.125 496.71875 312.210938 496.71875 C 304.492188 496.71875 296.445312 494.433594 292.425781 492.042969 Z M 295.363281 480.953125 "/>
<path style=" stroke:none;fill-rule:nonzero;fill:rgb(13.725281%,9.803772%,8.627319%);fill-opacity:1;" d="M 328.992188 281.574219 L 288.101562 281.574219 L 288.101562 275.007812 L 328.992188 275.007812 Z M 328.992188 281.574219 "/>
<path style=" stroke:none;fill-rule:nonzero;fill:rgb(13.725281%,9.803772%,8.627319%);fill-opacity:1;" d="M 215.773438 281.039062 L 238.929688 281.039062 L 238.929688 262.421875 L 207.890625 262.421875 L 207.890625 268.980469 L 231.539062 268.980469 L 231.539062 274.453125 L 208.390625 274.453125 L 208.390625 286.722656 C 208.390625 291.257812 210.203125 293.253906 213.523438 293.253906 L 239.808594 293.253906 L 239.808594 286.6875 L 215.773438 286.6875 Z M 215.773438 281.039062 "/>
<path style=" stroke:none;fill-rule:nonzero;fill:rgb(13.725281%,9.803772%,8.627319%);fill-opacity:1;" d="M 226.796875 238.25 L 219.414062 238.25 L 219.414062 224.835938 L 226.796875 224.835938 Z M 240.023438 238.25 L 234.1875 238.25 L 234.1875 224.835938 L 239.523438 224.835938 L 239.523438 218.171875 L 206.679688 218.171875 L 206.679688 224.835938 L 212.023438 224.835938 L 212.023438 238.25 L 206.1875 238.25 L 206.1875 244.808594 L 240.023438 244.808594 Z M 240.023438 238.25 "/>
<path style=" stroke:none;fill-rule:nonzero;fill:rgb(13.725281%,9.803772%,8.627319%);fill-opacity:1;" d="M 202.199219 256.671875 L 244.070312 256.671875 L 244.070312 250.105469 L 202.199219 250.105469 Z M 202.199219 256.671875 "/>
<path style=" stroke:none;fill-rule:nonzero;fill:rgb(13.725281%,9.803772%,8.627319%);fill-opacity:1;" d="M 267.25 266.519531 C 271.226562 266.519531 274.09375 264.734375 275.082031 263.875 L 275.082031 293.253906 L 282.457031 293.253906 L 282.457031 242.355469 L 289.851562 242.355469 L 289.851562 235.777344 L 282.457031 235.777344 L 282.457031 217.71875 L 275.082031 217.71875 L 275.082031 258.039062 C 274.207031 258.585938 271.28125 259.957031 267.683594 259.957031 L 254.386719 259.957031 L 254.386719 244.996094 L 269.878906 244.996094 L 269.878906 218.890625 L 246.511719 218.890625 L 246.511719 225.453125 L 262.488281 225.453125 L 262.488281 238.421875 L 246.992188 238.421875 L 246.992188 259.992188 C 246.992188 264.53125 248.820312 266.519531 252.140625 266.519531 Z M 267.25 266.519531 "/>
<path style=" stroke:none;fill-rule:nonzero;fill:rgb(13.725281%,9.803772%,8.627319%);fill-opacity:1;" d="M 312.238281 228.121094 L 312.238281 217.988281 L 304.796875 217.988281 L 304.796875 228.121094 C 304.796875 235.792969 302.773438 248.808594 288.652344 254.210938 L 291.929688 259.316406 C 296.925781 257.988281 304.671875 253.367188 308.515625 246.484375 C 312.363281 253.367188 320.117188 257.988281 325.101562 259.316406 L 328.390625 254.210938 C 314.261719 248.808594 312.238281 235.792969 312.238281 228.121094 "/>
<path style=" stroke:none;fill-rule:nonzero;fill:rgb(13.725281%,9.803772%,8.627319%);fill-opacity:1;" d="M 332.058594 250.953125 C 332.058594 255.484375 333.882812 257.492188 337.203125 257.492188 L 353.402344 257.492188 C 357.378906 257.492188 360.246094 255.703125 361.234375 254.851562 L 361.234375 259.957031 L 368.628906 259.957031 L 368.628906 217.71875 L 361.234375 217.71875 L 361.234375 249.003906 C 360.359375 249.5625 357.433594 250.929688 353.839844 250.929688 L 339.449219 250.929688 L 339.449219 241.242188 L 355.042969 241.242188 L 355.042969 234.664062 L 339.449219 234.664062 L 339.449219 225.453125 L 355.316406 225.453125 L 355.316406 218.890625 L 332.058594 218.890625 Z M 332.058594 250.953125 "/>
<path style=" stroke:none;fill-rule:nonzero;fill:rgb(13.725281%,9.803772%,8.627319%);fill-opacity:1;" d="M 335.34375 271.535156 L 361.234375 271.535156 L 361.234375 293.253906 L 368.628906 293.253906 L 368.628906 264.964844 L 335.34375 264.964844 Z M 335.34375 271.535156 "/>
<path style=" stroke:none;fill-rule:nonzero;fill:rgb(0%,35.68573%,67.451477%);fill-opacity:1;" d="M 418.367188 366.078125 L 448.121094 314.554688 C 452.875 306.34375 450.039062 295.839844 441.835938 291.105469 C 433.605469 286.375 423.121094 289.167969 418.367188 297.378906 L 398.554688 331.730469 L 195.609375 331.730469 L 267.621094 394.074219 C 274.789062 400.296875 285.640625 399.515625 291.859375 392.335938 C 294.660156 389.089844 296.050781 385.089844 296.050781 381.101562 C 296.050781 376.292969 294.042969 371.5 290.101562 368.113281 C 290.101562 368.113281 288.03125 366.316406 287.761719 366.078125 Z M 418.367188 366.078125 "/>
<path style=" stroke:none;fill-rule:nonzero;fill:rgb(0%,35.68573%,67.451477%);fill-opacity:1;" d="M 257.566406 121.527344 L 167.558594 152.730469 C 158.613281 155.84375 153.875 165.613281 156.972656 174.574219 C 158.390625 178.628906 161.152344 181.820312 164.59375 183.824219 C 168.769531 186.226562 173.917969 186.875 178.820312 185.183594 C 178.820312 185.183594 181.410156 184.277344 181.742188 184.167969 L 116.429688 297.285156 L 146.167969 348.800781 C 150.941406 357.027344 161.417969 359.828125 169.640625 355.082031 C 177.851562 350.363281 180.664062 339.84375 175.933594 331.640625 L 156.09375 297.285156 Z M 257.566406 121.527344 "/>
<path style=" stroke:none;fill-rule:nonzero;fill:rgb(0%,35.68573%,67.451477%);fill-opacity:1;" d="M 326.878906 70.140625 L 267.378906 70.140625 C 257.875 70.140625 250.195312 77.832031 250.195312 87.335938 C 250.195312 96.808594 257.875 104.511719 267.378906 104.511719 L 307.027344 104.511719 L 408.492188 280.253906 L 426.488281 186.71875 C 428.28125 177.394531 422.183594 168.398438 412.867188 166.609375 C 408.632812 165.8125 404.484375 166.609375 401.042969 168.601562 C 396.867188 171.003906 393.726562 175.132812 392.757812 180.214844 C 392.757812 180.214844 392.25 182.917969 392.171875 183.277344 Z M 326.878906 70.140625 "/>
</g>
</svg>
