<?xml version="1.0" encoding="UTF-8"?>
<svg xmlns="http://www.w3.org/2000/svg" xmlns:xlink="http://www.w3.org/1999/xlink" width="566.929pt" height="566.929pt" viewBox="0 0 566.929 566.929" version="1.2">
<g id="surface1">
<path style=" stroke:none;fill-rule:nonzero;fill:rgb(13.725281%,9.803772%,8.627319%);fill-opacity:1;" d="M 171.207031 422.46875 L 184.578125 422.46875 L 184.578125 484.539062 L 214.6875 484.539062 L 214.6875 495.738281 L 171.207031 495.738281 Z M 171.207031 422.46875 "/>
<path style=" stroke:none;fill-rule:nonzero;fill:rgb(13.725281%,9.803772%,8.627319%);fill-opacity:1;" d="M 238.175781 485.519531 C 240.027344 485.84375 242.847656 485.84375 245.566406 485.84375 C 262.957031 485.957031 273.289062 476.390625 273.289062 457.800781 C 273.394531 441.601562 264.046875 432.363281 247.304688 432.363281 C 243.066406 432.363281 240.027344 432.6875 238.175781 433.125 Z M 224.804688 423.449219 C 230.671875 422.46875 238.175781 421.925781 246.109375 421.925781 C 259.808594 421.925781 269.265625 424.753906 276.007812 430.40625 C 283.070312 436.167969 287.417969 444.863281 287.417969 457.367188 C 287.417969 470.410156 282.964844 480.191406 276.007812 486.496094 C 268.71875 493.128906 257.089844 496.5 242.847656 496.5 C 235.023438 496.5 229.152344 496.066406 224.804688 495.523438 Z M 224.804688 423.449219 "/>
<path style=" stroke:none;fill-rule:nonzero;fill:rgb(13.725281%,9.803772%,8.627319%);fill-opacity:1;" d="M 312.320312 457.582031 C 313.949219 458.015625 316.121094 458.125 318.839844 458.125 C 328.839844 458.125 334.929688 453.234375 334.929688 444.644531 C 334.929688 436.492188 329.273438 432.144531 320.039062 432.144531 C 316.339844 432.144531 313.734375 432.46875 312.320312 432.796875 Z M 299.054688 423.449219 C 303.839844 422.578125 310.472656 421.925781 319.496094 421.925781 C 329.273438 421.925781 336.453125 423.992188 341.128906 427.90625 C 345.472656 431.492188 348.300781 437.253906 348.300781 444.101562 C 348.300781 451.058594 346.128906 456.820312 341.996094 460.734375 C 336.667969 466.0625 328.296875 468.5625 318.839844 468.5625 C 316.339844 468.5625 314.058594 468.453125 312.320312 468.125 L 312.320312 495.738281 L 299.054688 495.738281 Z M 299.054688 423.449219 "/>
<path style=" stroke:none;fill-rule:nonzero;fill:rgb(13.725281%,9.803772%,8.627319%);fill-opacity:1;" d="M 400.808594 463.234375 L 373.199219 463.234375 L 373.199219 484.757812 L 404.074219 484.757812 L 404.074219 495.738281 L 359.828125 495.738281 L 359.828125 422.46875 L 402.441406 422.46875 L 402.441406 433.449219 L 373.199219 433.449219 L 373.199219 452.363281 L 400.808594 452.363281 Z M 400.808594 463.234375 "/>
<path style=" stroke:none;fill-rule:nonzero;fill:rgb(13.725281%,9.803772%,8.627319%);fill-opacity:1;" d="M 328.992188 281.792969 L 288.101562 281.792969 L 288.101562 275.230469 L 328.992188 275.230469 Z M 328.992188 281.792969 "/>
<path style=" stroke:none;fill-rule:nonzero;fill:rgb(13.725281%,9.803772%,8.627319%);fill-opacity:1;" d="M 215.773438 281.253906 L 238.929688 281.253906 L 238.929688 262.640625 L 207.890625 262.640625 L 207.890625 269.203125 L 231.542969 269.203125 L 231.542969 274.671875 L 208.390625 274.671875 L 208.390625 286.941406 C 208.390625 291.472656 210.203125 293.472656 213.527344 293.472656 L 239.808594 293.472656 L 239.808594 286.90625 L 215.773438 286.90625 Z M 215.773438 281.253906 "/>
<path style=" stroke:none;fill-rule:nonzero;fill:rgb(13.725281%,9.803772%,8.627319%);fill-opacity:1;" d="M 226.796875 238.46875 L 219.414062 238.46875 L 219.414062 225.054688 L 226.796875 225.054688 Z M 240.023438 238.46875 L 234.1875 238.46875 L 234.1875 225.054688 L 239.523438 225.054688 L 239.523438 218.390625 L 206.679688 218.390625 L 206.679688 225.054688 L 212.023438 225.054688 L 212.023438 238.46875 L 206.1875 238.46875 L 206.1875 245.03125 L 240.023438 245.03125 Z M 240.023438 238.46875 "/>
<path style=" stroke:none;fill-rule:nonzero;fill:rgb(13.725281%,9.803772%,8.627319%);fill-opacity:1;" d="M 202.199219 256.894531 L 244.070312 256.894531 L 244.070312 250.320312 L 202.199219 250.320312 Z M 202.199219 256.894531 "/>
<path style=" stroke:none;fill-rule:nonzero;fill:rgb(13.725281%,9.803772%,8.627319%);fill-opacity:1;" d="M 267.25 266.738281 C 271.230469 266.738281 274.09375 264.953125 275.082031 264.097656 L 275.082031 293.472656 L 282.460938 293.472656 L 282.460938 242.574219 L 289.851562 242.574219 L 289.851562 236 L 282.460938 236 L 282.460938 217.9375 L 275.082031 217.9375 L 275.082031 258.253906 C 274.207031 258.804688 271.28125 260.175781 267.683594 260.175781 L 254.386719 260.175781 L 254.386719 245.214844 L 269.878906 245.214844 L 269.878906 219.109375 L 246.511719 219.109375 L 246.511719 225.671875 L 262.488281 225.671875 L 262.488281 238.640625 L 246.988281 238.640625 L 246.988281 260.210938 C 246.988281 264.746094 248.820312 266.738281 252.140625 266.738281 Z M 267.25 266.738281 "/>
<path style=" stroke:none;fill-rule:nonzero;fill:rgb(13.725281%,9.803772%,8.627319%);fill-opacity:1;" d="M 312.238281 228.339844 L 312.238281 218.210938 L 304.796875 218.210938 L 304.796875 228.339844 C 304.796875 236.011719 302.773438 249.027344 288.652344 254.429688 L 291.929688 259.535156 C 296.925781 258.203125 304.671875 253.585938 308.515625 246.703125 C 312.363281 253.585938 320.117188 258.203125 325.101562 259.535156 L 328.390625 254.429688 C 314.261719 249.027344 312.238281 236.011719 312.238281 228.339844 "/>
<path style=" stroke:none;fill-rule:nonzero;fill:rgb(13.725281%,9.803772%,8.627319%);fill-opacity:1;" d="M 332.058594 251.171875 C 332.058594 255.703125 333.878906 257.710938 337.203125 257.710938 L 353.402344 257.710938 C 357.378906 257.710938 360.246094 255.921875 361.234375 255.066406 L 361.234375 260.171875 L 368.628906 260.171875 L 368.628906 217.9375 L 361.234375 217.9375 L 361.234375 249.222656 C 360.359375 249.78125 357.433594 251.148438 353.839844 251.148438 L 339.449219 251.148438 L 339.449219 241.460938 L 355.042969 241.460938 L 355.042969 234.886719 L 339.449219 234.886719 L 339.449219 225.675781 L 355.316406 225.675781 L 355.316406 219.109375 L 332.058594 219.109375 Z M 332.058594 251.171875 "/>
<path style=" stroke:none;fill-rule:nonzero;fill:rgb(13.725281%,9.803772%,8.627319%);fill-opacity:1;" d="M 335.34375 271.757812 L 361.234375 271.757812 L 361.234375 293.472656 L 368.628906 293.472656 L 368.628906 265.1875 L 335.34375 265.1875 Z M 335.34375 271.757812 "/>
<path style=" stroke:none;fill-rule:nonzero;fill:rgb(0%,35.68573%,67.451477%);fill-opacity:1;" d="M 418.367188 366.292969 L 448.121094 314.777344 C 452.875 306.5625 450.039062 296.058594 441.839844 291.324219 C 433.601562 286.59375 423.125 289.386719 418.367188 297.597656 L 398.554688 331.949219 L 195.609375 331.949219 L 267.621094 394.292969 C 274.789062 400.515625 285.640625 399.734375 291.859375 392.554688 C 294.660156 389.308594 296.050781 385.3125 296.050781 381.324219 C 296.050781 376.511719 294.042969 371.71875 290.101562 368.335938 C 290.101562 368.335938 288.03125 366.535156 287.761719 366.292969 Z M 418.367188 366.292969 "/>
<path style=" stroke:none;fill-rule:nonzero;fill:rgb(0%,35.68573%,67.451477%);fill-opacity:1;" d="M 257.566406 121.75 L 167.558594 152.949219 C 158.613281 156.0625 153.875 165.832031 156.972656 174.792969 C 158.390625 178.847656 161.152344 182.039062 164.59375 184.042969 C 168.769531 186.449219 173.917969 187.09375 178.820312 185.402344 C 178.820312 185.402344 181.410156 184.5 181.742188 184.386719 L 116.429688 297.503906 L 146.171875 349.019531 C 150.941406 357.246094 161.417969 360.050781 169.640625 355.300781 C 177.851562 350.582031 180.664062 340.0625 175.933594 331.859375 L 156.09375 297.503906 Z M 257.566406 121.75 "/>
<path style=" stroke:none;fill-rule:nonzero;fill:rgb(0%,35.68573%,67.451477%);fill-opacity:1;" d="M 326.878906 70.359375 L 267.378906 70.359375 C 257.871094 70.359375 250.195312 78.054688 250.195312 87.554688 C 250.195312 97.027344 257.871094 104.730469 267.378906 104.730469 L 307.027344 104.730469 L 408.492188 280.476562 L 426.488281 186.9375 C 428.28125 177.613281 422.179688 168.617188 412.867188 166.828125 C 408.632812 166.03125 404.484375 166.828125 401.042969 168.824219 C 396.867188 171.222656 393.726562 175.355469 392.757812 180.433594 C 392.757812 180.433594 392.25 183.140625 392.175781 183.496094 Z M 326.878906 70.359375 "/>
</g>
</svg>
