<?xml version="1.0" encoding="UTF-8"?>
<svg xmlns="http://www.w3.org/2000/svg" xmlns:xlink="http://www.w3.org/1999/xlink" width="566.929pt" height="566.929pt" viewBox="0 0 566.929 566.929" version="1.2">
<g id="surface1">
<path style=" stroke:none;fill-rule:nonzero;fill:rgb(99.215698%,81.568909%,0%);fill-opacity:1;" d="M 418.363281 363.769531 L 448.128906 312.257812 C 452.863281 304.035156 450.050781 293.539062 441.832031 288.789062 C 433.601562 284.0625 423.132812 286.871094 418.363281 295.078125 L 398.554688 329.40625 L 195.601562 329.40625 L 267.632812 391.765625 C 274.789062 397.988281 285.636719 397.1875 291.855469 390.015625 C 294.65625 386.765625 296.054688 382.777344 296.054688 378.804688 C 296.054688 373.984375 294.039062 369.195312 290.101562 365.800781 C 290.101562 365.800781 288.03125 364.019531 287.757812 363.769531 Z M 418.363281 363.769531 "/>
<path style=" stroke:none;fill-rule:nonzero;fill:rgb(99.215698%,81.568909%,0%);fill-opacity:1;" d="M 257.558594 119.21875 L 167.554688 150.414062 C 158.613281 153.515625 153.863281 163.308594 156.960938 172.261719 C 158.386719 176.316406 161.148438 179.503906 164.585938 181.503906 C 168.769531 183.925781 173.914062 184.582031 178.816406 182.886719 C 178.816406 182.886719 181.394531 181.988281 181.742188 181.867188 L 116.433594 294.964844 L 146.160156 346.484375 C 150.9375 354.71875 161.425781 357.519531 169.636719 352.773438 C 177.84375 348.046875 180.664062 337.53125 175.933594 329.320312 L 156.09375 294.964844 Z M 257.558594 119.21875 "/>
<path style=" stroke:none;fill-rule:nonzero;fill:rgb(99.215698%,81.568909%,0%);fill-opacity:1;" d="M 326.863281 67.859375 L 267.386719 67.859375 C 257.855469 67.859375 250.1875 75.53125 250.1875 85.019531 C 250.1875 94.503906 257.855469 102.191406 267.386719 102.191406 L 307.015625 102.191406 L 408.488281 277.949219 L 426.484375 184.417969 C 428.285156 175.089844 422.175781 166.089844 412.859375 164.300781 C 408.632812 163.5 404.480469 164.300781 401.046875 166.28125 C 396.871094 168.703125 393.726562 172.824219 392.746094 177.90625 C 392.746094 177.90625 392.25 180.59375 392.179688 180.957031 Z M 326.863281 67.859375 "/>
<path style=" stroke:none;fill-rule:nonzero;fill:rgb(13.725281%,9.803772%,8.627319%);fill-opacity:1;" d="M 227.84375 223.523438 L 210.507812 223.523438 L 210.507812 242.773438 L 227.84375 242.773438 Z M 235.300781 216.5 L 235.300781 249.796875 L 208.246094 249.796875 C 206.660156 249.796875 205.398438 249.035156 204.460938 247.515625 C 203.523438 245.996094 203.054688 244.019531 203.054688 241.585938 L 203.054688 216.5 Z M 240.269531 258.007812 L 240.269531 264.941406 L 222.875 264.941406 L 222.875 291.210938 L 215.421875 291.210938 L 215.421875 264.941406 L 198.027344 264.941406 L 198.027344 258.007812 Z M 240.269531 258.007812 "/>
<path style=" stroke:none;fill-rule:nonzero;fill:rgb(13.725281%,9.803772%,8.627319%);fill-opacity:1;" d="M 276.214844 271.144531 L 249.324219 271.144531 L 249.324219 264.210938 L 283.667969 264.210938 L 283.667969 291.210938 L 276.214844 291.210938 Z M 272.734375 231.277344 L 276.65625 231.277344 L 276.65625 215.679688 L 283.667969 215.679688 L 283.667969 259.101562 L 276.65625 259.101562 L 276.65625 238.210938 L 272.734375 238.210938 L 272.734375 259.101562 L 265.722656 259.101562 L 265.722656 255.453125 L 263.402344 258.738281 C 261.378906 258.25 259.34375 256.636719 257.300781 253.902344 C 255.257812 251.164062 254.035156 248.214844 253.632812 245.054688 C 253.261719 248.214844 252.046875 251.164062 249.988281 253.902344 C 247.925781 256.636719 245.863281 258.25 243.800781 258.738281 L 240.378906 253.902344 C 243.140625 252.6875 245.421875 249.765625 247.226562 245.144531 C 249.027344 240.523438 249.933594 234.777344 249.933594 227.902344 L 249.933594 216.867188 L 257.273438 216.867188 L 257.273438 227.902344 C 257.273438 234.351562 258.066406 239.808594 259.648438 244.277344 C 261.230469 248.746094 263.257812 251.773438 265.722656 253.355469 L 265.722656 215.679688 L 272.734375 215.679688 Z M 272.734375 231.277344 "/>
<path style=" stroke:none;fill-rule:nonzero;fill:rgb(13.725281%,9.803772%,8.627319%);fill-opacity:1;" d="M 329.882812 291.210938 L 322.925781 291.210938 L 322.925781 215.679688 L 329.882812 215.679688 Z M 320.21875 291.210938 L 313.261719 291.210938 L 313.261719 243.59375 L 309.507812 243.59375 L 309.507812 236.570312 L 313.261719 236.570312 L 313.261719 215.679688 L 320.21875 215.679688 Z M 301.667969 225.53125 L 299.074219 225.53125 L 299.074219 257.550781 L 301.667969 257.550781 Z M 311.828125 264.484375 L 288.914062 264.484375 L 288.914062 257.550781 L 292.113281 257.550781 L 292.113281 225.53125 L 289.132812 225.53125 L 289.132812 218.507812 L 310.941406 218.507812 L 310.941406 225.53125 L 308.566406 225.53125 L 308.566406 257.550781 L 311.828125 257.550781 Z M 311.828125 264.484375 "/>
<path style=" stroke:none;fill-rule:nonzero;fill:rgb(13.725281%,9.803772%,8.627319%);fill-opacity:1;" d="M 346.722656 242.042969 L 346.722656 252.808594 L 371.460938 252.808594 L 371.460938 259.738281 L 344.402344 259.738281 C 342.859375 259.738281 341.617188 258.996094 340.675781 257.503906 C 339.738281 256.015625 339.269531 254.054688 339.269531 251.621094 L 339.269531 216.773438 L 370.796875 216.773438 L 370.796875 223.796875 L 346.722656 223.796875 L 346.722656 235.019531 L 370.464844 235.019531 L 370.464844 242.042969 Z M 375.324219 279.992188 L 334.574219 279.992188 L 334.574219 273.058594 L 375.324219 273.058594 Z M 375.324219 279.992188 "/>
<path style=" stroke:none;fill-rule:nonzero;fill:rgb(13.725281%,9.803772%,8.627319%);fill-opacity:1;" d="M 235.726562 436.988281 L 248.9375 436.988281 L 248.9375 444.578125 L 235.726562 444.578125 L 235.726562 499 L 222.511719 499 L 222.511719 416.320312 L 235.726562 416.320312 Z M 199.8125 442.980469 L 185.035156 442.980469 L 185.035156 461.652344 L 199.8125 461.652344 Z M 185.035156 419.015625 L 185.035156 435.390625 L 199.8125 435.390625 L 199.8125 419.015625 L 213.019531 419.015625 L 213.019531 469.339844 L 181.019531 469.339844 C 178.214844 469.339844 175.980469 468.527344 174.316406 466.894531 C 172.652344 465.265625 171.820312 463.117188 171.820312 460.453125 L 171.820312 419.015625 Z M 185.035156 419.015625 "/>
<path style=" stroke:none;fill-rule:nonzero;fill:rgb(13.725281%,9.803772%,8.627319%);fill-opacity:1;" d="M 324.1875 499 L 310.976562 499 L 310.976562 416.320312 L 324.1875 416.320312 Z M 271.394531 452.714844 C 273.449219 455.679688 275.878906 457.160156 278.683594 457.160156 C 281.421875 457.160156 283.820312 455.660156 285.878906 452.664062 C 287.929688 449.667969 288.957031 445.976562 288.957031 441.582031 C 288.957031 437.253906 287.929688 433.59375 285.878906 430.597656 C 283.820312 427.601562 281.390625 426.105469 278.585938 426.105469 C 275.84375 426.105469 273.449219 427.601562 271.394531 430.597656 C 269.339844 433.59375 268.308594 437.320312 268.308594 441.78125 C 268.308594 446.109375 269.339844 449.753906 271.394531 452.714844 M 295.273438 425.253906 C 299.871094 429.75 302.167969 435.226562 302.167969 441.679688 C 302.167969 448.070312 299.871094 453.515625 295.273438 458.007812 C 290.671875 462.503906 285.109375 464.75 278.585938 464.75 C 272.125 464.75 266.597656 462.503906 262 458.007812 C 257.398438 453.515625 255.097656 448.070312 255.097656 441.679688 C 255.097656 435.226562 257.398438 429.75 262 425.253906 C 266.597656 420.761719 272.125 418.515625 278.585938 418.515625 C 285.109375 418.515625 290.671875 420.761719 295.273438 425.253906 "/>
<path style=" stroke:none;fill-rule:nonzero;fill:rgb(13.725281%,9.803772%,8.627319%);fill-opacity:1;" d="M 361.078125 428.5 C 358.535156 431.628906 357.261719 435.457031 357.261719 439.984375 C 357.261719 444.511719 358.535156 448.339844 361.078125 451.46875 C 363.625 454.597656 366.722656 456.160156 370.375 456.160156 C 374.027344 456.160156 377.128906 454.597656 379.671875 451.46875 C 382.21875 448.339844 383.488281 444.511719 383.488281 439.984375 C 383.488281 435.457031 382.21875 431.628906 379.671875 428.5 C 377.128906 425.371094 374.027344 423.808594 370.375 423.808594 C 366.722656 423.808594 363.625 425.371094 361.078125 428.5 M 406.976562 486.714844 L 333.875 486.714844 L 333.875 479.027344 L 363.820312 479.027344 L 363.820312 463.050781 C 358.078125 461.722656 353.332031 458.90625 349.582031 454.613281 C 345.828125 450.320312 343.953125 445.445312 343.953125 439.984375 C 343.953125 433.394531 346.53125 427.769531 351.683594 423.109375 C 356.839844 418.449219 363.070312 416.117188 370.375 416.117188 C 377.746094 416.117188 383.992188 418.449219 389.117188 423.109375 C 394.238281 427.769531 396.796875 433.394531 396.796875 439.984375 C 396.796875 445.445312 394.9375 450.320312 391.21875 454.613281 C 387.503906 458.90625 382.769531 461.722656 377.03125 463.050781 L 377.03125 479.027344 L 406.976562 479.027344 Z M 406.976562 486.714844 "/>
</g>
</svg>
