<?xml version="1.0" encoding="UTF-8"?>
<svg xmlns="http://www.w3.org/2000/svg" xmlns:xlink="http://www.w3.org/1999/xlink" width="566.929pt" height="566.929pt" viewBox="0 0 566.929 566.929" version="1.2">
<g id="surface1">
<path style=" stroke:none;fill-rule:nonzero;fill:rgb(13.725281%,9.803772%,8.627319%);fill-opacity:1;" d="M 173.554688 436.921875 L 184.144531 436.921875 L 184.144531 444.511719 L 173.554688 444.511719 L 173.554688 498.933594 L 162.960938 498.933594 L 162.960938 416.253906 L 173.554688 416.253906 Z M 144.761719 442.917969 L 132.914062 442.917969 L 132.914062 461.589844 L 144.761719 461.589844 Z M 132.914062 418.949219 L 132.914062 435.324219 L 144.761719 435.324219 L 144.761719 418.949219 L 155.351562 418.949219 L 155.351562 469.273438 L 129.695312 469.273438 C 127.449219 469.273438 125.65625 468.460938 124.324219 466.832031 C 122.988281 465.199219 122.320312 463.050781 122.320312 460.386719 L 122.320312 418.949219 Z M 132.914062 418.949219 "/>
<path style=" stroke:none;fill-rule:nonzero;fill:rgb(13.725281%,9.803772%,8.627319%);fill-opacity:1;" d="M 240.554688 498.933594 L 229.960938 498.933594 L 229.960938 416.253906 L 240.554688 416.253906 Z M 198.226562 452.648438 C 199.875 455.613281 201.820312 457.09375 204.070312 457.09375 C 206.269531 457.09375 208.191406 455.59375 209.835938 452.597656 C 211.484375 449.605469 212.308594 445.910156 212.308594 441.515625 C 212.308594 437.191406 211.484375 433.527344 209.835938 430.53125 C 208.191406 427.539062 206.242188 426.039062 203.996094 426.039062 C 201.796875 426.039062 199.875 427.539062 198.226562 430.53125 C 196.578125 433.527344 195.753906 437.253906 195.753906 441.714844 C 195.753906 446.042969 196.578125 449.6875 198.226562 452.648438 M 217.367188 425.1875 C 221.054688 429.683594 222.902344 435.160156 222.902344 441.617188 C 222.902344 448.007812 221.054688 453.449219 217.367188 457.945312 C 213.679688 462.4375 209.222656 464.683594 203.996094 464.683594 C 198.8125 464.683594 194.382812 462.4375 190.695312 457.945312 C 187.007812 453.449219 185.164062 448.007812 185.164062 441.617188 C 185.164062 435.160156 187.007812 429.683594 190.695312 425.1875 C 194.382812 420.695312 198.8125 418.449219 203.996094 418.449219 C 209.222656 418.449219 213.679688 420.695312 217.367188 425.1875 "/>
<path style=" stroke:none;fill-rule:nonzero;fill:rgb(13.725281%,9.803772%,8.627319%);fill-opacity:1;" d="M 270.128906 428.4375 C 268.089844 431.5625 267.070312 435.394531 267.070312 439.917969 C 267.070312 444.445312 268.089844 448.273438 270.128906 451.402344 C 272.171875 454.53125 274.65625 456.09375 277.582031 456.09375 C 280.511719 456.09375 282.996094 454.53125 285.035156 451.402344 C 287.078125 448.273438 288.097656 444.445312 288.097656 439.917969 C 288.097656 435.394531 287.078125 431.5625 285.035156 428.4375 C 282.996094 425.308594 280.511719 423.742188 277.582031 423.742188 C 274.65625 423.742188 272.171875 425.308594 270.128906 428.4375 M 306.925781 486.652344 L 248.320312 486.652344 L 248.320312 478.960938 L 272.324219 478.960938 L 272.324219 462.984375 C 267.722656 461.652344 263.917969 458.84375 260.914062 454.546875 C 257.902344 450.253906 256.398438 445.378906 256.398438 439.917969 C 256.398438 433.328125 258.464844 427.703125 262.597656 423.039062 C 266.726562 418.382812 271.722656 416.050781 277.582031 416.050781 C 283.492188 416.050781 288.5 418.382812 292.605469 423.039062 C 296.714844 427.703125 298.769531 433.328125 298.769531 439.917969 C 298.769531 445.378906 297.273438 450.253906 294.292969 454.546875 C 291.3125 458.84375 287.519531 461.652344 282.917969 462.984375 L 282.917969 478.960938 L 306.925781 478.960938 Z M 306.925781 486.652344 "/>
<path style=" stroke:none;fill-rule:nonzero;fill:rgb(0%,35.68573%,67.451477%);fill-opacity:1;" d="M 418.105469 363.269531 L 447.8125 311.855469 C 452.539062 303.648438 449.730469 293.171875 441.527344 288.429688 C 433.3125 283.710938 422.863281 286.519531 418.105469 294.707031 L 398.332031 328.972656 L 195.769531 328.972656 L 267.660156 391.210938 C 274.804688 397.421875 285.628906 396.621094 291.835938 389.464844 C 294.636719 386.21875 296.03125 382.238281 296.03125 378.273438 C 296.03125 373.464844 294.019531 368.683594 290.085938 365.292969 C 290.085938 365.292969 288.019531 363.515625 287.75 363.269531 Z M 418.105469 363.269531 "/>
<path style=" stroke:none;fill-rule:nonzero;fill:rgb(0%,35.68573%,67.451477%);fill-opacity:1;" d="M 257.609375 119.1875 L 167.777344 150.320312 C 158.851562 153.417969 154.113281 163.191406 157.203125 172.128906 C 158.621094 176.171875 161.382812 179.355469 164.8125 181.347656 C 168.988281 183.765625 174.121094 184.421875 179.015625 182.730469 C 179.015625 182.730469 181.589844 181.832031 181.9375 181.714844 L 116.75 294.59375 L 146.421875 346.015625 C 151.1875 354.238281 161.65625 357.03125 169.851562 352.289062 C 178.046875 347.574219 180.859375 337.078125 176.136719 328.882812 L 156.335938 294.59375 Z M 257.609375 119.1875 "/>
<path style=" stroke:none;fill-rule:nonzero;fill:rgb(0%,35.68573%,67.451477%);fill-opacity:1;" d="M 326.78125 67.921875 L 267.414062 67.921875 C 257.902344 67.921875 250.25 75.578125 250.25 85.050781 C 250.25 94.519531 257.902344 102.191406 267.414062 102.191406 L 306.972656 102.191406 L 408.246094 277.609375 L 426.210938 184.257812 C 428.007812 174.949219 421.910156 165.964844 412.609375 164.179688 C 408.394531 163.378906 404.25 164.179688 400.820312 166.160156 C 396.652344 168.574219 393.511719 172.6875 392.535156 177.757812 C 392.535156 177.757812 392.039062 180.441406 391.96875 180.804688 Z M 326.78125 67.921875 "/>
<path style=" stroke:none;fill-rule:nonzero;fill:rgb(13.725281%,9.803772%,8.627319%);fill-opacity:1;" d="M 328.363281 278.855469 L 287.515625 278.855469 L 287.515625 272.3125 L 328.363281 272.3125 Z M 328.363281 278.855469 "/>
<path style=" stroke:none;fill-rule:nonzero;fill:rgb(13.725281%,9.803772%,8.627319%);fill-opacity:1;" d="M 215.300781 278.3125 L 238.417969 278.3125 L 238.417969 259.75 L 207.417969 259.75 L 207.417969 266.296875 L 231.050781 266.296875 L 231.050781 271.761719 L 207.90625 271.761719 L 207.90625 284.035156 C 207.90625 288.554688 209.730469 290.550781 213.0625 290.550781 L 239.289062 290.550781 L 239.289062 284.003906 L 215.300781 284.003906 Z M 215.300781 278.3125 "/>
<path style=" stroke:none;fill-rule:nonzero;fill:rgb(13.725281%,9.803772%,8.627319%);fill-opacity:1;" d="M 226.300781 235.59375 L 218.929688 235.59375 L 218.929688 222.214844 L 226.300781 222.214844 Z M 239.507812 235.59375 L 233.695312 235.59375 L 233.695312 222.214844 L 239.019531 222.214844 L 239.019531 215.574219 L 206.210938 215.574219 L 206.210938 222.214844 L 211.566406 222.214844 L 211.566406 235.59375 L 205.726562 235.59375 L 205.726562 242.191406 L 239.507812 242.191406 Z M 239.507812 235.59375 "/>
<path style=" stroke:none;fill-rule:nonzero;fill:rgb(13.725281%,9.803772%,8.627319%);fill-opacity:1;" d="M 201.742188 254.015625 L 243.554688 254.015625 L 243.554688 247.46875 L 201.742188 247.46875 Z M 201.742188 254.015625 "/>
<path style=" stroke:none;fill-rule:nonzero;fill:rgb(13.725281%,9.803772%,8.627319%);fill-opacity:1;" d="M 266.691406 263.84375 C 270.679688 263.84375 273.539062 262.046875 274.515625 261.207031 L 274.515625 290.550781 L 281.886719 290.550781 L 281.886719 239.679688 L 289.28125 239.679688 L 289.28125 233.136719 L 281.886719 233.136719 L 281.886719 215.117188 L 274.515625 215.117188 L 274.515625 255.382812 C 273.648438 255.929688 270.742188 257.296875 267.125 257.296875 L 253.859375 257.296875 L 253.859375 242.371094 L 269.3125 242.371094 L 269.3125 216.285156 L 245.972656 216.285156 L 245.972656 222.832031 L 261.941406 222.832031 L 261.941406 235.769531 L 246.46875 235.769531 L 246.46875 257.328125 C 246.46875 261.847656 248.285156 263.84375 251.625 263.84375 Z M 266.691406 263.84375 "/>
<path style=" stroke:none;fill-rule:nonzero;fill:rgb(13.725281%,9.803772%,8.627319%);fill-opacity:1;" d="M 311.636719 225.496094 L 311.636719 215.398438 L 304.1875 215.398438 L 304.1875 225.496094 C 304.1875 233.148438 302.164062 246.167969 288.058594 251.5625 L 291.359375 256.652344 C 296.332031 255.335938 304.066406 250.71875 307.898438 243.847656 C 311.761719 250.71875 319.492188 255.335938 324.460938 256.652344 L 327.738281 251.5625 C 313.652344 246.167969 311.636719 233.148438 311.636719 225.496094 "/>
<path style=" stroke:none;fill-rule:nonzero;fill:rgb(13.725281%,9.803772%,8.627319%);fill-opacity:1;" d="M 331.417969 248.324219 C 331.417969 252.839844 333.242188 254.832031 336.554688 254.832031 L 352.734375 254.832031 C 356.695312 254.832031 359.554688 253.046875 360.539062 252.199219 L 360.539062 257.296875 L 367.933594 257.296875 L 367.933594 215.117188 L 360.539062 215.117188 L 360.539062 246.371094 C 359.664062 246.921875 356.765625 248.292969 353.167969 248.292969 L 338.789062 248.292969 L 338.789062 238.582031 L 354.371094 238.582031 L 354.371094 232.035156 L 338.789062 232.035156 L 338.789062 222.832031 L 354.640625 222.832031 L 354.640625 216.285156 L 331.417969 216.285156 Z M 331.417969 248.324219 "/>
<path style=" stroke:none;fill-rule:nonzero;fill:rgb(13.725281%,9.803772%,8.627319%);fill-opacity:1;" d="M 334.703125 268.851562 L 360.539062 268.851562 L 360.539062 290.550781 L 367.9375 290.550781 L 367.9375 262.296875 L 334.703125 262.296875 Z M 334.703125 268.851562 "/>
<path style=" stroke:none;fill-rule:nonzero;fill:rgb(13.725281%,9.803772%,8.627319%);fill-opacity:1;" d="M 323.941406 453.476562 C 325.242188 453.914062 326.976562 454.023438 329.144531 454.023438 C 337.121094 454.023438 341.980469 449.128906 341.980469 440.542969 C 341.980469 432.390625 337.46875 428.042969 330.097656 428.042969 C 327.148438 428.042969 325.066406 428.367188 323.941406 428.691406 Z M 313.359375 419.34375 C 317.175781 418.476562 322.464844 417.820312 329.664062 417.820312 C 337.46875 417.820312 343.195312 419.886719 346.921875 423.800781 C 350.394531 427.386719 352.644531 433.152344 352.644531 440 C 352.644531 446.957031 350.910156 452.714844 347.617188 456.632812 C 343.367188 461.957031 336.6875 464.457031 329.144531 464.457031 C 327.148438 464.457031 325.328125 464.347656 323.941406 464.019531 L 323.941406 491.632812 L 313.359375 491.632812 Z M 313.359375 419.34375 "/>
<path style=" stroke:none;fill-rule:nonzero;fill:rgb(13.725281%,9.803772%,8.627319%);fill-opacity:1;" d="M 394.535156 459.128906 L 372.507812 459.128906 L 372.507812 480.65625 L 397.136719 480.65625 L 397.136719 491.632812 L 361.84375 491.632812 L 361.84375 418.367188 L 395.835938 418.367188 L 395.835938 429.347656 L 372.507812 429.347656 L 372.507812 448.257812 L 394.535156 448.257812 Z M 394.535156 459.128906 "/>
<path style=" stroke:none;fill-rule:nonzero;fill:rgb(13.725281%,9.803772%,8.627319%);fill-opacity:1;" d="M 404.980469 418.367188 L 450.105469 418.367188 L 450.105469 429.449219 L 432.382812 429.449219 L 432.382812 491.632812 L 422.625 491.632812 L 422.625 429.449219 L 404.980469 429.449219 Z M 404.980469 418.367188 "/>
</g>
</svg>
