<?xml version="1.0" encoding="UTF-8"?>
<svg xmlns="http://www.w3.org/2000/svg" xmlns:xlink="http://www.w3.org/1999/xlink" width="566.929pt" height="566.929pt" viewBox="0 0 566.929 566.929" version="1.2">
<g id="surface1">
<path style=" stroke:none;fill-rule:nonzero;fill:rgb(13.725281%,9.803772%,8.627319%);fill-opacity:1;" d="M 246.003906 457.964844 C 247.632812 458.394531 249.808594 458.507812 252.523438 458.507812 C 262.527344 458.507812 268.613281 453.613281 268.613281 445.027344 C 268.613281 436.875 262.960938 432.527344 253.722656 432.527344 C 250.027344 432.527344 247.417969 432.851562 246.003906 433.179688 Z M 232.742188 423.832031 C 237.523438 422.960938 244.15625 422.308594 253.179688 422.308594 C 262.960938 422.308594 270.136719 424.371094 274.808594 428.285156 C 279.15625 431.875 281.984375 437.636719 281.984375 444.480469 C 281.984375 451.4375 279.8125 457.203125 275.679688 461.117188 C 270.355469 466.441406 261.984375 468.945312 252.523438 468.945312 C 250.027344 468.945312 247.742188 468.832031 246.003906 468.507812 L 246.003906 496.121094 L 232.742188 496.121094 Z M 232.742188 423.832031 "/>
<path style=" stroke:none;fill-rule:nonzero;fill:rgb(13.725281%,9.803772%,8.627319%);fill-opacity:1;" d="M 306.773438 457.964844 C 308.40625 458.394531 310.578125 458.507812 313.296875 458.507812 C 323.296875 458.507812 329.382812 453.613281 329.382812 445.027344 C 329.382812 436.875 323.730469 432.527344 314.492188 432.527344 C 310.796875 432.527344 308.1875 432.851562 306.773438 433.179688 Z M 293.511719 423.832031 C 298.296875 422.960938 304.925781 422.308594 313.949219 422.308594 C 323.730469 422.308594 330.910156 424.371094 335.582031 428.285156 C 339.929688 431.875 342.757812 437.636719 342.757812 444.480469 C 342.757812 451.4375 340.582031 457.203125 336.449219 461.117188 C 331.125 466.441406 322.753906 468.945312 313.296875 468.945312 C 310.796875 468.945312 308.511719 468.832031 306.773438 468.507812 L 306.773438 496.121094 L 293.511719 496.121094 Z M 293.511719 423.832031 "/>
<path style=" stroke:none;fill-rule:nonzero;fill:rgb(13.725281%,9.803772%,8.627319%);fill-opacity:1;" d="M 328.992188 282.171875 L 288.101562 282.171875 L 288.101562 275.609375 L 328.992188 275.609375 Z M 328.992188 282.171875 "/>
<path style=" stroke:none;fill-rule:nonzero;fill:rgb(13.725281%,9.803772%,8.627319%);fill-opacity:1;" d="M 215.773438 281.636719 L 238.929688 281.636719 L 238.929688 263.019531 L 207.890625 263.019531 L 207.890625 269.582031 L 231.542969 269.582031 L 231.542969 275.050781 L 208.386719 275.050781 L 208.386719 287.320312 C 208.386719 291.855469 210.207031 293.851562 213.527344 293.851562 L 239.808594 293.851562 L 239.808594 287.285156 L 215.773438 287.285156 Z M 215.773438 281.636719 "/>
<path style=" stroke:none;fill-rule:nonzero;fill:rgb(13.725281%,9.803772%,8.627319%);fill-opacity:1;" d="M 226.800781 238.847656 L 219.417969 238.847656 L 219.417969 225.433594 L 226.800781 225.433594 Z M 240.023438 238.847656 L 234.1875 238.847656 L 234.1875 225.433594 L 239.527344 225.433594 L 239.527344 218.773438 L 206.679688 218.773438 L 206.679688 225.433594 L 212.023438 225.433594 L 212.023438 238.847656 L 206.1875 238.847656 L 206.1875 245.410156 L 240.023438 245.410156 Z M 240.023438 238.847656 "/>
<path style=" stroke:none;fill-rule:nonzero;fill:rgb(13.725281%,9.803772%,8.627319%);fill-opacity:1;" d="M 202.203125 257.269531 L 244.070312 257.269531 L 244.070312 250.703125 L 202.203125 250.703125 Z M 202.203125 257.269531 "/>
<path style=" stroke:none;fill-rule:nonzero;fill:rgb(13.725281%,9.803772%,8.627319%);fill-opacity:1;" d="M 267.25 267.117188 C 271.226562 267.117188 274.09375 265.332031 275.078125 264.476562 L 275.078125 293.851562 L 282.460938 293.851562 L 282.460938 242.953125 L 289.855469 242.953125 L 289.855469 236.378906 L 282.460938 236.378906 L 282.460938 218.320312 L 275.078125 218.320312 L 275.078125 258.636719 C 274.207031 259.183594 271.277344 260.554688 267.683594 260.554688 L 254.386719 260.554688 L 254.386719 245.597656 L 269.882812 245.597656 L 269.882812 219.488281 L 246.511719 219.488281 L 246.511719 226.054688 L 262.488281 226.054688 L 262.488281 239.019531 L 246.988281 239.019531 L 246.988281 260.589844 C 246.988281 265.128906 248.820312 267.117188 252.144531 267.117188 Z M 267.25 267.117188 "/>
<path style=" stroke:none;fill-rule:nonzero;fill:rgb(13.725281%,9.803772%,8.627319%);fill-opacity:1;" d="M 312.238281 228.71875 L 312.238281 218.589844 L 304.796875 218.589844 L 304.796875 228.71875 C 304.796875 236.390625 302.773438 249.40625 288.648438 254.808594 L 291.929688 259.914062 C 296.925781 258.585938 304.671875 253.964844 308.515625 247.082031 C 312.363281 253.964844 320.117188 258.585938 325.101562 259.914062 L 328.390625 254.808594 C 314.265625 249.40625 312.238281 236.390625 312.238281 228.71875 "/>
<path style=" stroke:none;fill-rule:nonzero;fill:rgb(13.725281%,9.803772%,8.627319%);fill-opacity:1;" d="M 332.058594 251.554688 C 332.058594 256.085938 333.882812 258.09375 337.203125 258.09375 L 353.402344 258.09375 C 357.378906 258.09375 360.246094 256.300781 361.234375 255.449219 L 361.234375 260.554688 L 368.628906 260.554688 L 368.628906 218.320312 L 361.234375 218.320312 L 361.234375 249.605469 C 360.355469 250.160156 357.433594 251.527344 353.839844 251.527344 L 339.449219 251.527344 L 339.449219 241.839844 L 355.046875 241.839844 L 355.046875 235.265625 L 339.449219 235.265625 L 339.449219 226.054688 L 355.316406 226.054688 L 355.316406 219.488281 L 332.058594 219.488281 Z M 332.058594 251.554688 "/>
<path style=" stroke:none;fill-rule:nonzero;fill:rgb(13.725281%,9.803772%,8.627319%);fill-opacity:1;" d="M 335.34375 272.132812 L 361.234375 272.132812 L 361.234375 293.851562 L 368.628906 293.851562 L 368.628906 265.566406 L 335.34375 265.566406 Z M 335.34375 272.132812 "/>
<path style=" stroke:none;fill-rule:nonzero;fill:rgb(0%,35.68573%,67.451477%);fill-opacity:1;" d="M 418.367188 366.675781 L 448.121094 315.152344 C 452.875 306.941406 450.042969 296.441406 441.839844 291.707031 C 433.605469 286.972656 423.125 289.765625 418.367188 297.976562 L 398.558594 332.332031 L 195.609375 332.332031 L 267.625 394.671875 C 274.789062 400.894531 285.640625 400.113281 291.859375 392.933594 C 294.660156 389.691406 296.050781 385.6875 296.050781 381.703125 C 296.050781 376.890625 294.042969 372.097656 290.097656 368.714844 C 290.097656 368.714844 288.035156 366.914062 287.761719 366.675781 Z M 418.367188 366.675781 "/>
<path style=" stroke:none;fill-rule:nonzero;fill:rgb(0%,35.68573%,67.451477%);fill-opacity:1;" d="M 257.570312 122.128906 L 167.558594 153.332031 C 158.617188 156.445312 153.871094 166.210938 156.972656 175.171875 C 158.390625 179.226562 161.152344 182.421875 164.59375 184.421875 C 168.769531 186.824219 173.917969 187.476562 178.824219 185.78125 C 178.824219 185.78125 181.410156 184.875 181.742188 184.765625 L 116.429688 297.882812 L 146.167969 349.398438 C 150.9375 357.628906 161.417969 360.429688 169.640625 355.679688 C 177.851562 350.960938 180.667969 340.445312 175.933594 332.242188 L 156.09375 297.882812 Z M 257.570312 122.128906 "/>
<path style=" stroke:none;fill-rule:nonzero;fill:rgb(0%,35.68573%,67.451477%);fill-opacity:1;" d="M 326.878906 70.738281 L 267.378906 70.738281 C 257.871094 70.738281 250.195312 78.433594 250.195312 87.933594 C 250.195312 97.40625 257.871094 105.113281 267.378906 105.113281 L 307.03125 105.113281 L 408.492188 280.851562 L 426.488281 187.320312 C 428.28125 177.996094 422.183594 168.996094 412.863281 167.207031 C 408.632812 166.410156 404.484375 167.207031 401.039062 169.199219 C 396.871094 171.605469 393.722656 175.734375 392.753906 180.8125 C 392.753906 180.8125 392.246094 183.519531 392.171875 183.878906 Z M 326.878906 70.738281 "/>
</g>
</svg>
