<?xml version="1.0" encoding="UTF-8"?>
<svg xmlns="http://www.w3.org/2000/svg" xmlns:xlink="http://www.w3.org/1999/xlink" width="566.929pt" height="566.929pt" viewBox="0 0 566.929 566.929" version="1.2">
<g id="surface1">
<path style=" stroke:none;fill-rule:nonzero;fill:rgb(0%,35.68573%,67.451477%);fill-opacity:1;" d="M 418.105469 367.714844 L 447.8125 316.300781 C 452.539062 308.089844 449.730469 297.617188 441.53125 292.875 C 433.3125 288.15625 422.863281 290.960938 418.105469 299.152344 L 398.335938 333.417969 L 195.769531 333.417969 L 267.664062 395.65625 C 274.804688 401.867188 285.632812 401.066406 291.835938 393.910156 C 294.636719 390.664062 296.03125 386.683594 296.03125 382.71875 C 296.03125 377.910156 294.019531 373.128906 290.085938 369.738281 C 290.085938 369.738281 288.023438 367.960938 287.75 367.714844 Z M 418.105469 367.714844 "/>
<path style=" stroke:none;fill-rule:nonzero;fill:rgb(0%,35.68573%,67.451477%);fill-opacity:1;" d="M 257.609375 123.628906 L 167.777344 154.765625 C 158.851562 157.863281 154.113281 167.636719 157.203125 176.570312 C 158.625 180.617188 161.382812 183.800781 164.8125 185.792969 C 168.988281 188.210938 174.125 188.867188 179.015625 187.175781 C 179.015625 187.175781 181.589844 186.277344 181.9375 186.160156 L 116.75 299.039062 L 146.421875 350.460938 C 151.191406 358.679688 161.65625 361.476562 169.855469 356.734375 C 178.046875 352.019531 180.859375 341.523438 176.136719 333.328125 L 156.335938 299.039062 Z M 257.609375 123.628906 "/>
<path style=" stroke:none;fill-rule:nonzero;fill:rgb(0%,35.68573%,67.451477%);fill-opacity:1;" d="M 326.78125 72.367188 L 267.414062 72.367188 C 257.90625 72.367188 250.253906 80.023438 250.253906 89.496094 C 250.253906 98.964844 257.90625 106.636719 267.414062 106.636719 L 306.972656 106.636719 L 408.246094 282.054688 L 426.210938 188.703125 C 428.007812 179.394531 421.910156 170.410156 412.613281 168.625 C 408.394531 167.824219 404.25 168.625 400.824219 170.601562 C 396.652344 173.019531 393.515625 177.128906 392.539062 182.203125 C 392.539062 182.203125 392.042969 184.886719 391.972656 185.25 Z M 326.78125 72.367188 "/>
<path style=" stroke:none;fill-rule:nonzero;fill:rgb(13.725281%,9.803772%,8.627319%);fill-opacity:1;" d="M 328.363281 283.300781 L 287.515625 283.300781 L 287.515625 276.753906 L 328.363281 276.753906 Z M 328.363281 283.300781 "/>
<path style=" stroke:none;fill-rule:nonzero;fill:rgb(13.725281%,9.803772%,8.627319%);fill-opacity:1;" d="M 215.304688 282.757812 L 238.417969 282.757812 L 238.417969 264.195312 L 207.417969 264.195312 L 207.417969 270.738281 L 231.050781 270.738281 L 231.050781 276.207031 L 207.910156 276.207031 L 207.910156 288.480469 C 207.910156 293 209.730469 294.992188 213.0625 294.992188 L 239.292969 294.992188 L 239.292969 288.449219 L 215.304688 288.449219 Z M 215.304688 282.757812 "/>
<path style=" stroke:none;fill-rule:nonzero;fill:rgb(13.725281%,9.803772%,8.627319%);fill-opacity:1;" d="M 226.300781 240.039062 L 218.929688 240.039062 L 218.929688 226.65625 L 226.300781 226.65625 Z M 239.511719 240.039062 L 233.695312 240.039062 L 233.695312 226.65625 L 239.023438 226.65625 L 239.023438 220.015625 L 206.214844 220.015625 L 206.214844 226.65625 L 211.566406 226.65625 L 211.566406 240.039062 L 205.726562 240.039062 L 205.726562 246.636719 L 239.511719 246.636719 Z M 239.511719 240.039062 "/>
<path style=" stroke:none;fill-rule:nonzero;fill:rgb(13.725281%,9.803772%,8.627319%);fill-opacity:1;" d="M 201.742188 258.460938 L 243.554688 258.460938 L 243.554688 251.914062 L 201.742188 251.914062 Z M 201.742188 258.460938 "/>
<path style=" stroke:none;fill-rule:nonzero;fill:rgb(13.725281%,9.803772%,8.627319%);fill-opacity:1;" d="M 266.695312 268.289062 C 270.679688 268.289062 273.542969 266.492188 274.519531 265.652344 L 274.519531 294.992188 L 281.890625 294.992188 L 281.890625 244.125 L 289.28125 244.125 L 289.28125 237.582031 L 281.890625 237.582031 L 281.890625 219.558594 L 274.519531 219.558594 L 274.519531 259.828125 C 273.652344 260.375 270.742188 261.742188 267.125 261.742188 L 253.859375 261.742188 L 253.859375 246.816406 L 269.3125 246.816406 L 269.3125 220.730469 L 245.972656 220.730469 L 245.972656 227.273438 L 261.941406 227.273438 L 261.941406 240.214844 L 246.46875 240.214844 L 246.46875 261.769531 C 246.46875 266.292969 248.289062 268.289062 251.625 268.289062 Z M 266.695312 268.289062 "/>
<path style=" stroke:none;fill-rule:nonzero;fill:rgb(13.725281%,9.803772%,8.627319%);fill-opacity:1;" d="M 311.636719 229.941406 L 311.636719 219.839844 L 304.1875 219.839844 L 304.1875 229.941406 C 304.1875 237.59375 302.164062 250.613281 288.058594 256.007812 L 291.363281 261.09375 C 296.332031 259.777344 304.066406 255.164062 307.902344 248.292969 C 311.761719 255.164062 319.492188 259.777344 324.464844 261.09375 L 327.738281 256.007812 C 313.65625 250.613281 311.636719 237.59375 311.636719 229.941406 "/>
<path style=" stroke:none;fill-rule:nonzero;fill:rgb(13.725281%,9.803772%,8.627319%);fill-opacity:1;" d="M 331.417969 252.769531 C 331.417969 257.285156 333.242188 259.277344 336.554688 259.277344 L 352.734375 259.277344 C 356.699219 259.277344 359.554688 257.492188 360.539062 256.644531 L 360.539062 261.742188 L 367.9375 261.742188 L 367.9375 219.5625 L 360.539062 219.5625 L 360.539062 250.816406 C 359.667969 251.363281 356.769531 252.738281 353.167969 252.738281 L 338.789062 252.738281 L 338.789062 243.023438 L 354.371094 243.023438 L 354.371094 236.480469 L 338.789062 236.480469 L 338.789062 227.273438 L 354.640625 227.273438 L 354.640625 220.730469 L 331.417969 220.730469 Z M 331.417969 252.769531 "/>
<path style=" stroke:none;fill-rule:nonzero;fill:rgb(13.725281%,9.803772%,8.627319%);fill-opacity:1;" d="M 334.703125 273.296875 L 360.539062 273.296875 L 360.539062 294.996094 L 367.9375 294.996094 L 367.9375 266.742188 L 334.703125 266.742188 Z M 334.703125 273.296875 "/>
<path style=" stroke:none;fill-rule:nonzero;fill:rgb(13.725281%,9.803772%,8.627319%);fill-opacity:1;" d="M 210.988281 458.34375 C 212.617188 458.777344 214.792969 458.886719 217.507812 458.886719 C 227.511719 458.886719 233.597656 453.996094 233.597656 445.40625 C 233.597656 437.253906 227.945312 432.90625 218.707031 432.90625 C 215.007812 432.90625 212.398438 433.230469 210.988281 433.558594 Z M 197.726562 424.210938 C 202.507812 423.339844 209.140625 422.6875 218.164062 422.6875 C 227.945312 422.6875 235.121094 424.753906 239.796875 428.667969 C 244.144531 432.253906 246.96875 438.015625 246.96875 444.863281 C 246.96875 451.820312 244.796875 457.582031 240.664062 461.496094 C 235.339844 466.824219 226.96875 469.324219 217.507812 469.324219 C 215.007812 469.324219 212.726562 469.214844 210.988281 468.886719 L 210.988281 496.5 L 197.726562 496.5 Z M 197.726562 424.210938 "/>
<path style=" stroke:none;fill-rule:nonzero;fill:rgb(13.725281%,9.803772%,8.627319%);fill-opacity:1;" d="M 299.480469 463.996094 L 271.867188 463.996094 L 271.867188 485.519531 L 302.738281 485.519531 L 302.738281 496.5 L 258.496094 496.5 L 258.496094 423.230469 L 301.109375 423.230469 L 301.109375 434.210938 L 271.867188 434.210938 L 271.867188 453.125 L 299.480469 453.125 Z M 299.480469 463.996094 "/>
<path style=" stroke:none;fill-rule:nonzero;fill:rgb(13.725281%,9.803772%,8.627319%);fill-opacity:1;" d="M 312.570312 423.230469 L 369.132812 423.230469 L 369.132812 434.316406 L 346.917969 434.316406 L 346.917969 496.5 L 334.6875 496.5 L 334.6875 434.316406 L 312.570312 434.316406 Z M 312.570312 423.230469 "/>
</g>
</svg>
