<?xml version="1.0" encoding="UTF-8"?>
<svg xmlns="http://www.w3.org/2000/svg" xmlns:xlink="http://www.w3.org/1999/xlink" width="566.929pt" height="566.929pt" viewBox="0 0 566.929 566.929" version="1.2">
<g id="surface1">
<path style=" stroke:none;fill-rule:nonzero;fill:rgb(13.725281%,9.803772%,8.627319%);fill-opacity:1;" d="M 246.003906 458.089844 C 247.632812 458.523438 249.808594 458.636719 252.523438 458.636719 C 262.527344 458.636719 268.613281 453.742188 268.613281 445.152344 C 268.613281 437.003906 262.960938 432.65625 253.722656 432.65625 C 250.027344 432.65625 247.417969 432.980469 246.003906 433.308594 Z M 232.742188 423.957031 C 237.523438 423.089844 244.15625 422.433594 253.179688 422.433594 C 262.960938 422.433594 270.136719 424.5 274.808594 428.414062 C 279.15625 432 281.984375 437.765625 281.984375 444.609375 C 281.984375 451.566406 279.8125 457.328125 275.679688 461.246094 C 270.355469 466.570312 261.984375 469.070312 252.523438 469.070312 C 250.027344 469.070312 247.742188 468.960938 246.003906 468.632812 L 246.003906 496.246094 L 232.742188 496.246094 Z M 232.742188 423.957031 "/>
<path style=" stroke:none;fill-rule:nonzero;fill:rgb(13.725281%,9.803772%,8.627319%);fill-opacity:1;" d="M 306.773438 458.089844 C 308.40625 458.523438 310.578125 458.636719 313.296875 458.636719 C 323.296875 458.636719 329.382812 453.742188 329.382812 445.152344 C 329.382812 437.003906 323.730469 432.65625 314.492188 432.65625 C 310.796875 432.65625 308.1875 432.980469 306.773438 433.308594 Z M 293.511719 423.957031 C 298.296875 423.089844 304.925781 422.433594 313.949219 422.433594 C 323.730469 422.433594 330.910156 424.5 335.582031 428.414062 C 339.929688 432 342.757812 437.765625 342.757812 444.609375 C 342.757812 451.566406 340.582031 457.328125 336.449219 461.246094 C 331.125 466.570312 322.753906 469.070312 313.296875 469.070312 C 310.796875 469.070312 308.511719 468.960938 306.773438 468.632812 L 306.773438 496.246094 L 293.511719 496.246094 Z M 293.511719 423.957031 "/>
<path style=" stroke:none;fill-rule:nonzero;fill:rgb(45.097351%,25.097656%,58.432007%);fill-opacity:1;" d="M 418.390625 366.519531 L 448.117188 315.015625 C 452.867188 306.792969 450.054688 296.289062 441.839844 291.550781 C 433.632812 286.816406 423.125 289.617188 418.390625 297.828125 L 398.542969 332.175781 L 195.628906 332.175781 L 267.621094 394.523438 C 274.800781 400.734375 285.644531 399.945312 291.855469 392.773438 C 294.667969 389.535156 296.035156 385.535156 296.035156 381.535156 C 296.035156 376.730469 294.054688 371.945312 290.105469 368.550781 C 290.105469 368.550781 288.046875 366.753906 287.765625 366.519531 Z M 418.390625 366.519531 "/>
<path style=" stroke:none;fill-rule:nonzero;fill:rgb(45.097351%,25.097656%,58.432007%);fill-opacity:1;" d="M 257.578125 121.976562 L 167.5625 153.179688 C 158.621094 156.277344 153.867188 166.0625 156.988281 175.023438 C 158.390625 179.082031 161.171875 182.265625 164.621094 184.253906 C 168.777344 186.667969 173.9375 187.3125 178.84375 185.625 C 178.84375 185.625 181.414062 184.734375 181.761719 184.609375 L 116.429688 297.714844 L 146.1875 349.246094 C 150.925781 357.453125 161.433594 360.277344 169.644531 355.542969 C 177.871094 350.777344 180.679688 340.300781 175.953125 332.082031 L 156.113281 297.714844 Z M 257.578125 121.976562 "/>
<path style=" stroke:none;fill-rule:nonzero;fill:rgb(45.097351%,25.097656%,58.432007%);fill-opacity:1;" d="M 326.875 70.609375 L 267.375 70.609375 C 257.878906 70.609375 250.207031 78.296875 250.207031 87.769531 C 250.207031 97.261719 257.878906 104.957031 267.375 104.957031 L 307.042969 104.957031 L 408.511719 280.679688 L 426.492188 187.164062 C 428.28125 177.84375 422.191406 168.84375 412.867188 167.042969 C 408.660156 166.238281 404.5 167.042969 401.054688 169.027344 C 396.875 171.449219 393.738281 175.578125 392.753906 180.675781 C 392.753906 180.675781 392.253906 183.359375 392.179688 183.71875 Z M 326.875 70.609375 "/>
<path style=" stroke:none;fill-rule:nonzero;fill:rgb(13.725281%,9.803772%,8.627319%);fill-opacity:1;" d="M 256.324219 294 L 247.09375 294 L 247.09375 213.171875 L 256.324219 213.171875 Z M 256.324219 294 "/>
<path style=" stroke:none;fill-rule:nonzero;fill:rgb(13.725281%,9.803772%,8.627319%);fill-opacity:1;" d="M 218.953125 238.265625 L 230.082031 238.265625 L 230.082031 258.171875 L 218.953125 258.171875 Z M 230.082031 214.425781 L 230.082031 231.4375 L 218.953125 231.4375 L 218.953125 214.425781 L 209.71875 214.425781 L 209.71875 257.929688 C 209.71875 262.195312 211.003906 265.007812 216.132812 265.007812 L 239.308594 265.007812 L 239.308594 214.425781 Z M 230.082031 214.425781 "/>
<path style=" stroke:none;fill-rule:nonzero;fill:rgb(13.725281%,9.803772%,8.627319%);fill-opacity:1;" d="M 272.113281 286.929688 C 272.113281 291.183594 273.386719 294 278.507812 294 L 310.65625 294 L 310.65625 287.167969 L 281.332031 287.167969 L 281.332031 278.46875 L 310.65625 278.46875 L 310.65625 256.605469 L 272.113281 256.605469 L 272.113281 263.445312 L 301.421875 263.445312 L 301.421875 271.644531 L 272.113281 271.644531 Z M 272.113281 286.929688 "/>
<path style=" stroke:none;fill-rule:nonzero;fill:rgb(13.725281%,9.803772%,8.627319%);fill-opacity:1;" d="M 323.65625 245.148438 C 323.65625 249.402344 324.949219 252.214844 330.070312 252.214844 L 364.121094 252.214844 L 364.121094 245.390625 L 332.886719 245.390625 L 332.886719 236.683594 L 363.167969 236.683594 L 363.167969 214.050781 L 323.65625 214.050781 L 323.65625 220.875 L 353.933594 220.875 L 353.933594 229.863281 L 323.65625 229.863281 Z M 323.65625 245.148438 "/>
<path style=" stroke:none;fill-rule:nonzero;fill:rgb(13.725281%,9.803772%,8.627319%);fill-opacity:1;" d="M 369.785156 259.34375 L 317.507812 259.34375 L 317.507812 266.175781 L 329.203125 266.175781 L 329.203125 294 L 338.421875 294 L 338.421875 266.175781 L 348.878906 266.175781 L 348.878906 294 L 358.105469 294 L 358.105469 266.175781 L 369.785156 266.175781 Z M 369.785156 259.34375 "/>
<path style=" stroke:none;fill-rule:nonzero;fill:rgb(13.725281%,9.803772%,8.627319%);fill-opacity:1;" d="M 301.421875 213.171875 L 301.421875 239.875 C 299.820312 240.679688 297.007812 241.578125 293.4375 241.578125 L 274.703125 241.578125 L 274.703125 213.558594 L 265.476562 213.558594 L 265.476562 241.335938 C 265.476562 245.597656 266.761719 248.414062 271.878906 248.414062 L 291.941406 248.414062 C 295.90625 248.414062 298.882812 247.214844 301.421875 245.820312 L 301.421875 250.988281 L 310.65625 250.988281 L 310.65625 213.171875 Z M 301.421875 213.171875 "/>
</g>
</svg>
