<?xml version="1.0" encoding="UTF-8"?>
<svg xmlns="http://www.w3.org/2000/svg" xmlns:xlink="http://www.w3.org/1999/xlink" width="566.929pt" height="566.929pt" viewBox="0 0 566.929 566.929" version="1.2">
<g id="surface1">
<path style=" stroke:none;fill-rule:nonzero;fill:rgb(13.725281%,9.803772%,8.627319%);fill-opacity:1;" d="M 184.644531 437.007812 L 196.859375 437.007812 L 196.859375 444.597656 L 184.644531 444.597656 L 184.644531 499.019531 L 172.433594 499.019531 L 172.433594 416.335938 L 184.644531 416.335938 Z M 151.441406 443 L 137.78125 443 L 137.78125 461.671875 L 151.441406 461.671875 Z M 137.78125 419.03125 L 137.78125 435.410156 L 151.441406 435.410156 L 151.441406 419.03125 L 163.65625 419.03125 L 163.65625 469.359375 L 134.074219 469.359375 C 131.476562 469.359375 129.410156 468.542969 127.875 466.914062 C 126.339844 465.285156 125.570312 463.136719 125.570312 460.472656 L 125.570312 419.03125 Z M 137.78125 419.03125 "/>
<path style=" stroke:none;fill-rule:nonzero;fill:rgb(13.725281%,9.803772%,8.627319%);fill-opacity:1;" d="M 261.90625 499.019531 L 249.695312 499.019531 L 249.695312 416.335938 L 261.90625 416.335938 Z M 213.097656 452.734375 C 215 455.695312 217.246094 457.175781 219.839844 457.175781 C 222.371094 457.175781 224.585938 455.679688 226.488281 452.683594 C 228.390625 449.6875 229.339844 445.996094 229.339844 441.601562 C 229.339844 437.273438 228.390625 433.613281 226.488281 430.617188 C 224.585938 427.621094 222.339844 426.125 219.75 426.125 C 217.214844 426.125 215 427.621094 213.097656 430.617188 C 211.199219 433.613281 210.25 437.339844 210.25 441.796875 C 210.25 446.128906 211.199219 449.773438 213.097656 452.734375 M 235.171875 425.273438 C 239.425781 429.765625 241.554688 435.242188 241.554688 441.699219 C 241.554688 448.09375 239.425781 453.535156 235.171875 458.027344 C 230.921875 462.519531 225.777344 464.765625 219.75 464.765625 C 213.773438 464.765625 208.664062 462.519531 204.414062 458.027344 C 200.160156 453.535156 198.035156 448.09375 198.035156 441.699219 C 198.035156 435.242188 200.160156 429.765625 204.414062 425.273438 C 208.664062 420.78125 213.773438 418.535156 219.75 418.535156 C 225.777344 418.535156 230.921875 420.78125 235.171875 425.273438 "/>
<path style=" stroke:none;fill-rule:nonzero;fill:rgb(13.725281%,9.803772%,8.627319%);fill-opacity:1;" d="M 296.011719 428.519531 C 293.660156 431.648438 292.488281 435.476562 292.488281 440 C 292.488281 444.53125 293.660156 448.355469 296.011719 451.484375 C 298.363281 454.617188 301.230469 456.179688 304.609375 456.179688 C 307.984375 456.179688 310.851562 454.617188 313.203125 451.484375 C 315.558594 448.355469 316.730469 444.53125 316.730469 440 C 316.730469 435.476562 315.558594 431.648438 313.203125 428.519531 C 310.851562 425.390625 307.984375 423.828125 304.609375 423.828125 C 301.230469 423.828125 298.363281 425.390625 296.011719 428.519531 M 338.445312 486.734375 L 270.863281 486.734375 L 270.863281 479.046875 L 298.542969 479.046875 L 298.542969 463.066406 C 293.238281 461.738281 288.851562 458.925781 285.382812 454.628906 C 281.914062 450.339844 280.183594 445.460938 280.183594 440 C 280.183594 433.410156 282.5625 427.789062 287.328125 423.125 C 292.089844 418.46875 297.851562 416.136719 304.609375 416.136719 C 311.425781 416.136719 317.199219 418.46875 321.933594 423.125 C 326.667969 427.789062 329.035156 433.410156 329.035156 440 C 329.035156 445.460938 327.316406 450.339844 323.878906 454.628906 C 320.4375 458.925781 316.066406 461.738281 310.761719 463.066406 L 310.761719 479.046875 L 338.445312 479.046875 Z M 338.445312 486.734375 "/>
<path style=" stroke:none;fill-rule:nonzero;fill:rgb(13.725281%,9.803772%,8.627319%);fill-opacity:1;" d="M 360.371094 452.46875 C 361.886719 452.902344 363.910156 453.011719 366.4375 453.011719 C 375.746094 453.011719 381.410156 448.117188 381.410156 439.53125 C 381.410156 431.378906 376.148438 427.03125 367.550781 427.03125 C 364.113281 427.03125 361.683594 427.355469 360.371094 427.683594 Z M 348.03125 418.335938 C 352.480469 417.464844 358.648438 416.8125 367.046875 416.8125 C 376.148438 416.8125 382.828125 418.875 387.175781 422.789062 C 391.21875 426.378906 393.851562 432.140625 393.851562 438.984375 C 393.851562 445.941406 391.828125 451.707031 387.984375 455.621094 C 383.027344 460.945312 375.238281 463.449219 366.4375 463.449219 C 364.113281 463.449219 361.988281 463.335938 360.371094 463.011719 L 360.371094 490.625 L 348.03125 490.625 Z M 348.03125 418.335938 "/>
<path style=" stroke:none;fill-rule:nonzero;fill:rgb(13.725281%,9.803772%,8.627319%);fill-opacity:1;" d="M 416.917969 452.46875 C 418.4375 452.902344 420.460938 453.011719 422.988281 453.011719 C 432.292969 453.011719 437.957031 448.117188 437.957031 439.53125 C 437.957031 431.378906 432.699219 427.03125 424.101562 427.03125 C 420.664062 427.03125 418.234375 427.355469 416.917969 427.683594 Z M 404.578125 418.335938 C 409.027344 417.464844 415.199219 416.8125 423.597656 416.8125 C 432.699219 416.8125 439.375 418.875 443.722656 422.789062 C 447.769531 426.378906 450.402344 432.140625 450.402344 438.984375 C 450.402344 445.941406 448.378906 451.707031 444.53125 455.621094 C 439.578125 460.945312 431.789062 463.449219 422.988281 463.449219 C 420.664062 463.449219 418.535156 463.335938 416.917969 463.011719 L 416.917969 490.625 L 404.578125 490.625 Z M 404.578125 418.335938 "/>
<path style=" stroke:none;fill-rule:nonzero;fill:rgb(45.097351%,25.097656%,58.432007%);fill-opacity:1;" d="M 418.390625 363.75 L 448.117188 312.242188 C 452.867188 304.023438 450.054688 293.519531 441.839844 288.777344 C 433.632812 284.042969 423.125 286.847656 418.390625 295.054688 L 398.542969 329.402344 L 195.628906 329.402344 L 267.621094 391.753906 C 274.800781 397.964844 285.644531 397.171875 291.855469 390 C 294.667969 386.761719 296.035156 382.765625 296.035156 378.765625 C 296.035156 373.960938 294.054688 369.175781 290.105469 365.777344 C 290.105469 365.777344 288.046875 363.984375 287.765625 363.75 Z M 418.390625 363.75 "/>
<path style=" stroke:none;fill-rule:nonzero;fill:rgb(45.097351%,25.097656%,58.432007%);fill-opacity:1;" d="M 257.578125 119.203125 L 167.5625 150.40625 C 158.621094 153.507812 153.867188 163.292969 156.988281 172.253906 C 158.390625 176.3125 161.171875 179.496094 164.621094 181.484375 C 168.777344 183.898438 173.9375 184.539062 178.84375 182.851562 C 178.84375 182.851562 181.414062 181.960938 181.761719 181.839844 L 116.429688 294.945312 L 146.1875 346.472656 C 150.925781 354.683594 161.433594 357.503906 169.644531 352.769531 C 177.871094 348.003906 180.679688 337.53125 175.953125 329.308594 L 156.113281 294.945312 Z M 257.578125 119.203125 "/>
<path style=" stroke:none;fill-rule:nonzero;fill:rgb(45.097351%,25.097656%,58.432007%);fill-opacity:1;" d="M 326.875 67.839844 L 267.375 67.839844 C 257.878906 67.839844 250.207031 75.523438 250.207031 84.996094 C 250.207031 94.488281 257.878906 102.183594 267.375 102.183594 L 307.042969 102.183594 L 408.511719 277.910156 L 426.492188 184.394531 C 428.28125 175.070312 422.191406 166.070312 412.867188 164.273438 C 408.660156 163.46875 404.5 164.273438 401.054688 166.253906 C 396.875 168.679688 393.738281 172.804688 392.753906 177.90625 C 392.753906 177.90625 392.253906 180.589844 392.179688 180.945312 Z M 326.875 67.839844 "/>
<path style=" stroke:none;fill-rule:nonzero;fill:rgb(13.725281%,9.803772%,8.627319%);fill-opacity:1;" d="M 256.324219 291.226562 L 247.09375 291.226562 L 247.09375 210.398438 L 256.324219 210.398438 Z M 256.324219 291.226562 "/>
<path style=" stroke:none;fill-rule:nonzero;fill:rgb(13.725281%,9.803772%,8.627319%);fill-opacity:1;" d="M 218.953125 235.496094 L 230.082031 235.496094 L 230.082031 255.398438 L 218.953125 255.398438 Z M 230.082031 211.652344 L 230.082031 228.664062 L 218.953125 228.664062 L 218.953125 211.652344 L 209.71875 211.652344 L 209.71875 255.15625 C 209.71875 259.421875 211.003906 262.234375 216.132812 262.234375 L 239.308594 262.234375 L 239.308594 211.652344 Z M 230.082031 211.652344 "/>
<path style=" stroke:none;fill-rule:nonzero;fill:rgb(13.725281%,9.803772%,8.627319%);fill-opacity:1;" d="M 272.113281 284.160156 C 272.113281 288.414062 273.386719 291.226562 278.507812 291.226562 L 310.65625 291.226562 L 310.65625 284.398438 L 281.332031 284.398438 L 281.332031 275.695312 L 310.65625 275.695312 L 310.65625 253.835938 L 272.113281 253.835938 L 272.113281 260.671875 L 301.421875 260.671875 L 301.421875 268.875 L 272.113281 268.875 Z M 272.113281 284.160156 "/>
<path style=" stroke:none;fill-rule:nonzero;fill:rgb(13.725281%,9.803772%,8.627319%);fill-opacity:1;" d="M 323.65625 242.375 C 323.65625 246.628906 324.949219 249.441406 330.070312 249.441406 L 364.121094 249.441406 L 364.121094 242.621094 L 332.886719 242.621094 L 332.886719 233.910156 L 363.167969 233.910156 L 363.167969 211.28125 L 323.65625 211.28125 L 323.65625 218.101562 L 353.933594 218.101562 L 353.933594 227.089844 L 323.65625 227.089844 Z M 323.65625 242.375 "/>
<path style=" stroke:none;fill-rule:nonzero;fill:rgb(13.725281%,9.803772%,8.627319%);fill-opacity:1;" d="M 369.785156 256.570312 L 317.507812 256.570312 L 317.507812 263.402344 L 329.203125 263.402344 L 329.203125 291.226562 L 338.421875 291.226562 L 338.421875 263.402344 L 348.878906 263.402344 L 348.878906 291.226562 L 358.105469 291.226562 L 358.105469 263.402344 L 369.785156 263.402344 Z M 369.785156 256.570312 "/>
<path style=" stroke:none;fill-rule:nonzero;fill:rgb(13.725281%,9.803772%,8.627319%);fill-opacity:1;" d="M 301.421875 210.398438 L 301.421875 237.101562 C 299.820312 237.910156 297.007812 238.804688 293.4375 238.804688 L 274.703125 238.804688 L 274.703125 210.789062 L 265.476562 210.789062 L 265.476562 238.5625 C 265.476562 242.828125 266.761719 245.640625 271.878906 245.640625 L 291.941406 245.640625 C 295.90625 245.640625 298.882812 244.441406 301.421875 243.046875 L 301.421875 248.214844 L 310.65625 248.214844 L 310.65625 210.398438 Z M 301.421875 210.398438 "/>
</g>
</svg>
