<?xml version="1.0" encoding="UTF-8"?>
<svg xmlns="http://www.w3.org/2000/svg" xmlns:xlink="http://www.w3.org/1999/xlink" width="566.929pt" height="566.929pt" viewBox="0 0 566.929 566.929" version="1.2">
<g id="surface1">
<path style=" stroke:none;fill-rule:nonzero;fill:rgb(13.725281%,9.803772%,8.627319%);fill-opacity:1;" d="M 174.847656 422.597656 L 174.847656 451.949219 L 205.832031 451.949219 L 205.832031 422.597656 L 219.199219 422.597656 L 219.199219 495.867188 L 205.832031 495.867188 L 205.832031 463.578125 L 174.847656 463.578125 L 174.847656 495.867188 L 161.480469 495.867188 L 161.480469 422.597656 Z M 174.847656 422.597656 "/>
<path style=" stroke:none;fill-rule:nonzero;fill:rgb(13.725281%,9.803772%,8.627319%);fill-opacity:1;" d="M 247.90625 485.644531 C 249.753906 485.972656 252.578125 485.972656 255.296875 485.972656 C 272.6875 486.082031 283.015625 476.515625 283.015625 457.929688 C 283.125 441.730469 273.777344 432.488281 257.035156 432.488281 C 252.796875 432.488281 249.753906 432.816406 247.90625 433.25 Z M 234.535156 423.574219 C 240.40625 422.597656 247.90625 422.054688 255.839844 422.054688 C 269.539062 422.054688 278.996094 424.882812 285.734375 430.53125 C 292.800781 436.292969 297.148438 444.992188 297.148438 457.492188 C 297.148438 470.539062 292.691406 480.320312 285.734375 486.625 C 278.453125 493.257812 266.820312 496.625 252.578125 496.625 C 244.753906 496.625 238.882812 496.191406 234.535156 495.648438 Z M 234.535156 423.574219 "/>
<path style=" stroke:none;fill-rule:nonzero;fill:rgb(13.725281%,9.803772%,8.627319%);fill-opacity:1;" d="M 322.050781 457.707031 C 323.679688 458.144531 325.855469 458.253906 328.570312 458.253906 C 338.570312 458.253906 344.660156 453.359375 344.660156 444.773438 C 344.660156 436.621094 339.007812 432.273438 329.769531 432.273438 C 326.070312 432.273438 323.460938 432.597656 322.050781 432.925781 Z M 308.789062 423.574219 C 313.570312 422.707031 320.203125 422.054688 329.222656 422.054688 C 339.007812 422.054688 346.183594 424.117188 350.859375 428.03125 C 355.207031 431.621094 358.03125 437.382812 358.03125 444.230469 C 358.03125 451.1875 355.859375 456.949219 351.726562 460.863281 C 346.398438 466.1875 338.027344 468.691406 328.570312 468.691406 C 326.070312 468.691406 323.789062 468.582031 322.050781 468.253906 L 322.050781 495.867188 L 308.789062 495.867188 Z M 308.789062 423.574219 "/>
<path style=" stroke:none;fill-rule:nonzero;fill:rgb(13.725281%,9.803772%,8.627319%);fill-opacity:1;" d="M 410.539062 463.363281 L 382.929688 463.363281 L 382.929688 484.886719 L 413.800781 484.886719 L 413.800781 495.867188 L 369.558594 495.867188 L 369.558594 422.597656 L 412.171875 422.597656 L 412.171875 433.578125 L 382.929688 433.578125 L 382.929688 452.492188 L 410.539062 452.492188 Z M 410.539062 463.363281 "/>
<path style=" stroke:none;fill-rule:nonzero;fill:rgb(45.097351%,25.097656%,58.432007%);fill-opacity:1;" d="M 418.390625 366.140625 L 448.117188 314.636719 C 452.867188 306.414062 450.054688 295.910156 441.839844 291.171875 C 433.632812 286.433594 423.125 289.238281 418.390625 297.449219 L 398.542969 331.792969 L 195.628906 331.792969 L 267.621094 394.144531 C 274.800781 400.355469 285.644531 399.5625 291.859375 392.394531 C 294.667969 389.15625 296.035156 385.15625 296.035156 381.15625 C 296.035156 376.351562 294.054688 371.566406 290.109375 368.171875 C 290.109375 368.171875 288.046875 366.375 287.769531 366.140625 Z M 418.390625 366.140625 "/>
<path style=" stroke:none;fill-rule:nonzero;fill:rgb(45.097351%,25.097656%,58.432007%);fill-opacity:1;" d="M 257.578125 121.597656 L 167.5625 152.800781 C 158.621094 155.898438 153.867188 165.683594 156.988281 174.644531 C 158.386719 178.703125 161.175781 181.886719 164.621094 183.875 C 168.777344 186.289062 173.9375 186.929688 178.84375 185.246094 C 178.84375 185.246094 181.414062 184.351562 181.761719 184.230469 L 116.429688 297.335938 L 146.1875 348.867188 C 150.925781 357.074219 161.433594 359.898438 169.644531 355.164062 C 177.871094 350.398438 180.679688 339.921875 175.953125 331.703125 L 156.113281 297.335938 Z M 257.578125 121.597656 "/>
<path style=" stroke:none;fill-rule:nonzero;fill:rgb(45.097351%,25.097656%,58.432007%);fill-opacity:1;" d="M 326.875 70.230469 L 267.375 70.230469 C 257.878906 70.230469 250.207031 77.917969 250.207031 87.390625 C 250.207031 96.882812 257.878906 104.578125 267.375 104.578125 L 307.042969 104.578125 L 408.511719 280.300781 L 426.492188 186.785156 C 428.28125 177.464844 422.191406 168.464844 412.863281 166.664062 C 408.660156 165.859375 404.5 166.664062 401.054688 168.648438 C 396.875 171.070312 393.738281 175.199219 392.753906 180.296875 C 392.753906 180.296875 392.253906 182.980469 392.179688 183.335938 Z M 326.875 70.230469 "/>
<path style=" stroke:none;fill-rule:nonzero;fill:rgb(13.725281%,9.803772%,8.627319%);fill-opacity:1;" d="M 256.324219 293.621094 L 247.09375 293.621094 L 247.09375 212.789062 L 256.324219 212.789062 Z M 256.324219 293.621094 "/>
<path style=" stroke:none;fill-rule:nonzero;fill:rgb(13.725281%,9.803772%,8.627319%);fill-opacity:1;" d="M 218.953125 237.886719 L 230.082031 237.886719 L 230.082031 257.792969 L 218.953125 257.792969 Z M 230.082031 214.046875 L 230.082031 231.058594 L 218.953125 231.058594 L 218.953125 214.046875 L 209.71875 214.046875 L 209.71875 257.550781 C 209.71875 261.816406 211.003906 264.625 216.132812 264.625 L 239.308594 264.625 L 239.308594 214.046875 Z M 230.082031 214.046875 "/>
<path style=" stroke:none;fill-rule:nonzero;fill:rgb(13.725281%,9.803772%,8.627319%);fill-opacity:1;" d="M 272.113281 286.550781 C 272.113281 290.804688 273.386719 293.621094 278.507812 293.621094 L 310.65625 293.621094 L 310.65625 286.789062 L 281.328125 286.789062 L 281.328125 278.089844 L 310.65625 278.089844 L 310.65625 256.226562 L 272.113281 256.226562 L 272.113281 263.0625 L 301.421875 263.0625 L 301.421875 271.265625 L 272.113281 271.265625 Z M 272.113281 286.550781 "/>
<path style=" stroke:none;fill-rule:nonzero;fill:rgb(13.725281%,9.803772%,8.627319%);fill-opacity:1;" d="M 323.660156 244.765625 C 323.660156 249.023438 324.949219 251.835938 330.070312 251.835938 L 364.121094 251.835938 L 364.121094 245.011719 L 332.882812 245.011719 L 332.882812 236.304688 L 363.164062 236.304688 L 363.164062 213.671875 L 323.660156 213.671875 L 323.660156 220.496094 L 353.933594 220.496094 L 353.933594 229.480469 L 323.660156 229.480469 Z M 323.660156 244.765625 "/>
<path style=" stroke:none;fill-rule:nonzero;fill:rgb(13.725281%,9.803772%,8.627319%);fill-opacity:1;" d="M 369.785156 258.964844 L 317.507812 258.964844 L 317.507812 265.792969 L 329.203125 265.792969 L 329.203125 293.621094 L 338.421875 293.621094 L 338.421875 265.792969 L 348.878906 265.792969 L 348.878906 293.621094 L 358.105469 293.621094 L 358.105469 265.792969 L 369.785156 265.792969 Z M 369.785156 258.964844 "/>
<path style=" stroke:none;fill-rule:nonzero;fill:rgb(13.725281%,9.803772%,8.627319%);fill-opacity:1;" d="M 301.421875 212.789062 L 301.421875 239.496094 C 299.820312 240.300781 297.007812 241.199219 293.4375 241.199219 L 274.703125 241.199219 L 274.703125 213.179688 L 265.476562 213.179688 L 265.476562 240.953125 C 265.476562 245.21875 266.761719 248.03125 271.878906 248.03125 L 291.941406 248.03125 C 295.90625 248.03125 298.882812 246.835938 301.421875 245.4375 L 301.421875 250.609375 L 310.65625 250.609375 L 310.65625 212.789062 Z M 301.421875 212.789062 "/>
</g>
</svg>
