<?xml version="1.0" encoding="UTF-8"?>
<svg xmlns="http://www.w3.org/2000/svg" xmlns:xlink="http://www.w3.org/1999/xlink" width="566.929pt" height="566.929pt" viewBox="0 0 566.929 566.929" version="1.2">
<g id="surface1">
<path style=" stroke:none;fill-rule:nonzero;fill:rgb(45.097351%,25.097656%,58.432007%);fill-opacity:1;" d="M 418.390625 363.8125 L 448.117188 312.308594 C 452.867188 304.085938 450.054688 293.582031 441.839844 288.839844 C 433.632812 284.105469 423.121094 286.910156 418.390625 295.121094 L 398.542969 329.464844 L 195.625 329.464844 L 267.621094 391.816406 C 274.796875 398.027344 285.644531 397.234375 291.855469 390.066406 C 294.667969 386.824219 296.03125 382.828125 296.03125 378.828125 C 296.03125 374.023438 294.050781 369.238281 290.105469 365.839844 C 290.105469 365.839844 288.046875 364.046875 287.765625 363.8125 Z M 418.390625 363.8125 "/>
<path style=" stroke:none;fill-rule:nonzero;fill:rgb(45.097351%,25.097656%,58.432007%);fill-opacity:1;" d="M 257.578125 119.265625 L 167.5625 150.472656 C 158.617188 153.570312 153.863281 163.355469 156.984375 172.316406 C 158.386719 176.375 161.171875 179.558594 164.621094 181.546875 C 168.777344 183.960938 173.933594 184.601562 178.84375 182.914062 C 178.84375 182.914062 181.414062 182.023438 181.761719 181.902344 L 116.429688 295.007812 L 146.1875 346.539062 C 150.925781 354.746094 161.433594 357.566406 169.644531 352.835938 C 177.867188 348.066406 180.679688 337.59375 175.949219 329.371094 L 156.113281 295.007812 Z M 257.578125 119.265625 "/>
<path style=" stroke:none;fill-rule:nonzero;fill:rgb(45.097351%,25.097656%,58.432007%);fill-opacity:1;" d="M 326.875 67.902344 L 267.375 67.902344 C 257.875 67.902344 250.207031 75.585938 250.207031 85.058594 C 250.207031 94.550781 257.875 102.25 267.375 102.25 L 307.042969 102.25 L 408.511719 277.972656 L 426.488281 184.457031 C 428.28125 175.132812 422.191406 166.132812 412.863281 164.335938 C 408.65625 163.53125 404.5 164.335938 401.054688 166.316406 C 396.871094 168.742188 393.738281 172.867188 392.75 177.96875 C 392.75 177.96875 392.253906 180.652344 392.179688 181.007812 Z M 326.875 67.902344 "/>
<path style=" stroke:none;fill-rule:nonzero;fill:rgb(13.725281%,9.803772%,8.627319%);fill-opacity:1;" d="M 256.324219 291.289062 L 247.089844 291.289062 L 247.089844 210.460938 L 256.324219 210.460938 Z M 256.324219 291.289062 "/>
<path style=" stroke:none;fill-rule:nonzero;fill:rgb(13.725281%,9.803772%,8.627319%);fill-opacity:1;" d="M 218.953125 235.558594 L 230.082031 235.558594 L 230.082031 255.464844 L 218.953125 255.464844 Z M 230.082031 211.714844 L 230.082031 228.726562 L 218.953125 228.726562 L 218.953125 211.714844 L 209.71875 211.714844 L 209.71875 255.21875 C 209.71875 259.488281 211 262.296875 216.128906 262.296875 L 239.304688 262.296875 L 239.304688 211.714844 Z M 230.082031 211.714844 "/>
<path style=" stroke:none;fill-rule:nonzero;fill:rgb(13.725281%,9.803772%,8.627319%);fill-opacity:1;" d="M 272.109375 284.222656 C 272.109375 288.476562 273.386719 291.289062 278.507812 291.289062 L 310.65625 291.289062 L 310.65625 284.460938 L 281.328125 284.460938 L 281.328125 275.757812 L 310.65625 275.757812 L 310.65625 253.898438 L 272.109375 253.898438 L 272.109375 260.734375 L 301.421875 260.734375 L 301.421875 268.9375 L 272.109375 268.9375 Z M 272.109375 284.222656 "/>
<path style=" stroke:none;fill-rule:nonzero;fill:rgb(13.725281%,9.803772%,8.627319%);fill-opacity:1;" d="M 323.65625 242.4375 C 323.65625 246.691406 324.949219 249.507812 330.070312 249.507812 L 364.121094 249.507812 L 364.121094 242.683594 L 332.882812 242.683594 L 332.882812 233.976562 L 363.164062 233.976562 L 363.164062 211.34375 L 323.65625 211.34375 L 323.65625 218.164062 L 353.929688 218.164062 L 353.929688 227.152344 L 323.65625 227.152344 Z M 323.65625 242.4375 "/>
<path style=" stroke:none;fill-rule:nonzero;fill:rgb(13.725281%,9.803772%,8.627319%);fill-opacity:1;" d="M 369.785156 256.636719 L 317.507812 256.636719 L 317.507812 263.464844 L 329.203125 263.464844 L 329.203125 291.289062 L 338.421875 291.289062 L 338.421875 263.464844 L 348.878906 263.464844 L 348.878906 291.289062 L 358.105469 291.289062 L 358.105469 263.464844 L 369.785156 263.464844 Z M 369.785156 256.636719 "/>
<path style=" stroke:none;fill-rule:nonzero;fill:rgb(13.725281%,9.803772%,8.627319%);fill-opacity:1;" d="M 301.421875 210.460938 L 301.421875 237.167969 C 299.820312 237.972656 297.007812 238.867188 293.433594 238.867188 L 274.699219 238.867188 L 274.699219 210.851562 L 265.472656 210.851562 L 265.472656 238.625 C 265.472656 242.890625 266.757812 245.703125 271.878906 245.703125 L 291.9375 245.703125 C 295.90625 245.703125 298.878906 244.503906 301.421875 243.109375 L 301.421875 248.277344 L 310.65625 248.277344 L 310.65625 210.460938 Z M 301.421875 210.460938 "/>
<path style=" stroke:none;fill-rule:nonzero;fill:rgb(13.725281%,9.803772%,8.627319%);fill-opacity:1;" d="M 173.875 436.941406 L 184.46875 436.941406 L 184.46875 444.535156 L 173.875 444.535156 L 173.875 498.957031 L 163.285156 498.957031 L 163.285156 416.273438 L 173.875 416.273438 Z M 145.082031 442.9375 L 133.234375 442.9375 L 133.234375 461.609375 L 145.082031 461.609375 Z M 133.234375 418.96875 L 133.234375 435.34375 L 145.082031 435.34375 L 145.082031 418.96875 L 155.675781 418.96875 L 155.675781 469.296875 L 130.019531 469.296875 C 127.769531 469.296875 125.976562 468.484375 124.644531 466.851562 C 123.308594 465.222656 122.644531 463.074219 122.644531 460.410156 L 122.644531 418.96875 Z M 133.234375 418.96875 "/>
<path style=" stroke:none;fill-rule:nonzero;fill:rgb(13.725281%,9.803772%,8.627319%);fill-opacity:1;" d="M 240.875 498.957031 L 230.28125 498.957031 L 230.28125 416.277344 L 240.875 416.277344 Z M 198.546875 452.671875 C 200.195312 455.632812 202.144531 457.113281 204.390625 457.113281 C 206.589844 457.113281 208.511719 455.617188 210.160156 452.621094 C 211.808594 449.625 212.632812 445.929688 212.632812 441.539062 C 212.632812 437.210938 211.808594 433.550781 210.160156 430.554688 C 208.511719 427.558594 206.5625 426.0625 204.316406 426.0625 C 202.117188 426.0625 200.195312 427.558594 198.546875 430.554688 C 196.898438 433.550781 196.074219 437.277344 196.074219 441.734375 C 196.074219 446.0625 196.898438 449.710938 198.546875 452.671875 M 217.691406 425.210938 C 221.378906 429.703125 223.222656 435.179688 223.222656 441.636719 C 223.222656 448.027344 221.378906 453.472656 217.691406 457.964844 C 214.003906 462.457031 209.542969 464.703125 204.316406 464.703125 C 199.136719 464.703125 194.703125 462.457031 191.015625 457.964844 C 187.328125 453.472656 185.484375 448.027344 185.484375 441.636719 C 185.484375 435.179688 187.328125 429.703125 191.015625 425.210938 C 194.703125 420.71875 199.136719 418.46875 204.316406 418.46875 C 209.542969 418.46875 214.003906 420.71875 217.691406 425.210938 "/>
<path style=" stroke:none;fill-rule:nonzero;fill:rgb(13.725281%,9.803772%,8.627319%);fill-opacity:1;" d="M 270.453125 428.457031 C 268.410156 431.585938 267.390625 435.414062 267.390625 439.9375 C 267.390625 444.46875 268.410156 448.292969 270.453125 451.421875 C 272.492188 454.554688 274.976562 456.117188 277.902344 456.117188 C 280.832031 456.117188 283.316406 454.554688 285.359375 451.421875 C 287.398438 448.292969 288.417969 444.46875 288.417969 439.9375 C 288.417969 435.414062 287.398438 431.585938 285.359375 428.457031 C 283.316406 425.328125 280.832031 423.765625 277.902344 423.765625 C 274.976562 423.765625 272.492188 425.328125 270.453125 428.457031 M 307.246094 486.671875 L 248.640625 486.671875 L 248.640625 478.984375 L 272.648438 478.984375 L 272.648438 463.003906 C 268.042969 461.675781 264.242188 458.863281 261.234375 454.566406 C 258.222656 450.273438 256.722656 445.398438 256.722656 439.9375 C 256.722656 433.347656 258.785156 427.726562 262.921875 423.0625 C 267.050781 418.40625 272.046875 416.074219 277.902344 416.074219 C 283.816406 416.074219 288.820312 418.40625 292.925781 423.0625 C 297.035156 427.726562 299.089844 433.347656 299.089844 439.9375 C 299.089844 445.398438 297.597656 450.273438 294.617188 454.566406 C 291.632812 458.863281 287.84375 461.675781 283.238281 463.003906 L 283.238281 478.984375 L 307.246094 478.984375 Z M 307.246094 486.671875 "/>
<path style=" stroke:none;fill-rule:nonzero;fill:rgb(13.725281%,9.803772%,8.627319%);fill-opacity:1;" d="M 173.875 437.042969 L 184.46875 437.042969 L 184.46875 444.632812 L 173.875 444.632812 L 173.875 499.054688 L 163.285156 499.054688 L 163.285156 416.375 L 173.875 416.375 Z M 145.082031 443.035156 L 133.234375 443.035156 L 133.234375 461.710938 L 145.082031 461.710938 Z M 133.234375 419.070312 L 133.234375 435.445312 L 145.082031 435.445312 L 145.082031 419.070312 L 155.675781 419.070312 L 155.675781 469.394531 L 130.019531 469.394531 C 127.769531 469.394531 125.976562 468.582031 124.644531 466.953125 C 123.308594 465.320312 122.644531 463.171875 122.644531 460.507812 L 122.644531 419.070312 Z M 133.234375 419.070312 "/>
<path style=" stroke:none;fill-rule:nonzero;fill:rgb(13.725281%,9.803772%,8.627319%);fill-opacity:1;" d="M 240.875 499.054688 L 230.28125 499.054688 L 230.28125 416.375 L 240.875 416.375 Z M 198.546875 452.769531 C 200.195312 455.734375 202.144531 457.214844 204.390625 457.214844 C 206.589844 457.214844 208.511719 455.71875 210.160156 452.71875 C 211.808594 449.726562 212.632812 446.03125 212.632812 441.636719 C 212.632812 437.3125 211.808594 433.648438 210.160156 430.652344 C 208.511719 427.660156 206.5625 426.160156 204.316406 426.160156 C 202.117188 426.160156 200.195312 427.660156 198.546875 430.652344 C 196.898438 433.648438 196.074219 437.378906 196.074219 441.835938 C 196.074219 446.164062 196.898438 449.808594 198.546875 452.769531 M 217.691406 425.308594 C 221.378906 429.804688 223.222656 435.28125 223.222656 441.738281 C 223.222656 448.128906 221.378906 453.570312 217.691406 458.066406 C 214.003906 462.558594 209.542969 464.804688 204.316406 464.804688 C 199.136719 464.804688 194.703125 462.558594 191.015625 458.066406 C 187.328125 453.570312 185.484375 448.128906 185.484375 441.738281 C 185.484375 435.28125 187.328125 429.804688 191.015625 425.308594 C 194.703125 420.816406 199.136719 418.570312 204.316406 418.570312 C 209.542969 418.570312 214.003906 420.816406 217.691406 425.308594 "/>
<path style=" stroke:none;fill-rule:nonzero;fill:rgb(13.725281%,9.803772%,8.627319%);fill-opacity:1;" d="M 270.453125 428.558594 C 268.410156 431.683594 267.390625 435.515625 267.390625 440.039062 C 267.390625 444.570312 268.410156 448.394531 270.453125 451.523438 C 272.492188 454.65625 274.976562 456.214844 277.902344 456.214844 C 280.832031 456.214844 283.316406 454.65625 285.359375 451.523438 C 287.398438 448.394531 288.417969 444.570312 288.417969 440.039062 C 288.417969 435.515625 287.398438 431.683594 285.359375 428.558594 C 283.316406 425.429688 280.832031 423.863281 277.902344 423.863281 C 274.976562 423.863281 272.492188 425.429688 270.453125 428.558594 M 307.246094 486.773438 L 248.640625 486.773438 L 248.640625 479.082031 L 272.648438 479.082031 L 272.648438 463.105469 C 268.042969 461.777344 264.242188 458.964844 261.234375 454.667969 C 258.222656 450.375 256.722656 445.496094 256.722656 440.039062 C 256.722656 433.449219 258.785156 427.824219 262.921875 423.164062 C 267.050781 418.503906 272.046875 416.175781 277.902344 416.175781 C 283.816406 416.175781 288.820312 418.503906 292.925781 423.164062 C 297.035156 427.824219 299.089844 433.449219 299.089844 440.039062 C 299.089844 445.496094 297.597656 450.375 294.617188 454.667969 C 291.632812 458.964844 287.84375 461.777344 283.238281 463.105469 L 283.238281 479.082031 L 307.246094 479.082031 Z M 307.246094 486.773438 "/>
<path style=" stroke:none;fill-rule:nonzero;fill:rgb(13.725281%,9.803772%,8.627319%);fill-opacity:1;" d="M 324.261719 453.597656 C 325.5625 454.035156 327.296875 454.144531 329.464844 454.144531 C 337.445312 454.144531 342.300781 449.25 342.300781 440.664062 C 342.300781 432.511719 337.789062 428.164062 330.417969 428.164062 C 327.46875 428.164062 325.386719 428.488281 324.261719 428.8125 Z M 313.679688 419.464844 C 317.496094 418.597656 322.789062 417.941406 329.984375 417.941406 C 337.789062 417.941406 343.515625 420.007812 347.246094 423.921875 C 350.710938 427.507812 352.964844 433.273438 352.964844 440.121094 C 352.964844 447.078125 351.234375 452.835938 347.9375 456.753906 C 343.6875 462.078125 337.007812 464.578125 329.464844 464.578125 C 327.46875 464.578125 325.648438 464.46875 324.261719 464.144531 L 324.261719 491.753906 L 313.679688 491.753906 Z M 313.679688 419.464844 "/>
<path style=" stroke:none;fill-rule:nonzero;fill:rgb(13.725281%,9.803772%,8.627319%);fill-opacity:1;" d="M 394.859375 459.25 L 372.832031 459.25 L 372.832031 480.777344 L 397.460938 480.777344 L 397.460938 491.753906 L 362.164062 491.753906 L 362.164062 418.488281 L 396.160156 418.488281 L 396.160156 429.46875 L 372.832031 429.46875 L 372.832031 448.378906 L 394.859375 448.378906 Z M 394.859375 459.25 "/>
<path style=" stroke:none;fill-rule:nonzero;fill:rgb(13.725281%,9.803772%,8.627319%);fill-opacity:1;" d="M 405.300781 418.488281 L 450.425781 418.488281 L 450.425781 429.570312 L 432.703125 429.570312 L 432.703125 491.753906 L 422.945312 491.753906 L 422.945312 429.570312 L 405.300781 429.570312 Z M 405.300781 418.488281 "/>
</g>
</svg>
