<?xml version="1.0" encoding="UTF-8"?>
<svg xmlns="http://www.w3.org/2000/svg" xmlns:xlink="http://www.w3.org/1999/xlink" width="566.929pt" height="566.929pt" viewBox="0 0 566.929 566.929" version="1.2">
<g id="surface1">
<path style=" stroke:none;fill-rule:nonzero;fill:rgb(45.097351%,25.097656%,58.432007%);fill-opacity:1;" d="M 418.390625 366.113281 L 448.117188 314.609375 C 452.871094 306.390625 450.054688 295.886719 441.839844 291.144531 C 433.632812 286.410156 423.125 289.214844 418.390625 297.421875 L 398.546875 331.769531 L 195.628906 331.769531 L 267.621094 394.121094 C 274.796875 400.328125 285.644531 399.539062 291.855469 392.367188 C 294.667969 389.128906 296.035156 385.132812 296.035156 381.128906 C 296.035156 376.328125 294.054688 371.542969 290.109375 368.144531 C 290.109375 368.144531 288.046875 366.347656 287.765625 366.113281 Z M 418.390625 366.113281 "/>
<path style=" stroke:none;fill-rule:nonzero;fill:rgb(45.097351%,25.097656%,58.432007%);fill-opacity:1;" d="M 257.578125 121.570312 L 167.5625 152.773438 C 158.621094 155.871094 153.867188 165.660156 156.988281 174.621094 C 158.386719 178.675781 161.171875 181.859375 164.621094 183.851562 C 168.78125 186.265625 173.9375 186.90625 178.84375 185.21875 C 178.84375 185.21875 181.414062 184.328125 181.761719 184.203125 L 116.429688 297.3125 L 146.1875 348.839844 C 150.925781 357.050781 161.433594 359.871094 169.644531 355.136719 C 177.871094 350.371094 180.679688 339.894531 175.953125 331.675781 L 156.113281 297.3125 Z M 257.578125 121.570312 "/>
<path style=" stroke:none;fill-rule:nonzero;fill:rgb(45.097351%,25.097656%,58.432007%);fill-opacity:1;" d="M 326.875 70.207031 L 267.375 70.207031 C 257.878906 70.207031 250.207031 77.890625 250.207031 87.363281 C 250.207031 96.855469 257.878906 104.550781 267.375 104.550781 L 307.042969 104.550781 L 408.511719 280.277344 L 426.492188 186.761719 C 428.28125 177.4375 422.191406 168.4375 412.863281 166.640625 C 408.660156 165.832031 404.5 166.640625 401.054688 168.621094 C 396.875 171.046875 393.738281 175.171875 392.753906 180.269531 C 392.753906 180.269531 392.253906 182.953125 392.179688 183.3125 Z M 326.875 70.207031 "/>
<path style=" stroke:none;fill-rule:nonzero;fill:rgb(13.725281%,9.803772%,8.627319%);fill-opacity:1;" d="M 256.324219 293.59375 L 247.09375 293.59375 L 247.09375 212.765625 L 256.324219 212.765625 Z M 256.324219 293.59375 "/>
<path style=" stroke:none;fill-rule:nonzero;fill:rgb(13.725281%,9.803772%,8.627319%);fill-opacity:1;" d="M 218.953125 237.863281 L 230.082031 237.863281 L 230.082031 257.765625 L 218.953125 257.765625 Z M 230.082031 214.019531 L 230.082031 231.03125 L 218.953125 231.03125 L 218.953125 214.019531 L 209.71875 214.019531 L 209.71875 257.523438 C 209.71875 261.789062 211.003906 264.601562 216.132812 264.601562 L 239.308594 264.601562 L 239.308594 214.019531 Z M 230.082031 214.019531 "/>
<path style=" stroke:none;fill-rule:nonzero;fill:rgb(13.725281%,9.803772%,8.627319%);fill-opacity:1;" d="M 272.113281 286.527344 C 272.113281 290.78125 273.386719 293.59375 278.507812 293.59375 L 310.65625 293.59375 L 310.65625 286.765625 L 281.328125 286.765625 L 281.328125 278.0625 L 310.65625 278.0625 L 310.65625 256.203125 L 272.113281 256.203125 L 272.113281 263.039062 L 301.421875 263.039062 L 301.421875 271.242188 L 272.113281 271.242188 Z M 272.113281 286.527344 "/>
<path style=" stroke:none;fill-rule:nonzero;fill:rgb(13.725281%,9.803772%,8.627319%);fill-opacity:1;" d="M 323.660156 244.742188 C 323.660156 248.996094 324.949219 251.808594 330.070312 251.808594 L 364.121094 251.808594 L 364.121094 244.988281 L 332.882812 244.988281 L 332.882812 236.277344 L 363.167969 236.277344 L 363.167969 213.644531 L 323.660156 213.644531 L 323.660156 220.46875 L 353.933594 220.46875 L 353.933594 229.457031 L 323.660156 229.457031 Z M 323.660156 244.742188 "/>
<path style=" stroke:none;fill-rule:nonzero;fill:rgb(13.725281%,9.803772%,8.627319%);fill-opacity:1;" d="M 369.785156 258.9375 L 317.507812 258.9375 L 317.507812 265.769531 L 329.203125 265.769531 L 329.203125 293.59375 L 338.421875 293.59375 L 338.421875 265.769531 L 348.878906 265.769531 L 348.878906 293.59375 L 358.105469 293.59375 L 358.105469 265.769531 L 369.785156 265.769531 Z M 369.785156 258.9375 "/>
<path style=" stroke:none;fill-rule:nonzero;fill:rgb(13.725281%,9.803772%,8.627319%);fill-opacity:1;" d="M 301.421875 212.765625 L 301.421875 239.46875 C 299.820312 240.277344 297.007812 241.171875 293.4375 241.171875 L 274.703125 241.171875 L 274.703125 213.152344 L 265.476562 213.152344 L 265.476562 240.929688 C 265.476562 245.195312 266.761719 248.007812 271.878906 248.007812 L 291.941406 248.007812 C 295.90625 248.007812 298.882812 246.808594 301.421875 245.414062 L 301.421875 250.582031 L 310.65625 250.582031 L 310.65625 212.765625 Z M 301.421875 212.765625 "/>
<path style=" stroke:none;fill-rule:nonzero;fill:rgb(13.725281%,9.803772%,8.627319%);fill-opacity:1;" d="M 143.050781 459.148438 C 143.050781 474.042969 150.550781 486 163.375 486 C 176.3125 486 183.597656 473.933594 183.597656 458.605469 C 183.597656 444.800781 176.75 431.648438 163.375 431.648438 C 150.121094 431.648438 143.050781 444.039062 143.050781 459.148438 M 197.730469 458.0625 C 197.730469 482.628906 182.835938 496.652344 162.613281 496.652344 C 141.964844 496.652344 128.917969 480.890625 128.917969 459.367188 C 128.917969 436.867188 143.050781 420.996094 163.707031 420.996094 C 185.121094 420.996094 197.730469 437.191406 197.730469 458.0625 "/>
<path style=" stroke:none;fill-rule:nonzero;fill:rgb(13.725281%,9.803772%,8.627319%);fill-opacity:1;" d="M 220.347656 433.386719 L 199.476562 433.386719 L 199.476562 422.191406 L 254.804688 422.191406 L 254.804688 433.386719 L 233.71875 433.386719 L 233.71875 495.457031 L 220.347656 495.457031 Z M 220.347656 433.386719 "/>
<path style=" stroke:none;fill-rule:nonzero;fill:rgb(13.725281%,9.803772%,8.627319%);fill-opacity:1;" d="M 276.765625 422.191406 L 276.765625 451.542969 L 307.753906 451.542969 L 307.753906 422.191406 L 321.125 422.191406 L 321.125 495.457031 L 307.753906 495.457031 L 307.753906 463.171875 L 276.765625 463.171875 L 276.765625 495.457031 L 263.398438 495.457031 L 263.398438 422.191406 Z M 276.765625 422.191406 "/>
<path style=" stroke:none;fill-rule:nonzero;fill:rgb(13.725281%,9.803772%,8.627319%);fill-opacity:1;" d="M 377.4375 462.957031 L 349.824219 462.957031 L 349.824219 484.476562 L 380.699219 484.476562 L 380.699219 495.457031 L 336.457031 495.457031 L 336.457031 422.191406 L 379.070312 422.191406 L 379.070312 433.171875 L 349.824219 433.171875 L 349.824219 452.085938 L 377.4375 452.085938 Z M 377.4375 462.957031 "/>
<path style=" stroke:none;fill-rule:nonzero;fill:rgb(13.725281%,9.803772%,8.627319%);fill-opacity:1;" d="M 405.707031 455.5625 L 413.640625 455.5625 C 422.664062 455.5625 428.316406 450.78125 428.316406 443.496094 C 428.316406 435.453125 422.664062 431.757812 413.96875 431.757812 C 409.730469 431.757812 407.011719 432.082031 405.707031 432.410156 Z M 392.441406 423.167969 C 397.441406 422.296875 404.945312 421.644531 412.664062 421.644531 C 423.203125 421.644531 430.382812 423.386719 435.273438 427.515625 C 439.300781 430.886719 441.578125 435.992188 441.578125 442.191406 C 441.578125 451.648438 435.164062 458.0625 428.316406 460.566406 L 428.316406 460.886719 C 433.535156 462.84375 436.6875 467.957031 438.535156 475.019531 C 440.816406 484.152344 442.777344 492.632812 444.296875 495.457031 L 430.492188 495.457031 C 429.402344 493.285156 427.664062 487.304688 425.601562 478.171875 C 423.53125 468.609375 420.054688 465.5625 412.449219 465.34375 L 405.707031 465.34375 L 405.707031 495.457031 L 392.441406 495.457031 Z M 392.441406 423.167969 "/>
</g>
</svg>
