<?xml version="1.0" encoding="UTF-8"?>
<svg xmlns="http://www.w3.org/2000/svg" xmlns:xlink="http://www.w3.org/1999/xlink" width="566.929pt" height="566.929pt" viewBox="0 0 566.929 566.929" version="1.2">
<g id="surface1">
<path style=" stroke:none;fill-rule:nonzero;fill:rgb(13.725281%,9.803772%,8.627319%);fill-opacity:1;" d="M 171.207031 422.597656 L 184.578125 422.597656 L 184.578125 484.667969 L 214.6875 484.667969 L 214.6875 495.863281 L 171.207031 495.863281 Z M 171.207031 422.597656 "/>
<path style=" stroke:none;fill-rule:nonzero;fill:rgb(13.725281%,9.803772%,8.627319%);fill-opacity:1;" d="M 238.175781 485.644531 C 240.027344 485.972656 242.847656 485.972656 245.566406 485.972656 C 262.957031 486.082031 273.289062 476.515625 273.289062 457.929688 C 273.394531 441.730469 264.046875 432.488281 247.304688 432.488281 C 243.066406 432.488281 240.027344 432.816406 238.175781 433.25 Z M 224.804688 423.574219 C 230.671875 422.597656 238.175781 422.054688 246.109375 422.054688 C 259.808594 422.054688 269.265625 424.882812 276.007812 430.53125 C 283.070312 436.292969 287.417969 444.992188 287.417969 457.492188 C 287.417969 470.539062 282.964844 480.320312 276.007812 486.625 C 268.71875 493.257812 257.089844 496.625 242.847656 496.625 C 235.023438 496.625 229.152344 496.191406 224.804688 495.648438 Z M 224.804688 423.574219 "/>
<path style=" stroke:none;fill-rule:nonzero;fill:rgb(13.725281%,9.803772%,8.627319%);fill-opacity:1;" d="M 312.320312 457.707031 C 313.949219 458.144531 316.121094 458.253906 318.839844 458.253906 C 328.839844 458.253906 334.929688 453.359375 334.929688 444.773438 C 334.929688 436.621094 329.273438 432.273438 320.039062 432.273438 C 316.339844 432.273438 313.734375 432.597656 312.320312 432.925781 Z M 299.054688 423.574219 C 303.839844 422.707031 310.472656 422.054688 319.496094 422.054688 C 329.273438 422.054688 336.453125 424.117188 341.128906 428.03125 C 345.472656 431.621094 348.300781 437.382812 348.300781 444.230469 C 348.300781 451.1875 346.128906 456.949219 341.996094 460.863281 C 336.667969 466.1875 328.296875 468.691406 318.839844 468.691406 C 316.339844 468.691406 314.058594 468.578125 312.320312 468.253906 L 312.320312 495.863281 L 299.054688 495.863281 Z M 299.054688 423.574219 "/>
<path style=" stroke:none;fill-rule:nonzero;fill:rgb(13.725281%,9.803772%,8.627319%);fill-opacity:1;" d="M 400.8125 463.363281 L 373.199219 463.363281 L 373.199219 484.886719 L 404.074219 484.886719 L 404.074219 495.867188 L 359.828125 495.867188 L 359.828125 422.597656 L 402.441406 422.597656 L 402.441406 433.578125 L 373.199219 433.578125 L 373.199219 452.492188 L 400.8125 452.492188 Z M 400.8125 463.363281 "/>
<path style=" stroke:none;fill-rule:nonzero;fill:rgb(45.097351%,25.097656%,58.432007%);fill-opacity:1;" d="M 418.390625 366.140625 L 448.117188 314.636719 C 452.867188 306.414062 450.054688 295.910156 441.839844 291.171875 C 433.632812 286.433594 423.125 289.238281 418.390625 297.449219 L 398.542969 331.792969 L 195.628906 331.792969 L 267.621094 394.144531 C 274.800781 400.355469 285.644531 399.5625 291.855469 392.394531 C 294.667969 389.15625 296.035156 385.15625 296.035156 381.15625 C 296.035156 376.351562 294.054688 371.566406 290.109375 368.171875 C 290.109375 368.171875 288.046875 366.375 287.765625 366.140625 Z M 418.390625 366.140625 "/>
<path style=" stroke:none;fill-rule:nonzero;fill:rgb(45.097351%,25.097656%,58.432007%);fill-opacity:1;" d="M 257.578125 121.597656 L 167.5625 152.800781 C 158.621094 155.898438 153.867188 165.683594 156.984375 174.644531 C 158.390625 178.703125 161.171875 181.886719 164.621094 183.875 C 168.777344 186.289062 173.9375 186.933594 178.84375 185.246094 C 178.84375 185.246094 181.417969 184.351562 181.761719 184.230469 L 116.429688 297.335938 L 146.191406 348.867188 C 150.925781 357.074219 161.433594 359.894531 169.644531 355.164062 C 177.871094 350.398438 180.679688 339.921875 175.953125 331.699219 L 156.113281 297.335938 Z M 257.578125 121.597656 "/>
<path style=" stroke:none;fill-rule:nonzero;fill:rgb(45.097351%,25.097656%,58.432007%);fill-opacity:1;" d="M 326.875 70.230469 L 267.375 70.230469 C 257.878906 70.230469 250.207031 77.917969 250.207031 87.390625 C 250.207031 96.882812 257.878906 104.578125 267.375 104.578125 L 307.042969 104.578125 L 408.511719 280.300781 L 426.492188 186.785156 C 428.28125 177.464844 422.191406 168.464844 412.867188 166.664062 C 408.660156 165.859375 404.5 166.664062 401.054688 168.648438 C 396.875 171.070312 393.738281 175.199219 392.753906 180.296875 C 392.753906 180.296875 392.253906 182.980469 392.179688 183.335938 Z M 326.875 70.230469 "/>
<path style=" stroke:none;fill-rule:nonzero;fill:rgb(13.725281%,9.803772%,8.627319%);fill-opacity:1;" d="M 256.324219 293.621094 L 247.09375 293.621094 L 247.09375 212.792969 L 256.324219 212.792969 Z M 256.324219 293.621094 "/>
<path style=" stroke:none;fill-rule:nonzero;fill:rgb(13.725281%,9.803772%,8.627319%);fill-opacity:1;" d="M 218.953125 237.886719 L 230.082031 237.886719 L 230.082031 257.792969 L 218.953125 257.792969 Z M 230.082031 214.046875 L 230.082031 231.058594 L 218.953125 231.058594 L 218.953125 214.046875 L 209.71875 214.046875 L 209.71875 257.550781 C 209.71875 261.816406 211.003906 264.628906 216.132812 264.628906 L 239.308594 264.628906 L 239.308594 214.046875 Z M 230.082031 214.046875 "/>
<path style=" stroke:none;fill-rule:nonzero;fill:rgb(13.725281%,9.803772%,8.627319%);fill-opacity:1;" d="M 272.113281 286.550781 C 272.113281 290.804688 273.386719 293.621094 278.507812 293.621094 L 310.65625 293.621094 L 310.65625 286.789062 L 281.332031 286.789062 L 281.332031 278.089844 L 310.65625 278.089844 L 310.65625 256.226562 L 272.113281 256.226562 L 272.113281 263.0625 L 301.421875 263.0625 L 301.421875 271.265625 L 272.113281 271.265625 Z M 272.113281 286.550781 "/>
<path style=" stroke:none;fill-rule:nonzero;fill:rgb(13.725281%,9.803772%,8.627319%);fill-opacity:1;" d="M 323.65625 244.765625 C 323.65625 249.023438 324.949219 251.835938 330.070312 251.835938 L 364.121094 251.835938 L 364.121094 245.011719 L 332.886719 245.011719 L 332.886719 236.304688 L 363.167969 236.304688 L 363.167969 213.671875 L 323.65625 213.671875 L 323.65625 220.496094 L 353.933594 220.496094 L 353.933594 229.480469 L 323.65625 229.480469 Z M 323.65625 244.765625 "/>
<path style=" stroke:none;fill-rule:nonzero;fill:rgb(13.725281%,9.803772%,8.627319%);fill-opacity:1;" d="M 369.785156 258.964844 L 317.507812 258.964844 L 317.507812 265.796875 L 329.203125 265.796875 L 329.203125 293.621094 L 338.421875 293.621094 L 338.421875 265.796875 L 348.878906 265.796875 L 348.878906 293.621094 L 358.105469 293.621094 L 358.105469 265.796875 L 369.785156 265.796875 Z M 369.785156 258.964844 "/>
<path style=" stroke:none;fill-rule:nonzero;fill:rgb(13.725281%,9.803772%,8.627319%);fill-opacity:1;" d="M 301.421875 212.792969 L 301.421875 239.496094 C 299.820312 240.300781 297.007812 241.199219 293.4375 241.199219 L 274.699219 241.199219 L 274.699219 213.179688 L 265.476562 213.179688 L 265.476562 240.953125 C 265.476562 245.21875 266.761719 248.03125 271.878906 248.03125 L 291.941406 248.03125 C 295.90625 248.03125 298.882812 246.835938 301.421875 245.4375 L 301.421875 250.609375 L 310.65625 250.609375 L 310.65625 212.792969 Z M 301.421875 212.792969 "/>
</g>
</svg>
