<?xml version="1.0" encoding="UTF-8"?>
<svg xmlns="http://www.w3.org/2000/svg" xmlns:xlink="http://www.w3.org/1999/xlink" width="566.929pt" height="566.929pt" viewBox="0 0 566.929 566.929" version="1.2">
<g id="surface1">
<path style=" stroke:none;fill-rule:nonzero;fill:rgb(45.097351%,25.097656%,58.432007%);fill-opacity:1;" d="M 418.492188 363.8125 L 448.214844 312.308594 C 452.96875 304.085938 450.152344 293.582031 441.9375 288.839844 C 433.734375 284.105469 423.222656 286.910156 418.492188 295.121094 L 398.644531 329.464844 L 195.726562 329.464844 L 267.722656 391.816406 C 274.898438 398.027344 285.742188 397.234375 291.957031 390.066406 C 294.765625 386.824219 296.132812 382.828125 296.132812 378.828125 C 296.132812 374.023438 294.152344 369.238281 290.207031 365.839844 C 290.207031 365.839844 288.144531 364.046875 287.867188 363.8125 Z M 418.492188 363.8125 "/>
<path style=" stroke:none;fill-rule:nonzero;fill:rgb(45.097351%,25.097656%,58.432007%);fill-opacity:1;" d="M 257.679688 119.265625 L 167.660156 150.472656 C 158.71875 153.570312 153.964844 163.355469 157.085938 172.316406 C 158.488281 176.375 161.273438 179.558594 164.71875 181.546875 C 168.878906 183.960938 174.035156 184.601562 178.945312 182.914062 C 178.945312 182.914062 181.515625 182.023438 181.863281 181.902344 L 116.527344 295.007812 L 146.289062 346.539062 C 151.023438 354.746094 161.53125 357.566406 169.746094 352.835938 C 177.96875 348.066406 180.78125 337.59375 176.050781 329.371094 L 156.210938 295.007812 Z M 257.679688 119.265625 "/>
<path style=" stroke:none;fill-rule:nonzero;fill:rgb(45.097351%,25.097656%,58.432007%);fill-opacity:1;" d="M 326.972656 67.902344 L 267.472656 67.902344 C 257.976562 67.902344 250.308594 75.585938 250.308594 85.058594 C 250.308594 94.550781 257.976562 102.25 267.472656 102.25 L 307.144531 102.25 L 408.613281 277.972656 L 426.589844 184.457031 C 428.382812 175.132812 422.289062 166.132812 412.964844 164.335938 C 408.757812 163.53125 404.601562 164.335938 401.152344 166.316406 C 396.972656 168.742188 393.835938 172.867188 392.851562 177.96875 C 392.851562 177.96875 392.351562 180.652344 392.277344 181.007812 Z M 326.972656 67.902344 "/>
<path style=" stroke:none;fill-rule:nonzero;fill:rgb(13.725281%,9.803772%,8.627319%);fill-opacity:1;" d="M 256.425781 291.289062 L 247.191406 291.289062 L 247.191406 210.460938 L 256.425781 210.460938 Z M 256.425781 291.289062 "/>
<path style=" stroke:none;fill-rule:nonzero;fill:rgb(13.725281%,9.803772%,8.627319%);fill-opacity:1;" d="M 219.050781 235.558594 L 230.179688 235.558594 L 230.179688 255.464844 L 219.050781 255.464844 Z M 230.179688 211.714844 L 230.179688 228.726562 L 219.050781 228.726562 L 219.050781 211.714844 L 209.820312 211.714844 L 209.820312 255.21875 C 209.820312 259.488281 211.101562 262.296875 216.230469 262.296875 L 239.40625 262.296875 L 239.40625 211.714844 Z M 230.179688 211.714844 "/>
<path style=" stroke:none;fill-rule:nonzero;fill:rgb(13.725281%,9.803772%,8.627319%);fill-opacity:1;" d="M 272.210938 284.222656 C 272.210938 288.476562 273.488281 291.289062 278.605469 291.289062 L 310.753906 291.289062 L 310.753906 284.460938 L 281.429688 284.460938 L 281.429688 275.757812 L 310.753906 275.757812 L 310.753906 253.898438 L 272.210938 253.898438 L 272.210938 260.734375 L 301.523438 260.734375 L 301.523438 268.9375 L 272.210938 268.9375 Z M 272.210938 284.222656 "/>
<path style=" stroke:none;fill-rule:nonzero;fill:rgb(13.725281%,9.803772%,8.627319%);fill-opacity:1;" d="M 323.757812 242.4375 C 323.757812 246.691406 325.046875 249.507812 330.167969 249.507812 L 364.21875 249.507812 L 364.21875 242.683594 L 332.984375 242.683594 L 332.984375 233.976562 L 363.265625 233.976562 L 363.265625 211.34375 L 323.757812 211.34375 L 323.757812 218.164062 L 354.03125 218.164062 L 354.03125 227.152344 L 323.757812 227.152344 Z M 323.757812 242.4375 "/>
<path style=" stroke:none;fill-rule:nonzero;fill:rgb(13.725281%,9.803772%,8.627319%);fill-opacity:1;" d="M 369.886719 256.636719 L 317.605469 256.636719 L 317.605469 263.464844 L 329.304688 263.464844 L 329.304688 291.289062 L 338.523438 291.289062 L 338.523438 263.464844 L 348.976562 263.464844 L 348.976562 291.289062 L 358.203125 291.289062 L 358.203125 263.464844 L 369.886719 263.464844 Z M 369.886719 256.636719 "/>
<path style=" stroke:none;fill-rule:nonzero;fill:rgb(13.725281%,9.803772%,8.627319%);fill-opacity:1;" d="M 301.523438 210.460938 L 301.523438 237.167969 C 299.921875 237.972656 297.105469 238.867188 293.535156 238.867188 L 274.800781 238.867188 L 274.800781 210.851562 L 265.574219 210.851562 L 265.574219 238.625 C 265.574219 242.890625 266.859375 245.703125 271.980469 245.703125 L 292.039062 245.703125 C 296.007812 245.703125 298.980469 244.503906 301.523438 243.109375 L 301.523438 248.277344 L 310.753906 248.277344 L 310.753906 210.460938 Z M 301.523438 210.460938 "/>
<path style=" stroke:none;fill-rule:nonzero;fill:rgb(13.725281%,9.803772%,8.627319%);fill-opacity:1;" d="M 161.050781 436.941406 L 170.292969 436.941406 L 170.292969 444.535156 L 161.050781 444.535156 L 161.050781 498.957031 L 151.804688 498.957031 L 151.804688 416.273438 L 161.050781 416.273438 Z M 135.914062 442.9375 L 125.574219 442.9375 L 125.574219 461.609375 L 135.914062 461.609375 Z M 125.574219 418.96875 L 125.574219 435.34375 L 135.914062 435.34375 L 135.914062 418.96875 L 145.160156 418.96875 L 145.160156 469.296875 L 122.765625 469.296875 C 120.800781 469.296875 119.238281 468.484375 118.074219 466.851562 C 116.910156 465.222656 116.328125 463.074219 116.328125 460.410156 L 116.328125 418.96875 Z M 125.574219 418.96875 "/>
<path style=" stroke:none;fill-rule:nonzero;fill:rgb(13.725281%,9.803772%,8.627319%);fill-opacity:1;" d="M 219.535156 498.957031 L 210.289062 498.957031 L 210.289062 416.277344 L 219.535156 416.277344 Z M 182.589844 452.671875 C 184.027344 455.632812 185.726562 457.113281 187.691406 457.113281 C 189.609375 457.113281 191.285156 455.617188 192.726562 452.621094 C 194.164062 449.625 194.882812 445.929688 194.882812 441.539062 C 194.882812 437.210938 194.164062 433.550781 192.726562 430.554688 C 191.285156 427.558594 189.585938 426.0625 187.621094 426.0625 C 185.707031 426.0625 184.027344 427.558594 182.589844 430.554688 C 181.148438 433.550781 180.429688 437.277344 180.429688 441.734375 C 180.429688 446.0625 181.148438 449.710938 182.589844 452.671875 M 199.296875 425.210938 C 202.515625 429.703125 204.128906 435.179688 204.128906 441.636719 C 204.128906 448.027344 202.515625 453.472656 199.296875 457.964844 C 196.078125 462.457031 192.1875 464.703125 187.621094 464.703125 C 183.101562 464.703125 179.230469 462.457031 176.015625 457.964844 C 172.792969 453.472656 171.1875 448.027344 171.1875 441.636719 C 171.1875 435.179688 172.792969 429.703125 176.015625 425.210938 C 179.230469 420.71875 183.101562 418.46875 187.621094 418.46875 C 192.1875 418.46875 196.078125 420.71875 199.296875 425.210938 "/>
<path style=" stroke:none;fill-rule:nonzero;fill:rgb(13.725281%,9.803772%,8.627319%);fill-opacity:1;" d="M 245.351562 428.457031 C 243.574219 431.585938 242.683594 435.414062 242.683594 439.9375 C 242.683594 444.46875 243.574219 448.292969 245.351562 451.421875 C 247.132812 454.554688 249.300781 456.117188 251.859375 456.117188 C 254.414062 456.117188 256.585938 454.554688 258.367188 451.421875 C 260.148438 448.292969 261.039062 444.46875 261.039062 439.9375 C 261.039062 435.414062 260.148438 431.585938 258.367188 428.457031 C 256.585938 425.328125 254.414062 423.765625 251.859375 423.765625 C 249.300781 423.765625 247.132812 425.328125 245.351562 428.457031 M 277.476562 486.671875 L 226.3125 486.671875 L 226.3125 478.984375 L 247.273438 478.984375 L 247.273438 463.003906 C 243.253906 461.675781 239.929688 458.863281 237.304688 454.566406 C 234.679688 450.273438 233.371094 445.398438 233.371094 439.9375 C 233.371094 433.347656 235.171875 427.726562 238.777344 423.0625 C 242.382812 418.40625 246.746094 416.074219 251.859375 416.074219 C 257.019531 416.074219 261.390625 418.40625 264.972656 423.0625 C 268.558594 427.726562 270.351562 433.347656 270.351562 439.9375 C 270.351562 445.398438 269.050781 450.273438 266.449219 454.566406 C 263.847656 458.863281 260.535156 461.675781 256.515625 463.003906 L 256.515625 478.984375 L 277.476562 478.984375 Z M 277.476562 486.671875 "/>
<path style=" stroke:none;fill-rule:nonzero;fill:rgb(13.725281%,9.803772%,8.627319%);fill-opacity:1;" d="M 288.042969 418.535156 L 297.375 418.535156 L 297.375 480.605469 L 318.386719 480.605469 L 318.386719 491.800781 L 288.042969 491.800781 Z M 288.042969 418.535156 "/>
<path style=" stroke:none;fill-rule:nonzero;fill:rgb(13.725281%,9.803772%,8.627319%);fill-opacity:1;" d="M 334.773438 481.582031 C 336.0625 481.910156 338.03125 481.910156 339.929688 481.910156 C 352.066406 482.019531 359.273438 472.453125 359.273438 453.863281 C 359.347656 437.667969 352.824219 428.425781 341.140625 428.425781 C 338.1875 428.425781 336.0625 428.753906 334.773438 429.1875 Z M 325.441406 419.511719 C 329.539062 418.535156 334.773438 417.992188 340.308594 417.992188 C 349.867188 417.992188 356.464844 420.816406 361.167969 426.46875 C 366.097656 432.230469 369.132812 440.929688 369.132812 453.429688 C 369.132812 466.476562 366.023438 476.257812 361.167969 482.5625 C 356.085938 489.191406 347.96875 492.5625 338.03125 492.5625 C 332.574219 492.5625 328.476562 492.128906 325.441406 491.585938 Z M 325.441406 419.511719 "/>
<path style=" stroke:none;fill-rule:nonzero;fill:rgb(13.725281%,9.803772%,8.627319%);fill-opacity:1;" d="M 386.507812 453.644531 C 387.644531 454.082031 389.160156 454.191406 391.058594 454.191406 C 398.035156 454.191406 402.285156 449.296875 402.285156 440.710938 C 402.285156 432.558594 398.339844 428.210938 391.894531 428.210938 C 389.3125 428.210938 387.492188 428.535156 386.507812 428.863281 Z M 377.253906 419.511719 C 380.59375 418.644531 385.21875 417.992188 391.515625 417.992188 C 398.339844 417.992188 403.347656 420.054688 406.609375 423.96875 C 409.640625 427.558594 411.617188 433.320312 411.617188 440.167969 C 411.617188 447.125 410.097656 452.882812 407.214844 456.800781 C 403.496094 462.125 397.65625 464.628906 391.058594 464.628906 C 389.3125 464.628906 387.71875 464.515625 386.507812 464.191406 L 386.507812 491.800781 L 377.253906 491.800781 Z M 377.253906 419.511719 "/>
<path style=" stroke:none;fill-rule:nonzero;fill:rgb(13.725281%,9.803772%,8.627319%);fill-opacity:1;" d="M 448.253906 459.300781 L 428.984375 459.300781 L 428.984375 480.824219 L 450.53125 480.824219 L 450.53125 491.804688 L 419.65625 491.804688 L 419.65625 418.535156 L 449.390625 418.535156 L 449.390625 429.515625 L 428.984375 429.515625 L 428.984375 448.429688 L 448.253906 448.429688 Z M 448.253906 459.300781 "/>
</g>
</svg>
