<?xml version="1.0" encoding="UTF-8"?>
<svg xmlns="http://www.w3.org/2000/svg" xmlns:xlink="http://www.w3.org/1999/xlink" width="566.929pt" height="566.929pt" viewBox="0 0 566.929 566.929" version="1.2">
<g id="surface1">
<path style=" stroke:none;fill-rule:nonzero;fill:rgb(13.725281%,9.803772%,8.627319%);fill-opacity:1;" d="M 210.988281 458.132812 C 212.617188 458.566406 214.792969 458.675781 217.507812 458.675781 C 227.511719 458.675781 233.597656 453.78125 233.597656 445.195312 C 233.597656 437.042969 227.945312 432.695312 218.707031 432.695312 C 215.007812 432.695312 212.398438 433.019531 210.988281 433.347656 Z M 197.726562 424 C 202.507812 423.128906 209.140625 422.476562 218.164062 422.476562 C 227.945312 422.476562 235.121094 424.542969 239.796875 428.453125 C 244.144531 432.042969 246.96875 437.804688 246.96875 444.652344 C 246.96875 451.609375 244.796875 457.371094 240.664062 461.285156 C 235.339844 466.609375 226.96875 469.113281 217.507812 469.113281 C 215.007812 469.113281 212.726562 469 210.988281 468.675781 L 210.988281 496.289062 L 197.726562 496.289062 Z M 197.726562 424 "/>
<path style=" stroke:none;fill-rule:nonzero;fill:rgb(13.725281%,9.803772%,8.627319%);fill-opacity:1;" d="M 299.480469 463.785156 L 271.867188 463.785156 L 271.867188 485.308594 L 302.738281 485.308594 L 302.738281 496.289062 L 258.496094 496.289062 L 258.496094 423.019531 L 301.109375 423.019531 L 301.109375 434 L 271.867188 434 L 271.867188 452.914062 L 299.480469 452.914062 Z M 299.480469 463.785156 "/>
<path style=" stroke:none;fill-rule:nonzero;fill:rgb(13.725281%,9.803772%,8.627319%);fill-opacity:1;" d="M 312.570312 423.019531 L 369.132812 423.019531 L 369.132812 434.101562 L 346.917969 434.101562 L 346.917969 496.289062 L 334.6875 496.289062 L 334.6875 434.101562 L 312.570312 434.101562 Z M 312.570312 423.019531 "/>
<path style=" stroke:none;fill-rule:nonzero;fill:rgb(45.097351%,25.097656%,58.432007%);fill-opacity:1;" d="M 418.390625 368.066406 L 448.117188 316.5625 C 452.871094 308.339844 450.054688 297.835938 441.839844 293.097656 C 433.632812 288.359375 423.125 291.164062 418.390625 299.375 L 398.546875 333.71875 L 195.628906 333.71875 L 267.621094 396.070312 C 274.800781 402.28125 285.644531 401.488281 291.855469 394.320312 C 294.667969 391.078125 296.035156 387.082031 296.035156 383.082031 C 296.035156 378.277344 294.054688 373.492188 290.109375 370.09375 C 290.109375 370.09375 288.046875 368.300781 287.769531 368.066406 Z M 418.390625 368.066406 "/>
<path style=" stroke:none;fill-rule:nonzero;fill:rgb(45.097351%,25.097656%,58.432007%);fill-opacity:1;" d="M 257.578125 123.523438 L 167.5625 154.726562 C 158.621094 157.824219 153.867188 167.609375 156.988281 176.570312 C 158.386719 180.628906 161.171875 183.8125 164.621094 185.800781 C 168.777344 188.214844 173.9375 188.855469 178.84375 187.167969 C 178.84375 187.167969 181.414062 186.277344 181.761719 186.15625 L 116.429688 299.261719 L 146.1875 350.792969 C 150.925781 359 161.433594 361.820312 169.644531 357.085938 C 177.871094 352.320312 180.679688 341.84375 175.953125 333.625 L 156.113281 299.261719 Z M 257.578125 123.523438 "/>
<path style=" stroke:none;fill-rule:nonzero;fill:rgb(45.097351%,25.097656%,58.432007%);fill-opacity:1;" d="M 326.875 72.15625 L 267.375 72.15625 C 257.878906 72.15625 250.207031 79.839844 250.207031 89.3125 C 250.207031 98.804688 257.878906 106.503906 267.375 106.503906 L 307.042969 106.503906 L 408.511719 282.226562 L 426.492188 188.710938 C 428.28125 179.386719 422.191406 170.386719 412.863281 168.589844 C 408.660156 167.785156 404.5 168.589844 401.054688 170.570312 C 396.875 172.996094 393.738281 177.121094 392.753906 182.222656 C 392.753906 182.222656 392.253906 184.90625 392.179688 185.261719 Z M 326.875 72.15625 "/>
<path style=" stroke:none;fill-rule:nonzero;fill:rgb(13.725281%,9.803772%,8.627319%);fill-opacity:1;" d="M 256.324219 295.542969 L 247.09375 295.542969 L 247.09375 214.714844 L 256.324219 214.714844 Z M 256.324219 295.542969 "/>
<path style=" stroke:none;fill-rule:nonzero;fill:rgb(13.725281%,9.803772%,8.627319%);fill-opacity:1;" d="M 218.953125 239.8125 L 230.082031 239.8125 L 230.082031 259.714844 L 218.953125 259.714844 Z M 230.082031 215.96875 L 230.082031 232.980469 L 218.953125 232.980469 L 218.953125 215.96875 L 209.71875 215.96875 L 209.71875 259.472656 C 209.71875 263.738281 211.003906 266.550781 216.132812 266.550781 L 239.308594 266.550781 L 239.308594 215.96875 Z M 230.082031 215.96875 "/>
<path style=" stroke:none;fill-rule:nonzero;fill:rgb(13.725281%,9.803772%,8.627319%);fill-opacity:1;" d="M 272.113281 288.476562 C 272.113281 292.730469 273.386719 295.542969 278.507812 295.542969 L 310.65625 295.542969 L 310.65625 288.714844 L 281.328125 288.714844 L 281.328125 280.015625 L 310.65625 280.015625 L 310.65625 258.152344 L 272.113281 258.152344 L 272.113281 264.988281 L 301.421875 264.988281 L 301.421875 273.191406 L 272.113281 273.191406 Z M 272.113281 288.476562 "/>
<path style=" stroke:none;fill-rule:nonzero;fill:rgb(13.725281%,9.803772%,8.627319%);fill-opacity:1;" d="M 323.660156 246.691406 C 323.660156 250.945312 324.949219 253.761719 330.070312 253.761719 L 364.121094 253.761719 L 364.121094 246.9375 L 332.882812 246.9375 L 332.882812 238.230469 L 363.164062 238.230469 L 363.164062 215.597656 L 323.660156 215.597656 L 323.660156 222.417969 L 353.933594 222.417969 L 353.933594 231.40625 L 323.660156 231.40625 Z M 323.660156 246.691406 "/>
<path style=" stroke:none;fill-rule:nonzero;fill:rgb(13.725281%,9.803772%,8.627319%);fill-opacity:1;" d="M 369.785156 260.886719 L 317.507812 260.886719 L 317.507812 267.71875 L 329.203125 267.71875 L 329.203125 295.542969 L 338.421875 295.542969 L 338.421875 267.71875 L 348.878906 267.71875 L 348.878906 295.542969 L 358.105469 295.542969 L 358.105469 267.71875 L 369.785156 267.71875 Z M 369.785156 260.886719 "/>
<path style=" stroke:none;fill-rule:nonzero;fill:rgb(13.725281%,9.803772%,8.627319%);fill-opacity:1;" d="M 301.421875 214.714844 L 301.421875 241.421875 C 299.820312 242.226562 297.007812 243.121094 293.4375 243.121094 L 274.703125 243.121094 L 274.703125 215.105469 L 265.476562 215.105469 L 265.476562 242.878906 C 265.476562 247.144531 266.761719 249.957031 271.882812 249.957031 L 291.941406 249.957031 C 295.90625 249.957031 298.882812 248.757812 301.421875 247.363281 L 301.421875 252.53125 L 310.65625 252.53125 L 310.65625 214.714844 Z M 301.421875 214.714844 "/>
</g>
</svg>
