<?xml version="1.0" encoding="UTF-8"?>
<svg xmlns="http://www.w3.org/2000/svg" xmlns:xlink="http://www.w3.org/1999/xlink" width="566.929pt" height="566.929pt" viewBox="0 0 566.929 566.929" version="1.2">
<g id="surface1">
<path style=" stroke:none;fill-rule:nonzero;fill:rgb(45.097351%,25.097656%,58.432007%);fill-opacity:1;" d="M 418.390625 366.113281 L 448.117188 314.609375 C 452.867188 306.386719 450.054688 295.882812 441.839844 291.140625 C 433.632812 286.40625 423.125 289.210938 418.390625 297.417969 L 398.542969 331.765625 L 195.628906 331.765625 L 267.621094 394.117188 C 274.800781 400.328125 285.644531 399.535156 291.855469 392.363281 C 294.667969 389.125 296.035156 385.128906 296.035156 381.128906 C 296.035156 376.324219 294.054688 371.539062 290.105469 368.140625 C 290.105469 368.140625 288.046875 366.347656 287.765625 366.113281 Z M 418.390625 366.113281 "/>
<path style=" stroke:none;fill-rule:nonzero;fill:rgb(45.097351%,25.097656%,58.432007%);fill-opacity:1;" d="M 257.578125 121.570312 L 167.5625 152.773438 C 158.621094 155.871094 153.867188 165.65625 156.988281 174.617188 C 158.390625 178.675781 161.171875 181.859375 164.621094 183.847656 C 168.777344 186.261719 173.9375 186.902344 178.84375 185.214844 C 178.84375 185.214844 181.414062 184.324219 181.761719 184.203125 L 116.429688 297.308594 L 146.1875 348.839844 C 150.925781 357.046875 161.433594 359.867188 169.644531 355.132812 C 177.871094 350.367188 180.679688 339.894531 175.953125 331.671875 L 156.113281 297.308594 Z M 257.578125 121.570312 "/>
<path style=" stroke:none;fill-rule:nonzero;fill:rgb(45.097351%,25.097656%,58.432007%);fill-opacity:1;" d="M 326.875 70.203125 L 267.375 70.203125 C 257.878906 70.203125 250.207031 77.890625 250.207031 87.359375 C 250.207031 96.851562 257.878906 104.546875 267.375 104.546875 L 307.042969 104.546875 L 408.511719 280.273438 L 426.492188 186.757812 C 428.28125 177.433594 422.191406 168.433594 412.867188 166.636719 C 408.660156 165.832031 404.5 166.636719 401.054688 168.617188 C 396.875 171.042969 393.738281 175.167969 392.753906 180.269531 C 392.753906 180.269531 392.253906 182.949219 392.179688 183.308594 Z M 326.875 70.203125 "/>
<path style=" stroke:none;fill-rule:nonzero;fill:rgb(13.725281%,9.803772%,8.627319%);fill-opacity:1;" d="M 256.324219 293.589844 L 247.09375 293.589844 L 247.09375 212.761719 L 256.324219 212.761719 Z M 256.324219 293.589844 "/>
<path style=" stroke:none;fill-rule:nonzero;fill:rgb(13.725281%,9.803772%,8.627319%);fill-opacity:1;" d="M 218.953125 237.859375 L 230.082031 237.859375 L 230.082031 257.765625 L 218.953125 257.765625 Z M 230.082031 214.015625 L 230.082031 231.027344 L 218.953125 231.027344 L 218.953125 214.015625 L 209.71875 214.015625 L 209.71875 257.519531 C 209.71875 261.785156 211.003906 264.597656 216.132812 264.597656 L 239.308594 264.597656 L 239.308594 214.015625 Z M 230.082031 214.015625 "/>
<path style=" stroke:none;fill-rule:nonzero;fill:rgb(13.725281%,9.803772%,8.627319%);fill-opacity:1;" d="M 272.113281 286.523438 C 272.113281 290.777344 273.386719 293.589844 278.507812 293.589844 L 310.65625 293.589844 L 310.65625 286.761719 L 281.332031 286.761719 L 281.332031 278.058594 L 310.65625 278.058594 L 310.65625 256.199219 L 272.113281 256.199219 L 272.113281 263.035156 L 301.421875 263.035156 L 301.421875 271.238281 L 272.113281 271.238281 Z M 272.113281 286.523438 "/>
<path style=" stroke:none;fill-rule:nonzero;fill:rgb(13.725281%,9.803772%,8.627319%);fill-opacity:1;" d="M 323.660156 244.738281 C 323.660156 248.992188 324.949219 251.808594 330.070312 251.808594 L 364.121094 251.808594 L 364.121094 244.984375 L 332.886719 244.984375 L 332.886719 236.277344 L 363.167969 236.277344 L 363.167969 213.644531 L 323.660156 213.644531 L 323.660156 220.464844 L 353.933594 220.464844 L 353.933594 229.453125 L 323.660156 229.453125 Z M 323.660156 244.738281 "/>
<path style=" stroke:none;fill-rule:nonzero;fill:rgb(13.725281%,9.803772%,8.627319%);fill-opacity:1;" d="M 369.785156 258.933594 L 317.507812 258.933594 L 317.507812 265.765625 L 329.203125 265.765625 L 329.203125 293.589844 L 338.421875 293.589844 L 338.421875 265.765625 L 348.878906 265.765625 L 348.878906 293.589844 L 358.105469 293.589844 L 358.105469 265.765625 L 369.785156 265.765625 Z M 369.785156 258.933594 "/>
<path style=" stroke:none;fill-rule:nonzero;fill:rgb(13.725281%,9.803772%,8.627319%);fill-opacity:1;" d="M 301.421875 212.761719 L 301.421875 239.46875 C 299.820312 240.273438 297.007812 241.167969 293.4375 241.167969 L 274.703125 241.167969 L 274.703125 213.152344 L 265.476562 213.152344 L 265.476562 240.925781 C 265.476562 245.191406 266.761719 248.003906 271.878906 248.003906 L 291.941406 248.003906 C 295.90625 248.003906 298.882812 246.804688 301.421875 245.410156 L 301.421875 250.578125 L 310.65625 250.578125 L 310.65625 212.761719 Z M 301.421875 212.761719 "/>
<path style=" stroke:none;fill-rule:nonzero;fill:rgb(13.725281%,9.803772%,8.627319%);fill-opacity:1;" d="M 248.175781 457.300781 C 249.808594 457.734375 251.984375 457.84375 254.703125 457.84375 C 264.699219 457.84375 270.789062 452.953125 270.789062 444.363281 C 270.789062 436.210938 265.136719 431.863281 255.894531 431.863281 C 252.199219 431.863281 249.589844 432.1875 248.175781 432.515625 Z M 234.914062 423.167969 C 239.699219 422.296875 246.328125 421.644531 255.351562 421.644531 C 265.136719 421.644531 272.3125 423.710938 276.984375 427.625 C 281.335938 431.210938 284.15625 436.972656 284.15625 443.820312 C 284.15625 450.777344 281.984375 456.539062 277.859375 460.453125 C 272.527344 465.78125 264.160156 468.28125 254.703125 468.28125 C 252.199219 468.28125 249.914062 468.167969 248.175781 467.84375 L 248.175781 495.457031 L 234.914062 495.457031 Z M 234.914062 423.167969 "/>
<path style=" stroke:none;fill-rule:nonzero;fill:rgb(13.725281%,9.803772%,8.627319%);fill-opacity:1;" d="M 295.363281 480.890625 C 299.707031 483.390625 306.230469 485.5625 313.082031 485.5625 C 321.667969 485.5625 326.453125 481.542969 326.453125 475.5625 C 326.453125 470.019531 322.753906 466.757812 313.40625 463.390625 C 301.339844 459.039062 293.621094 452.628906 293.621094 442.082031 C 293.621094 430.125 303.621094 420.992188 319.496094 420.992188 C 327.429688 420.992188 333.296875 422.730469 337.105469 424.6875 L 333.84375 435.453125 C 331.230469 434.039062 326.125 431.972656 319.277344 431.972656 C 310.796875 431.972656 307.101562 436.539062 307.101562 440.777344 C 307.101562 446.433594 311.339844 449.039062 321.125 452.84375 C 333.84375 457.628906 340.039062 464.042969 340.039062 474.585938 C 340.039062 486.324219 331.125 496.65625 312.210938 496.65625 C 304.492188 496.65625 296.445312 494.371094 292.425781 491.976562 Z M 295.363281 480.890625 "/>
</g>
</svg>
