<?xml version="1.0" encoding="UTF-8"?>
<svg xmlns="http://www.w3.org/2000/svg" xmlns:xlink="http://www.w3.org/1999/xlink" width="566.929pt" height="566.929pt" viewBox="0 0 566.929 566.929" version="1.2">
<g id="surface1">
<path style=" stroke:none;fill-rule:nonzero;fill:rgb(13.725281%,9.803772%,8.627319%);fill-opacity:1;" d="M 161.050781 436.921875 L 170.292969 436.921875 L 170.292969 444.511719 L 161.050781 444.511719 L 161.050781 498.933594 L 151.804688 498.933594 L 151.804688 416.253906 L 161.050781 416.253906 Z M 135.914062 442.914062 L 125.574219 442.914062 L 125.574219 461.589844 L 135.914062 461.589844 Z M 125.574219 418.949219 L 125.574219 435.324219 L 135.914062 435.324219 L 135.914062 418.949219 L 145.160156 418.949219 L 145.160156 469.273438 L 122.765625 469.273438 C 120.800781 469.273438 119.238281 468.460938 118.074219 466.832031 C 116.910156 465.199219 116.328125 463.050781 116.328125 460.386719 L 116.328125 418.949219 Z M 125.574219 418.949219 "/>
<path style=" stroke:none;fill-rule:nonzero;fill:rgb(13.725281%,9.803772%,8.627319%);fill-opacity:1;" d="M 219.535156 498.933594 L 210.289062 498.933594 L 210.289062 416.253906 L 219.535156 416.253906 Z M 182.589844 452.648438 C 184.027344 455.613281 185.726562 457.09375 187.691406 457.09375 C 189.609375 457.09375 191.285156 455.59375 192.726562 452.597656 C 194.164062 449.605469 194.882812 445.910156 194.882812 441.515625 C 194.882812 437.191406 194.164062 433.527344 192.726562 430.53125 C 191.285156 427.539062 189.585938 426.039062 187.621094 426.039062 C 185.707031 426.039062 184.027344 427.539062 182.589844 430.53125 C 181.148438 433.527344 180.429688 437.253906 180.429688 441.714844 C 180.429688 446.042969 181.148438 449.6875 182.589844 452.648438 M 199.296875 425.1875 C 202.515625 429.679688 204.128906 435.160156 204.128906 441.617188 C 204.128906 448.007812 202.515625 453.449219 199.296875 457.945312 C 196.078125 462.4375 192.1875 464.683594 187.621094 464.683594 C 183.101562 464.683594 179.230469 462.4375 176.011719 457.945312 C 172.792969 453.449219 171.1875 448.007812 171.1875 441.617188 C 171.1875 435.160156 172.792969 429.679688 176.011719 425.1875 C 179.230469 420.695312 183.101562 418.449219 187.621094 418.449219 C 192.1875 418.449219 196.078125 420.695312 199.296875 425.1875 "/>
<path style=" stroke:none;fill-rule:nonzero;fill:rgb(13.725281%,9.803772%,8.627319%);fill-opacity:1;" d="M 245.355469 428.4375 C 243.574219 431.5625 242.683594 435.394531 242.683594 439.917969 C 242.683594 444.449219 243.574219 448.273438 245.355469 451.402344 C 247.132812 454.535156 249.300781 456.09375 251.859375 456.09375 C 254.417969 456.09375 256.585938 454.535156 258.367188 451.402344 C 260.148438 448.273438 261.039062 444.449219 261.039062 439.917969 C 261.039062 435.394531 260.148438 431.5625 258.367188 428.4375 C 256.585938 425.308594 254.417969 423.742188 251.859375 423.742188 C 249.300781 423.742188 247.132812 425.308594 245.355469 428.4375 M 277.476562 486.652344 L 226.3125 486.652344 L 226.3125 478.960938 L 247.273438 478.960938 L 247.273438 462.984375 C 243.253906 461.65625 239.929688 458.84375 237.304688 454.546875 C 234.679688 450.253906 233.367188 445.375 233.367188 439.917969 C 233.367188 433.328125 235.171875 427.703125 238.777344 423.042969 C 242.382812 418.382812 246.746094 416.054688 251.859375 416.054688 C 257.019531 416.054688 261.390625 418.382812 264.972656 423.042969 C 268.558594 427.703125 270.351562 433.328125 270.351562 439.917969 C 270.351562 445.375 269.050781 450.253906 266.449219 454.546875 C 263.847656 458.84375 260.535156 461.65625 256.515625 462.984375 L 256.515625 478.960938 L 277.476562 478.960938 Z M 277.476562 486.652344 "/>
<path style=" stroke:none;fill-rule:nonzero;fill:rgb(13.725281%,9.803772%,8.627319%);fill-opacity:1;" d="M 296.652344 418.515625 L 296.652344 447.863281 L 316.605469 447.863281 L 316.605469 418.515625 L 325.214844 418.515625 L 325.214844 491.78125 L 316.605469 491.78125 L 316.605469 459.496094 L 296.652344 459.496094 L 296.652344 491.78125 L 288.042969 491.78125 L 288.042969 418.515625 Z M 296.652344 418.515625 "/>
<path style=" stroke:none;fill-rule:nonzero;fill:rgb(13.725281%,9.803772%,8.627319%);fill-opacity:1;" d="M 343.699219 481.5625 C 344.890625 481.890625 346.710938 481.890625 348.460938 481.890625 C 359.660156 482 366.3125 472.433594 366.3125 453.84375 C 366.378906 437.648438 360.359375 428.40625 349.578125 428.40625 C 346.851562 428.40625 344.890625 428.730469 343.699219 429.167969 Z M 335.089844 419.492188 C 338.871094 418.515625 343.699219 417.96875 348.808594 417.96875 C 357.628906 417.96875 363.71875 420.796875 368.0625 426.449219 C 372.609375 432.210938 375.410156 440.90625 375.410156 453.410156 C 375.410156 466.453125 372.539062 476.238281 368.0625 482.542969 C 363.371094 489.171875 355.878906 492.542969 346.710938 492.542969 C 341.667969 492.542969 337.890625 492.109375 335.089844 491.566406 Z M 335.089844 419.492188 "/>
<path style=" stroke:none;fill-rule:nonzero;fill:rgb(13.725281%,9.803772%,8.627319%);fill-opacity:1;" d="M 391.445312 453.625 C 392.496094 454.0625 393.894531 454.167969 395.644531 454.167969 C 402.085938 454.167969 406.007812 449.277344 406.007812 440.6875 C 406.007812 432.535156 402.367188 428.1875 396.414062 428.1875 C 394.035156 428.1875 392.355469 428.515625 391.445312 428.839844 Z M 382.90625 419.492188 C 385.984375 418.621094 390.253906 417.96875 396.066406 417.96875 C 402.367188 417.96875 406.984375 420.035156 409.996094 423.949219 C 412.796875 427.535156 414.617188 433.296875 414.617188 440.148438 C 414.617188 447.105469 413.214844 452.863281 410.558594 456.777344 C 407.125 462.105469 401.734375 464.605469 395.644531 464.605469 C 394.035156 464.605469 392.566406 464.496094 391.445312 464.167969 L 391.445312 491.78125 L 382.90625 491.78125 Z M 382.90625 419.492188 "/>
<path style=" stroke:none;fill-rule:nonzero;fill:rgb(13.725281%,9.803772%,8.627319%);fill-opacity:1;" d="M 448.429688 459.277344 L 430.648438 459.277344 L 430.648438 480.804688 L 450.53125 480.804688 L 450.53125 491.78125 L 422.039062 491.78125 L 422.039062 418.515625 L 449.480469 418.515625 L 449.480469 429.492188 L 430.648438 429.492188 L 430.648438 448.40625 L 448.429688 448.40625 Z M 448.429688 459.277344 "/>
<path style=" stroke:none;fill-rule:nonzero;fill:rgb(45.097351%,25.097656%,58.432007%);fill-opacity:1;" d="M 418.289062 363.832031 L 448.015625 312.328125 C 452.769531 304.105469 449.953125 293.601562 441.738281 288.863281 C 433.53125 284.125 423.023438 286.929688 418.289062 295.140625 L 398.445312 329.484375 L 195.527344 329.484375 L 267.519531 391.839844 C 274.699219 398.046875 285.542969 397.257812 291.757812 390.085938 C 294.566406 386.84375 295.933594 382.847656 295.933594 378.847656 C 295.933594 374.046875 293.953125 369.257812 290.007812 365.863281 C 290.007812 365.863281 287.945312 364.066406 287.667969 363.832031 Z M 418.289062 363.832031 "/>
<path style=" stroke:none;fill-rule:nonzero;fill:rgb(45.097351%,25.097656%,58.432007%);fill-opacity:1;" d="M 257.476562 119.289062 L 167.460938 150.492188 C 158.519531 153.589844 153.765625 163.375 156.886719 172.339844 C 158.285156 176.394531 161.074219 179.578125 164.519531 181.566406 C 168.675781 183.980469 173.835938 184.625 178.742188 182.9375 C 178.742188 182.9375 181.3125 182.046875 181.660156 181.921875 L 116.328125 295.027344 L 146.085938 346.558594 C 150.824219 354.765625 161.332031 357.589844 169.542969 352.855469 C 177.769531 348.089844 180.578125 337.613281 175.851562 329.390625 L 156.011719 295.027344 Z M 257.476562 119.289062 "/>
<path style=" stroke:none;fill-rule:nonzero;fill:rgb(45.097351%,25.097656%,58.432007%);fill-opacity:1;" d="M 326.773438 67.921875 L 267.273438 67.921875 C 257.777344 67.921875 250.105469 75.609375 250.105469 85.078125 C 250.105469 94.574219 257.777344 102.269531 267.273438 102.269531 L 306.941406 102.269531 L 408.410156 277.992188 L 426.390625 184.476562 C 428.179688 175.15625 422.089844 166.15625 412.761719 164.355469 C 408.558594 163.550781 404.398438 164.355469 400.953125 166.339844 C 396.773438 168.761719 393.636719 172.890625 392.652344 177.988281 C 392.652344 177.988281 392.152344 180.671875 392.078125 181.03125 Z M 326.773438 67.921875 "/>
<path style=" stroke:none;fill-rule:nonzero;fill:rgb(13.725281%,9.803772%,8.627319%);fill-opacity:1;" d="M 256.222656 291.3125 L 246.992188 291.3125 L 246.992188 210.484375 L 256.222656 210.484375 Z M 256.222656 291.3125 "/>
<path style=" stroke:none;fill-rule:nonzero;fill:rgb(13.725281%,9.803772%,8.627319%);fill-opacity:1;" d="M 218.851562 235.578125 L 229.980469 235.578125 L 229.980469 255.484375 L 218.851562 255.484375 Z M 229.980469 211.738281 L 229.980469 228.75 L 218.851562 228.75 L 218.851562 211.738281 L 209.617188 211.738281 L 209.617188 255.242188 C 209.617188 259.507812 210.902344 262.320312 216.03125 262.320312 L 239.207031 262.320312 L 239.207031 211.738281 Z M 229.980469 211.738281 "/>
<path style=" stroke:none;fill-rule:nonzero;fill:rgb(13.725281%,9.803772%,8.627319%);fill-opacity:1;" d="M 272.011719 284.242188 C 272.011719 288.496094 273.285156 291.3125 278.40625 291.3125 L 310.554688 291.3125 L 310.554688 284.480469 L 281.226562 284.480469 L 281.226562 275.78125 L 310.554688 275.78125 L 310.554688 253.917969 L 272.011719 253.917969 L 272.011719 260.753906 L 301.320312 260.753906 L 301.320312 268.957031 L 272.011719 268.957031 Z M 272.011719 284.242188 "/>
<path style=" stroke:none;fill-rule:nonzero;fill:rgb(13.725281%,9.803772%,8.627319%);fill-opacity:1;" d="M 323.558594 242.457031 C 323.558594 246.714844 324.847656 249.527344 329.96875 249.527344 L 364.019531 249.527344 L 364.019531 242.703125 L 332.78125 242.703125 L 332.78125 233.996094 L 363.0625 233.996094 L 363.0625 211.363281 L 323.558594 211.363281 L 323.558594 218.1875 L 353.832031 218.1875 L 353.832031 227.175781 L 323.558594 227.175781 Z M 323.558594 242.457031 "/>
<path style=" stroke:none;fill-rule:nonzero;fill:rgb(13.725281%,9.803772%,8.627319%);fill-opacity:1;" d="M 369.683594 256.65625 L 317.40625 256.65625 L 317.40625 263.488281 L 329.101562 263.488281 L 329.101562 291.3125 L 338.320312 291.3125 L 338.320312 263.488281 L 348.777344 263.488281 L 348.777344 291.3125 L 358.003906 291.3125 L 358.003906 263.488281 L 369.683594 263.488281 Z M 369.683594 256.65625 "/>
<path style=" stroke:none;fill-rule:nonzero;fill:rgb(13.725281%,9.803772%,8.627319%);fill-opacity:1;" d="M 301.320312 210.484375 L 301.320312 237.1875 C 299.71875 237.992188 296.90625 238.890625 293.335938 238.890625 L 274.601562 238.890625 L 274.601562 210.871094 L 265.375 210.871094 L 265.375 238.648438 C 265.375 242.910156 266.660156 245.722656 271.78125 245.722656 L 291.839844 245.722656 C 295.804688 245.722656 298.78125 244.527344 301.320312 243.128906 L 301.320312 248.296875 L 310.554688 248.296875 L 310.554688 210.484375 Z M 301.320312 210.484375 "/>
</g>
</svg>
