<?xml version="1.0" encoding="UTF-8"?>
<svg xmlns="http://www.w3.org/2000/svg" xmlns:xlink="http://www.w3.org/1999/xlink" width="566.929pt" height="566.929pt" viewBox="0 0 566.929 566.929" version="1.2">
<g id="surface1">
<path style=" stroke:none;fill-rule:nonzero;fill:rgb(0%,35.68573%,67.451477%);fill-opacity:1;" d="M 418.425781 363.585938 L 448.132812 312.171875 C 452.859375 303.960938 450.050781 293.488281 441.851562 288.742188 C 433.636719 284.027344 423.183594 286.832031 418.425781 295.023438 L 398.65625 329.285156 L 196.09375 329.285156 L 267.980469 391.527344 C 275.128906 397.734375 285.953125 396.933594 292.160156 389.78125 C 294.957031 386.535156 296.351562 382.554688 296.351562 378.585938 C 296.351562 373.777344 294.339844 369 290.410156 365.609375 C 290.410156 365.609375 288.34375 363.832031 288.070312 363.585938 Z M 418.425781 363.585938 "/>
<path style=" stroke:none;fill-rule:nonzero;fill:rgb(0%,35.68573%,67.451477%);fill-opacity:1;" d="M 257.929688 119.5 L 168.097656 150.636719 C 159.171875 153.730469 154.433594 163.503906 157.523438 172.441406 C 158.945312 176.488281 161.703125 179.671875 165.132812 181.664062 C 169.308594 184.082031 174.445312 184.738281 179.335938 183.046875 C 179.335938 183.046875 181.910156 182.148438 182.257812 182.03125 L 117.074219 294.910156 L 146.746094 346.328125 C 151.511719 354.550781 161.976562 357.34375 170.175781 352.605469 C 178.367188 347.890625 181.179688 337.394531 176.460938 329.199219 L 156.660156 294.910156 Z M 257.929688 119.5 "/>
<path style=" stroke:none;fill-rule:nonzero;fill:rgb(0%,35.68573%,67.451477%);fill-opacity:1;" d="M 327.101562 68.238281 L 267.738281 68.238281 C 258.226562 68.238281 250.574219 75.894531 250.574219 85.363281 C 250.574219 94.835938 258.226562 102.503906 267.738281 102.503906 L 307.292969 102.503906 L 408.570312 277.925781 L 426.53125 184.574219 C 428.328125 175.261719 422.230469 166.28125 412.933594 164.496094 C 408.714844 163.695312 404.570312 164.496094 401.144531 166.472656 C 396.976562 168.886719 393.835938 173 392.859375 178.074219 C 392.859375 178.074219 392.363281 180.757812 392.292969 181.121094 Z M 327.101562 68.238281 "/>
<path style=" stroke:none;fill-rule:nonzero;fill:rgb(13.725281%,9.803772%,8.627319%);fill-opacity:1;" d="M 184.671875 437.234375 L 196.886719 437.234375 L 196.886719 444.828125 L 184.671875 444.828125 L 184.671875 499.25 L 172.460938 499.25 L 172.460938 416.566406 L 184.671875 416.566406 Z M 151.46875 443.230469 L 137.808594 443.230469 L 137.808594 461.902344 L 151.46875 461.902344 Z M 137.808594 419.261719 L 137.808594 435.636719 L 151.46875 435.636719 L 151.46875 419.261719 L 163.683594 419.261719 L 163.683594 469.589844 L 134.101562 469.589844 C 131.503906 469.589844 129.441406 468.777344 127.902344 467.144531 C 126.367188 465.515625 125.59375 463.367188 125.59375 460.703125 L 125.59375 419.261719 Z M 137.808594 419.261719 "/>
<path style=" stroke:none;fill-rule:nonzero;fill:rgb(13.725281%,9.803772%,8.627319%);fill-opacity:1;" d="M 261.933594 499.25 L 249.722656 499.25 L 249.722656 416.566406 L 261.933594 416.566406 Z M 213.125 452.964844 C 215.027344 455.925781 217.273438 457.40625 219.867188 457.40625 C 222.398438 457.40625 224.613281 455.910156 226.515625 452.914062 C 228.414062 449.917969 229.367188 446.222656 229.367188 441.832031 C 229.367188 437.503906 228.414062 433.84375 226.515625 430.847656 C 224.613281 427.851562 222.367188 426.355469 219.777344 426.355469 C 217.242188 426.355469 215.027344 427.851562 213.125 430.847656 C 211.226562 433.84375 210.277344 437.570312 210.277344 442.027344 C 210.277344 446.355469 211.226562 450.003906 213.125 452.964844 M 235.199219 425.503906 C 239.453125 429.996094 241.578125 435.472656 241.578125 441.929688 C 241.578125 448.320312 239.453125 453.765625 235.199219 458.257812 C 230.945312 462.75 225.808594 464.996094 219.777344 464.996094 C 213.800781 464.996094 208.695312 462.75 204.441406 458.257812 C 200.1875 453.765625 198.0625 448.320312 198.0625 441.929688 C 198.0625 435.472656 200.1875 429.996094 204.441406 425.503906 C 208.695312 421.011719 213.800781 418.761719 219.777344 418.761719 C 225.808594 418.761719 230.945312 421.011719 235.199219 425.503906 "/>
<path style=" stroke:none;fill-rule:nonzero;fill:rgb(13.725281%,9.803772%,8.627319%);fill-opacity:1;" d="M 296.039062 428.75 C 293.6875 431.878906 292.511719 435.707031 292.511719 440.230469 C 292.511719 444.761719 293.6875 448.585938 296.039062 451.714844 C 298.390625 454.847656 301.257812 456.410156 304.636719 456.410156 C 308.015625 456.410156 310.878906 454.847656 313.230469 451.714844 C 315.582031 448.585938 316.761719 444.761719 316.761719 440.230469 C 316.761719 435.707031 315.582031 431.878906 313.230469 428.75 C 310.878906 425.621094 308.015625 424.058594 304.636719 424.058594 C 301.257812 424.058594 298.390625 425.621094 296.039062 428.75 M 338.472656 486.964844 L 270.890625 486.964844 L 270.890625 479.277344 L 298.570312 479.277344 L 298.570312 463.296875 C 293.265625 461.96875 288.878906 459.15625 285.410156 454.859375 C 281.941406 450.566406 280.207031 445.691406 280.207031 440.230469 C 280.207031 433.640625 282.589844 428.019531 287.355469 423.355469 C 292.117188 418.699219 297.878906 416.367188 304.636719 416.367188 C 311.449219 416.367188 317.226562 418.699219 321.960938 423.355469 C 326.695312 428.019531 329.0625 433.640625 329.0625 440.230469 C 329.0625 445.691406 327.34375 450.566406 323.90625 454.859375 C 320.46875 459.15625 316.097656 461.96875 310.789062 463.296875 L 310.789062 479.277344 L 338.472656 479.277344 Z M 338.472656 486.964844 "/>
<path style=" stroke:none;fill-rule:nonzero;fill:rgb(13.725281%,9.803772%,8.627319%);fill-opacity:1;" d="M 360.910156 453.351562 C 362.488281 453.785156 364.597656 453.894531 367.230469 453.894531 C 376.925781 453.894531 382.824219 449.003906 382.824219 440.414062 C 382.824219 432.261719 377.347656 427.914062 368.390625 427.914062 C 364.808594 427.914062 362.277344 428.238281 360.910156 428.566406 Z M 348.058594 419.21875 C 352.691406 418.347656 359.117188 417.695312 367.863281 417.695312 C 377.347656 417.695312 384.300781 419.757812 388.828125 423.671875 C 393.046875 427.261719 395.78125 433.023438 395.78125 439.871094 C 395.78125 446.828125 393.675781 452.589844 389.675781 456.503906 C 384.507812 461.828125 376.398438 464.332031 367.230469 464.332031 C 364.808594 464.332031 362.59375 464.21875 360.910156 463.894531 L 360.910156 491.507812 L 348.058594 491.507812 Z M 348.058594 419.21875 "/>
<path style=" stroke:none;fill-rule:nonzero;fill:rgb(13.725281%,9.803772%,8.627319%);fill-opacity:1;" d="M 406.640625 476.9375 C 410.851562 479.441406 417.171875 481.613281 423.8125 481.613281 C 432.132812 481.613281 436.773438 477.59375 436.773438 471.613281 C 436.773438 466.070312 433.1875 462.808594 424.125 459.4375 C 412.433594 455.089844 404.953125 448.675781 404.953125 438.128906 C 404.953125 426.175781 414.644531 417.042969 430.03125 417.042969 C 437.71875 417.042969 443.40625 418.78125 447.097656 420.738281 L 443.933594 431.5 C 441.402344 430.089844 436.453125 428.023438 429.816406 428.023438 C 421.601562 428.023438 418.015625 432.589844 418.015625 436.828125 C 418.015625 442.480469 422.125 445.085938 431.605469 448.894531 C 443.933594 453.679688 449.9375 460.089844 449.9375 470.632812 C 449.9375 482.375 441.300781 492.707031 422.96875 492.707031 C 415.488281 492.707031 407.6875 490.421875 403.792969 488.027344 Z M 406.640625 476.9375 "/>
<path style=" stroke:none;fill-rule:nonzero;fill:rgb(45.097351%,25.097656%,58.432007%);fill-opacity:1;" d="M 418.390625 363.519531 L 448.117188 312.015625 C 452.867188 303.792969 450.054688 293.289062 441.839844 288.546875 C 433.632812 283.8125 423.125 286.617188 418.390625 294.828125 L 398.542969 329.171875 L 195.628906 329.171875 L 267.621094 391.523438 C 274.800781 397.734375 285.644531 396.941406 291.855469 389.773438 C 294.667969 386.53125 296.035156 382.535156 296.035156 378.535156 C 296.035156 373.730469 294.054688 368.945312 290.105469 365.546875 C 290.105469 365.546875 288.046875 363.753906 287.765625 363.519531 Z M 418.390625 363.519531 "/>
<path style=" stroke:none;fill-rule:nonzero;fill:rgb(45.097351%,25.097656%,58.432007%);fill-opacity:1;" d="M 257.578125 118.972656 L 167.5625 150.179688 C 158.621094 153.277344 153.867188 163.0625 156.988281 172.023438 C 158.390625 176.082031 161.171875 179.265625 164.621094 181.253906 C 168.777344 183.667969 173.9375 184.308594 178.84375 182.621094 C 178.84375 182.621094 181.414062 181.730469 181.761719 181.609375 L 116.429688 294.714844 L 146.1875 346.246094 C 150.925781 354.453125 161.433594 357.273438 169.644531 352.542969 C 177.871094 347.773438 180.679688 337.300781 175.953125 329.078125 L 156.113281 294.714844 Z M 257.578125 118.972656 "/>
<path style=" stroke:none;fill-rule:nonzero;fill:rgb(45.097351%,25.097656%,58.432007%);fill-opacity:1;" d="M 326.875 67.609375 L 267.375 67.609375 C 257.878906 67.609375 250.207031 75.292969 250.207031 84.765625 C 250.207031 94.257812 257.878906 101.957031 267.375 101.957031 L 307.042969 101.957031 L 408.511719 277.679688 L 426.492188 184.164062 C 428.28125 174.839844 422.191406 165.839844 412.867188 164.042969 C 408.660156 163.238281 404.5 164.042969 401.054688 166.023438 C 396.875 168.449219 393.738281 172.574219 392.753906 177.675781 C 392.753906 177.675781 392.253906 180.359375 392.179688 180.714844 Z M 326.875 67.609375 "/>
<path style=" stroke:none;fill-rule:nonzero;fill:rgb(13.725281%,9.803772%,8.627319%);fill-opacity:1;" d="M 256.324219 290.996094 L 247.09375 290.996094 L 247.09375 210.167969 L 256.324219 210.167969 Z M 256.324219 290.996094 "/>
<path style=" stroke:none;fill-rule:nonzero;fill:rgb(13.725281%,9.803772%,8.627319%);fill-opacity:1;" d="M 218.953125 235.265625 L 230.082031 235.265625 L 230.082031 255.171875 L 218.953125 255.171875 Z M 230.082031 211.421875 L 230.082031 228.433594 L 218.953125 228.433594 L 218.953125 211.421875 L 209.71875 211.421875 L 209.71875 254.925781 C 209.71875 259.195312 211.003906 262.003906 216.132812 262.003906 L 239.308594 262.003906 L 239.308594 211.421875 Z M 230.082031 211.421875 "/>
<path style=" stroke:none;fill-rule:nonzero;fill:rgb(13.725281%,9.803772%,8.627319%);fill-opacity:1;" d="M 272.113281 283.929688 C 272.113281 288.183594 273.386719 290.996094 278.507812 290.996094 L 310.65625 290.996094 L 310.65625 284.167969 L 281.332031 284.167969 L 281.332031 275.464844 L 310.65625 275.464844 L 310.65625 253.605469 L 272.113281 253.605469 L 272.113281 260.441406 L 301.421875 260.441406 L 301.421875 268.644531 L 272.113281 268.644531 Z M 272.113281 283.929688 "/>
<path style=" stroke:none;fill-rule:nonzero;fill:rgb(13.725281%,9.803772%,8.627319%);fill-opacity:1;" d="M 323.660156 242.144531 C 323.660156 246.398438 324.949219 249.214844 330.070312 249.214844 L 364.121094 249.214844 L 364.121094 242.390625 L 332.886719 242.390625 L 332.886719 233.683594 L 363.167969 233.683594 L 363.167969 211.050781 L 323.660156 211.050781 L 323.660156 217.871094 L 353.933594 217.871094 L 353.933594 226.859375 L 323.660156 226.859375 Z M 323.660156 242.144531 "/>
<path style=" stroke:none;fill-rule:nonzero;fill:rgb(13.725281%,9.803772%,8.627319%);fill-opacity:1;" d="M 369.785156 256.34375 L 317.507812 256.34375 L 317.507812 263.171875 L 329.203125 263.171875 L 329.203125 290.996094 L 338.421875 290.996094 L 338.421875 263.171875 L 348.878906 263.171875 L 348.878906 290.996094 L 358.105469 290.996094 L 358.105469 263.171875 L 369.785156 263.171875 Z M 369.785156 256.34375 "/>
<path style=" stroke:none;fill-rule:nonzero;fill:rgb(13.725281%,9.803772%,8.627319%);fill-opacity:1;" d="M 301.421875 210.167969 L 301.421875 236.875 C 299.820312 237.679688 297.007812 238.574219 293.4375 238.574219 L 274.703125 238.574219 L 274.703125 210.558594 L 265.476562 210.558594 L 265.476562 238.332031 C 265.476562 242.597656 266.761719 245.410156 271.878906 245.410156 L 291.941406 245.410156 C 295.90625 245.410156 298.882812 244.210938 301.421875 242.816406 L 301.421875 247.984375 L 310.65625 247.984375 L 310.65625 210.167969 Z M 301.421875 210.167969 "/>
</g>
</svg>
