<svg width="427" height="266" viewBox="0 0 427 266" fill="none" xmlns="http://www.w3.org/2000/svg">
<g clip-path="url(#clip0_2079_5135)">
<path d="M83.1057 265.886V262.224C87.3616 261.995 90.9274 261.48 93.7455 260.736C96.6211 259.992 98.059 257.932 98.059 254.499C98.059 253.012 96.6211 249.636 93.7455 244.372C90.8699 239.108 87.4766 233.043 83.5658 226.177C79.6549 219.311 75.514 212.274 71.1431 205.007C66.7721 197.798 63.0338 191.733 59.8131 186.812C56.4198 181.434 53.3142 178.745 50.5536 178.745C49.4608 178.745 48.5981 178.802 47.8505 178.916C47.1028 179.031 46.2976 179.374 45.4349 179.832V251.925C45.4349 254.156 45.9526 255.873 47.0453 257.074C48.0805 258.276 49.4608 259.248 51.1862 259.821C52.8541 260.45 54.8095 260.85 56.9375 261.079C59.0654 261.308 61.1934 261.709 63.3214 262.166V265.828H0V262.166C4.88857 261.652 9.25953 260.736 13.2279 259.42C17.1387 258.047 19.0942 255.072 19.0942 250.38V42.6836C19.0942 40.7382 18.9792 39.1934 18.7491 38.1063C18.5191 37.0191 17.6564 35.8176 16.2185 34.616C14.7232 33.4145 12.4227 31.8696 9.37455 30.0387C6.26887 28.2078 3.39324 26.4341 0.632638 24.7176V22.4861L42.9619 0H45.4925V175.769C51.6463 169.876 58.3178 163.182 65.5643 155.744C72.7534 148.248 79.4824 141.039 85.6362 134.058C91.7901 127.078 96.9087 120.956 100.935 115.692C104.96 110.428 106.973 106.938 106.973 105.221C106.973 103.505 106.111 102.074 104.443 100.987C102.717 99.9002 100.647 98.9847 98.059 98.2409C95.4709 97.4971 92.7678 96.8677 89.7771 96.41C86.7865 95.895 84.0259 95.6662 81.4953 95.6662V92.0043H159.482V95.6662C158.85 95.6662 156.837 95.8378 153.444 96.2383C150.05 96.5816 146.082 97.4399 141.481 98.8131C136.937 100.186 132.049 102.074 126.815 104.535C121.639 106.995 116.808 110.428 112.322 114.834C105.536 121.471 98.8641 128.28 92.2502 135.26C85.6938 142.24 79.5399 148.82 73.7886 154.943C83.1057 171.364 91.9626 186.755 100.187 201.116C108.469 215.478 115.658 227.264 121.812 236.591C129.231 247.862 135.5 255.701 140.618 260.107C142.286 260.622 144.989 261.079 148.555 261.594C152.178 262.109 155.974 262.338 160 262.338V266H83.1057V265.886Z" fill="black"/>
<path d="M262.844 121.824C260.073 125.357 256.898 127.124 253.262 127.124C249.856 127.124 247.143 126.44 245.123 125.129C243.103 123.762 241.313 122.28 239.87 120.571C238.369 118.861 236.753 117.322 235.079 116.012C233.347 114.701 231.038 114.017 228.037 114.017C225.497 114.017 222.957 115.043 220.533 117.151C218.109 119.203 215.8 121.881 213.664 125.015C211.528 128.207 209.623 131.797 207.892 135.843C206.16 139.889 204.717 143.707 203.389 147.354V252.836C204.024 255.059 205.409 256.768 207.545 257.965C209.681 259.162 212.048 260.016 214.761 260.529C217.416 261.042 220.187 261.327 223.073 261.441C225.959 261.555 228.441 261.84 230.577 262.353V266H159V262.353C163.906 261.84 168.12 260.757 171.641 259.048C175.162 257.338 176.894 254.546 176.894 250.614V126.725C176.894 124.788 176.721 123.306 176.432 122.337C176.086 121.368 175.22 120.286 173.719 119.032C171.815 117.835 169.563 116.297 167.024 114.473C164.484 112.649 161.886 111.111 159.346 109.914V107.692L201.196 89H203.1L202.466 139.889H203.1C204.139 136.983 205.871 132.709 208.238 127.067C210.604 121.425 213.548 115.784 217.185 110.028C220.821 104.272 225.151 99.3715 230.288 95.2115C235.425 91.0515 241.255 89 247.836 89C253.146 89 257.707 90.8236 261.401 94.4707C265.153 98.1178 267 102.791 267 108.375C267 113.96 265.615 118.234 262.844 121.767V121.824Z" fill="black"/>
<path d="M350.106 265.886V262.223C354.362 261.994 357.927 261.479 360.746 260.735C363.621 259.991 365.059 257.931 365.059 254.497C365.059 253.009 363.621 249.633 360.746 244.367C357.87 239.102 354.477 233.036 350.566 226.169C346.655 219.301 342.514 212.262 338.143 204.994C333.772 197.783 330.034 191.717 326.813 186.795C323.42 181.416 320.314 178.726 317.611 178.726C316.518 178.726 315.656 178.783 314.908 178.898C314.16 179.012 313.355 179.355 312.492 179.813V251.922C312.492 254.154 313.01 255.87 314.103 257.072C315.138 258.274 316.518 259.247 318.244 259.819C319.912 260.449 321.867 260.849 323.995 261.078C326.123 261.307 328.251 261.708 330.379 262.166V265.828H267V262.166C271.889 261.651 276.26 260.735 280.228 259.419C284.139 258.045 286.094 255.069 286.094 250.376V42.6355C286.094 40.6898 285.979 39.1446 285.749 38.0572C285.519 36.9699 284.656 35.7681 283.219 34.5663C281.723 33.3645 279.423 31.8193 276.375 29.9879C273.269 28.1566 270.393 26.3825 267.633 24.6657V22.4337L309.962 0H312.492V175.75C318.646 169.855 325.318 163.16 332.564 155.72C339.753 148.223 346.482 141.012 352.636 134.03C358.79 127.048 363.909 120.925 367.935 115.66C371.96 110.395 373.973 106.904 373.973 105.187C373.973 103.47 373.111 102.039 371.443 100.952C369.717 99.8644 367.647 98.9488 365.059 98.2048C362.528 97.4608 359.768 96.8313 356.777 96.3735C353.786 95.8584 351.026 95.6295 348.495 95.6295V91.9669H426.482V95.6295C425.85 95.6295 423.837 95.8012 420.444 96.2018C417.05 96.5452 413.082 97.4036 408.481 98.7771C403.937 100.151 399.049 102.039 393.815 104.5C388.639 106.961 383.808 110.395 379.322 114.801C372.536 121.44 365.864 128.25 359.25 135.232C352.694 142.214 346.54 148.795 340.789 154.919C350.106 171.343 358.963 186.738 367.187 201.102C375.469 215.467 382.658 227.256 388.812 236.584C396.231 247.858 402.5 255.699 407.618 260.105C409.286 260.62 411.989 261.078 415.555 261.593C419.178 262.108 422.974 262.337 427 262.337V266H349.933L350.106 265.886Z" fill="black"/>
</g>
<defs>
<clipPath id="clip0_2079_5135">
<rect width="427" height="266" fill="white"/>
</clipPath>
</defs>
</svg>
